<?xml version="1.0" standalone="no"?>
<!DOCTYPE svg PUBLIC "-//W3C//DTD SVG 1.1//EN" "http://www.w3.org/Graphics/SVG/1.1/DTD/svg11.dtd" >
<svg xmlns="http://www.w3.org/2000/svg">
<metadata>
This is a custom SVG webfont generated by Font Squirrel.
Copyright   : Thit k bi Michael inh Kin  In God We Trust  Free for everyone Email fontchudepcgmailcom wwwfontchudepcom
</metadata>
<defs>
<font id="UTMBeautifulCapsRegular" horiz-adv-x="811" >
<font-face units-per-em="2048" ascent="1638" descent="-410" />
<missing-glyph horiz-adv-x="573" />
<glyph unicode=" "  horiz-adv-x="573" />
<glyph unicode="&#x09;" horiz-adv-x="573" />
<glyph unicode="&#xa0;" horiz-adv-x="573" />
<glyph unicode="!" d="M331 176l431 791l151 12l-545 -803h-37zM295 127q61 0 61 -49q0 -90 -82 -90q-49 0 -49 57q0 82 70 82z" />
<glyph unicode="&#x22;" d="M433 893l-24 -320q-2 -16 -5 -34.5t-16 -18.5q-16 0 -20 53l-29 377q-6 90 49 90q45 0 45 -90v-57zM704 893l-25 -320q-2 -16 -5 -34.5t-15 -18.5q-17 0 -21 53l-29 377q-6 90 50 90q45 0 45 -90v-57z" />
<glyph unicode="#" horiz-adv-x="946" d="M729 369v-54h-172l-107 -315h-65l110 315h-192l-107 -315h-65l110 315h-147v54h168l74 221h-148v53h168l111 311h61l-106 -311h192l107 311h61l-106 -311h151v-53h-172l-78 -221h152zM594 590h-193l-78 -221h193z" />
<glyph unicode="$" horiz-adv-x="946" d="M311 336l110 205q-49 80 -49 184q0 111 86 182q80 68 193 68l61 110h37l-61 -110q55 -12 114 -37l78 147h41l-90 -167q74 -56 74 -136q0 -69 -43 -120.5t-113 -51.5q-35 0 -66 25l-102 -193q45 -104 45 -196q0 -107 -87 -186.5t-196 -79.5h-8l-61 -115h-37l61 119 q-77 0 -127 24l-73 -143h-37l82 160q-119 49 -119 184q0 74 49 123t123 49q35 0 72 -19q18 -8 43 -26zM675 950l-180 -332l66 -135l94 172q0 4 -4 11q-6 16 -9 26q0 74 66 74l82 147q-43 31 -115 37zM819 893l-74 -143q12 -9 41 -74q0 -12 24 -12q33 0 54 47q16 39 16 75 q0 52 -61 107zM274 201l-90 -168q43 -25 123 -25l196 365l-31 67l-34 68l-107 -201q12 -24 12 -45q0 -65 -53 -65zM155 45l94 176q-20 0 -20 45q0 21 4 33q-14 37 -74 37q-51 0 -80.5 -40t-29.5 -95q0 -99 106 -156zM479 651l159 299q-82 -10 -133 -61t-51 -131 q0 -53 25 -107zM524 336l-176 -328q90 0 147 70q49 59 49 131q0 24 -20 127z" />
<glyph unicode="%" horiz-adv-x="1871" d="M1302 741q144 0 144 -163q0 -156 -140 -359q-149 -219 -294 -219q-86 0 -129 68q-39 57 -39 145q0 168 143 344q152 184 315 184zM1401 602q0 57 -24.5 82t-57.5 25q-125 0 -264 -220q-129 -202 -129 -337q0 -48 22 -80q27 -39 72 -39q123 0 256 225q125 209 125 344z M721 1126q143 0 143 -163q0 -156 -139 -359q-150 -219 -295 -219q-86 0 -129 68q-39 57 -39 145q0 168 143 344q152 184 316 184zM819 987q0 57 -24.5 82t-57.5 25q-125 0 -264 -220q-129 -202 -129 -337q0 -48 22 -80q27 -39 72 -39q123 0 256 225q125 209 125 344z M455 -12h-46l832 1151h45z" />
<glyph unicode="&#x26;" horiz-adv-x="1216" d="M812 -49q0 -244 -179.5 -417t-422.5 -173q-127 0 -222 68q-102 75 -102 198v8q0 123 111 197q79 53 135 53l12 -12q0 -2 -43 -14q-49 -17 -65 -25q-125 -61 -125 -182q0 -105 92 -168q78 -53 166 -53q227 0 414.5 175t187.5 402q0 86 -33 193q-178 -213 -397 -213 q-119 0 -199 67.5t-80 173.5q0 183 162 299q98 72 326 148q-13 55 -13 110q0 132 66 234q76 115 201 115q73 0 114 -41t41 -115q0 -123 -135 -211q-74 -49 -242 -113q17 -88 168 -409q78 94 140 176q53 70 114 160q94 137 203 219q84 63 158 63q77 0 77 -69q0 -74 -77 -74 q-25 0 -51.5 37t-43.5 37q-32 0 -96 -56q-53 -45 -121 -133l-295 -381q54 -129 54 -274zM173 197q0 -80 45 -132.5t123 -52.5q215 0 389 209l-172 426q-385 -153 -385 -450zM562 807q0 -49 2 -62q2 -32 10 -65q184 68 234 100q127 82 127 203q0 57 -33 92t-94 35 q-107 0 -181 -100q-65 -90 -65 -203z" />
<glyph unicode="'" horiz-adv-x="540" d="M450 893l-24 -320q-2 -16 -5 -34.5t-16 -18.5q-16 0 -20 53l-29 377q-6 90 49 90q45 0 45 -90v-57z" />
<glyph unicode="(" horiz-adv-x="1216" d="M307 70q0 393 352 776q277 303 697 530q98 54 114 54q8 -3 8 -9q-4 -4 -24 -15l-57 -30q-375 -198 -676 -598q-332 -438 -332 -827q0 -127 33 -213l40 -73l38 -71l-5 -4q-22 0 -77 86q-111 170 -111 394z" />
<glyph unicode=")" horiz-adv-x="1216" d="M889 950q0 -348 -294 -708q-281 -342 -754 -598q-98 -54 -115 -54q-8 2 -8 9q4 6 21.5 14t60.5 31q371 192 676 600q332 440 332 825q0 115 -35 213l-39 73q-27 48 -41 70l8 5q23 0 78 -87q110 -169 110 -393z" />
<glyph unicode="*" horiz-adv-x="946" d="M381 995q-15 0 -24 14.5t-9 30.5q0 33 266 103q-221 141 -221 168q0 41 33 41q26 0 59 -35l146 -150l12 209q4 54 41 54q45 0 45 -37q0 -11 -16.5 -59t-53.5 -167q31 11 103 47q127 64 139 64q37 0 37 -37q0 -31 -27 -43l-252 -59l160 -99q78 -49 78 -65q0 -49 -49 -49 q-8 0 -94 86l-103 102q0 -135 -2 -151q-8 -127 -51 -127q-33 0 -33 36q0 52 57 242q-213 -119 -241 -119z" />
<glyph unicode="+" horiz-adv-x="970" d="M458 315v254h61v-254h254v-61h-254v-254h-61v254h-254v61h254z" />
<glyph unicode="," horiz-adv-x="540" d="M344 78q0 -90 -123 -190.5t-217 -100.5q-12 0 -12 8q0 6 20.5 11.5t40.5 13.5q146 55 156 168q0 139 82 139q23 0 38 -11.5t15 -37.5z" />
<glyph unicode="-" d="M667 324l-24 -78h-451l25 78h450z" />
<glyph unicode="." horiz-adv-x="540" d="M282 127q61 0 61 -49q0 -90 -82 -90q-49 0 -49 57q0 82 70 82z" />
<glyph unicode="/" horiz-adv-x="1241" d="M188 -12l1143 1442h74l-1147 -1442h-70z" />
<glyph unicode="0" horiz-adv-x="946" d="M208 246q0 196 184 450q195 271 381 271q82 0 115 -45q29 -37 29 -123q0 -203 -168 -494q-185 -317 -369 -317q-172 0 -172 258zM290 127q0 -115 90 -115q150 0 330 310q174 296 174 505q0 115 -111 115q-157 0 -327 -332q-156 -303 -156 -483z" />
<glyph unicode="1" horiz-adv-x="946" d="M274 0l389 598q125 190 180 291l-4 4q-213 -229 -426 -393l-90 -70q-54 -41 -66 -41q-8 0 -8 12q0 7 53 48q131 98 238 190q139 119 295 281q45 47 53 47q12 0 12 -21q0 -37 -252 -530q-110 -217 -219 -404q-76 0 -155 -12z" />
<glyph unicode="2" horiz-adv-x="946" d="M376 664q0 -95 90 -95q66 0 133 80q57 66 84 142q12 30 25 55q2 4 8 14q12 -8 12 -12q0 -103 -76 -205q-82 -106 -182 -106q-119 0 -119 118q0 125 115 222q111 90 238 90q221 0 221 -189q0 -182 -182 -297q-209 -100 -330 -170q-51 -28 -131 -90q-103 -78 -103 -102 l-4 -8l4 4q23 22 66 51q78 51 139 51q123 0 123 -119q0 -65 49 -65q64 0 201 168q14 18 45 49q8 -8 8 -12q-16 -29 -26.5 -43.5t-71.5 -83.5q-53 -60 -96 -88q-54 -35 -109 -35q-111 0 -121 102q-8 82 -47 82q-37 0 -98 -45q-51 -37 -82 -74l-39 -50q-21 -28 -27 -28 q-12 0 -12 17q0 20 29 74q61 112 254 243l262 178q80 56 141 150q68 104 68 190q0 115 -136 115q-114 0 -215 -80q-108 -86 -108 -198z" />
<glyph unicode="3" horiz-adv-x="946" d="M934 811q0 -137 -191 -229l-170 -78q193 -6 193 -168q0 -141 -136 -248q-127 -100 -270 -100q-217 0 -217 176q0 35 21.5 66.5t56.5 31.5q61 0 61 -57q0 -53 -65 -74q-29 -8 -29 -33q0 -86 143 -86q115 0 229.5 134.5t114.5 250.5q0 78 -90 78q-53 0 -151 -53 q-12 0 -12 16q0 8 30 23q78 37 133 71q258 164 258 316q0 94 -106 94q-96 0 -188 -65q-103 -72 -103 -164q0 -25 20.5 -41.5t41.5 -16.5q94 0 196 160q8 16 14 33q13 24 19 24q4 -12 4 -16v-12q0 -76 -68.5 -144.5t-144.5 -68.5q-106 0 -106 90q0 98 116 176q105 70 207 70 q80 0 134.5 -39t54.5 -117z" />
<glyph unicode="4" horiz-adv-x="946" d="M614 954l163 13l-180 -256l-184 -252q-88 -119 -197 -242l4 -4q43 20 107 20q49 0 84 -4q102 -12 121 -12l241 367q82 129 95 129q16 0 16 -13q-6 -14 -70 -137l-172 -342q49 0 94 23l45 26l37 25l9 -8q0 -33 -84 -64q-72 -26 -113 -26l-90 -197l-164 -8l135 201 q-33 0 -95.5 8t-92.5 8q-51 0 -103 -23q-16 -8 -49 -22q-8 0 -8 12q0 74 78 162q115 131 127 149q125 211 246 467z" />
<glyph unicode="5" horiz-adv-x="946" d="M610 848l-225 -356h4q94 94 196 94q92 0 146.5 -56.5t54.5 -148.5q0 -148 -144.5 -270.5t-293.5 -122.5q-82 0 -138 37q-63 45 -63 122q0 115 86 115q66 0 66 -53t-68 -68q-31 -6 -31 -43q0 -86 115 -86q147 0 264 158q109 145 109 297q0 43 -32 68.5t-75 25.5 q-61 0 -127 -43l-119 -96q-4 0 -16 12q14 29 76 125l215 354q24 41 37 41q114 -32 192 -32q86 0 176 45q9 -2 9 -9q0 -28 -76 -73q-103 -62 -223 -62q-60 0 -115 25z" />
<glyph unicode="6" horiz-adv-x="946" d="M274 106q0 -36 20.5 -65t56.5 -29q115 0 228 170q104 160 104 281q0 110 -78 110q-120 0 -231 -176q-100 -161 -100 -291zM773 410q0 -146 -123.5 -284t-269.5 -138q-86 0 -131 61.5t-45 175.5q0 246 242 498q235 244 442 244q176 0 176 -136q0 -32 -20.5 -63t-53.5 -31 q-61 0 -61 62q0 37 37 61q20 14 20 29q0 24 -26.5 38.5t-75.5 14.5q-143 0 -326 -207q-153 -176 -194 -305l4 -4q55 76 96 111q72 61 146 61q75 0 119 -56.5t44 -131.5z" />
<glyph unicode="7" horiz-adv-x="946" d="M515 987l45 8l-55 -81q-37 -54 -55 -83l4 -4l80 66q59 45 92 45q37 0 80 -29q98 -65 133 -65q63 0 106 39q19 16 37 57q12 27 33 27q12 -9 12 -17q0 -12 -53 -82l-66 -86l-153 -221q-94 -141 -148 -229q-61 -101 -190 -332h-78q-31 -2 -86 -12q133 207 362 491 q173 213 310 361l-4 4q-62 -33 -82 -41q-49 -21 -94 -21q-31 0 -103 41t-90 41q-49 0 -121 -92t-88 -92q-24 0 -24 25q0 26 40 67q3 2 66 59q51 64 90 156z" />
<glyph unicode="8" horiz-adv-x="946" d="M872 819q0 123 -140 123q-78 0 -133 -61.5t-55 -139.5q0 -86 86 -196q242 94 242 274zM724 307q0 -135 -103.5 -227t-240.5 -92q-86 0 -149.5 50t-63.5 134q0 109 125 207q92 70 223 121q-39 63 -51 100q-23 62 -23 113q0 108 93 184q88 70 198 70q185 0 185 -160 q0 -100 -93 -178q-61 -51 -182 -105q45 -82 55 -102q27 -55 27 -115zM622 250q0 121 -95 229q-290 -119 -290 -311q0 -80 43 -118t116 -38q99 0 162.5 69t63.5 169z" />
<glyph unicode="9" horiz-adv-x="946" d="M368 565q0 142 116.5 272t256.5 130q176 0 176 -217q0 -301 -228 -543q-206 -219 -411 -219t-205 168q0 73 70 73q61 0 61 -61q0 -27 -26.5 -55.5t-26.5 -38.5q0 -62 119 -62q170 0 338 207q143 176 178 346l-4 4q-125 -204 -254 -204q-80 0 -123 61q-37 55 -37 139z M761 942q-123 0 -221 -197q-82 -161 -82 -258q0 -98 86 -98q109 0 211 170q92 156 92 272q0 111 -86 111z" />
<glyph unicode=":" d="M282 127q61 0 61 -49q0 -90 -82 -90q-49 0 -49 57q0 82 70 82zM531 532q62 0 62 -49q0 -90 -82 -90q-49 0 -49 58q0 81 69 81z" />
<glyph unicode=";" d="M344 78q0 -90 -123 -190.5t-217 -100.5q-12 0 -12 8q0 6 20.5 11.5t40.5 13.5q146 55 156 168q0 139 82 139q23 0 38 -11.5t15 -37.5zM533 532q61 0 61 -49q0 -90 -82 -90q-49 0 -49 58q0 81 70 81z" />
<glyph unicode="&#x3c;" horiz-adv-x="970" d="M753 53v-61l-569 262v61l569 263v-62l-499 -229z" />
<glyph unicode="=" horiz-adv-x="970" d="M773 426v-61h-569v61h569zM773 205v-62h-569v62h569z" />
<glyph unicode="&#x3e;" horiz-adv-x="970" d="M258 -8v61l500 234l-500 229v62l569 -263v-61z" />
<glyph unicode="?" horiz-adv-x="946" d="M753 1004q82 0 129 -51.5t47 -133.5q0 -102 -64 -174q-22 -27 -243 -170q-107 -69 -166 -143l-105 -139q-8 0 -8 12q0 24 105 153q61 76 124 134q275 245 275 397q0 43 -31 66.5t-76 23.5q-71 0 -133 -43q-67 -47 -67 -117q34 -12 43 -20q18 -15 18 -45q0 -58 -61 -58 q-62 0 -62 78q0 94 92 164q86 66 183 66zM282 127q61 0 61 -49q0 -90 -82 -90q-49 0 -49 57q0 82 70 82z" />
<glyph unicode="@" horiz-adv-x="1937" d="M1274 860q0 135 -140 135q-131 0 -233 -149q-90 -135 -90 -273q0 -184 147 -184q86 0 182 121q115 145 134 350zM1302 967l21 82h90l-135 -525l-9 -57q0 -41 37 -71.5t78 -30.5q152 0 242 153q78 133 78 322q0 198 -162 360q-189 189 -469 189q-303 0 -483 -201 q-173 -193 -173 -500q0 -293 190.5 -470t485.5 -177q115 0 211 25q72 18 203 73l29 -33q-119 -53 -209 -79q-129 -39 -234 -39q-370 0 -596 239q-186 199 -186 453q0 326 218 538t544 212q282 0 477 -164q207 -174 207 -451q0 -180 -98 -328q-113 -168 -287 -168 q-60 0 -121 41q-68 46 -68 103l5 4q-117 -148 -250 -148q-201 0 -201 259q0 141 100 294q127 193 314 193q92 0 151 -98z" />
<glyph unicode="A" horiz-adv-x="3495" d="M2504 748q217 0 436 -48q-407 -397 -756 -591q-432 -242 -909 -265q-176 -8 -319 19q8 254 202 444q127 -43 291 -43q219 0 428 70q225 76 375 215q96 88 141 196q29 3 56 3h55zM1558 1343q563 0 774 -223q76 -80 76 -194q0 -74 -29 -144q-377 -16 -701.5 -130.5 t-515.5 -305.5q-268 80 -288 258q10 45 16 92q-16 13 -27 -34q-10 -39 -8 -62q17 -190 275 -285q-189 -206 -197 -452q-297 53 -469 207q-192 168 -192 432q0 243 194 446q178 185 479 291q293 104 611 104h2zM1187 340q186 176 504 283q305 104 669 120q-98 -190 -382 -311 q-277 -117 -576 -117q-102 0 -215 23v2zM4687 1978q-109 0 -252 -90q-110 -71 -209 -172q-221 -229 -409 -508q-158 -24 -295 -28q127 137 391 401q131 119 299 231q330 218 620 211q76 -2 127 -36q60 -39 60 -111q0 -94 -115 -203q-137 -131 -405 -262q-222 -108 -545 -180 l88 137l88 127q84 125 152 205q219 260 415 260q-18 0 62 -12q6 0 8 6q10 24 -78 24h-2zM2946 25q29 6 66 28q307 178 536 516q82 119 199 316l192 317q324 58 572 172q270 125 412 268q120 123 120 234q0 162 -211 168q-229 8 -497 -127q-410 -205 -922 -739 q-584 14 -805 274q-80 92 -80 221q0 174 146 281q129 94 309 96q117 2 213 -33q121 -43 164 -131q29 -59 22 -61q9 0 9 22q0 60 -74 125.5t-205 91.5q-63 13 -129 13q-143 0 -262 -56q-133 -61 -199 -174q-43 -73 -43 -168q0 -252 295 -391q246 -119 623 -129l-215 -215 l-209 -203q-217 45 -455 45h-57q-37 -2 -55 -2q22 72 22 142q0 237 -270 377q-246 124 -600 124q-500 0 -897 -260q-185 -120 -291 -284q-121 -183 -121 -383q0 -279 199 -457q176 -160 485 -213q2 -262 182 -434q156 -152 424 -217q174 -41 355 -47q432 -13 765 145 q320 154 314 344q-2 92 -82 160q-27 18 -31 10q-4 -4 19 -22q43 -45 45 -134q6 -186 -293 -337q-311 -156 -737 -144q-381 12 -641 178q-291 187 -299 494q77 -12 157 -16q74 -5 162 0q561 24 1008 268q354 192 761 600q289 -74 347 -139v2q-19 96 -316 174l117 116l211 216 l108 112q113 0 297 23q-108 -164 -166 -260l-182 -304q-231 -385 -469 -546q-26 -19 -84 -43q-28 0 -78 4q-59 6 -75 6q-93 4 -93 -25q0 -43 89 -43q77 0 151 19q27 0 83 -13.5t93 -13.5q178 0 309 105q62 49 113 100q14 14 14 20q0 2 -2 4.5t-4 2.5l-20 -16l-96 -79 q-101 -82 -267 -82q-110 0 -176 5v2z" />
<glyph unicode="B" horiz-adv-x="3575" d="M3450 864q-98 -28 -166 -20q-39 4 -57 8q-37 8 -53 25q-13 8 -11 22q4 25 52 35q20 4 43 4q120 0 192 -72v-2zM3170 55q-181 -141 -365 -141q-104 0 -113 66q-4 43 64 75q80 39 219 39q98 0 195 -37v-2zM245 346q0 -215 141 -364q125 -134 342 -197q-20 -365 164 -582 q178 -209 500 -229q366 -25 674 227q295 246 362 619q19 102 10 196q-8 93 -39 174q316 256 752 793q252 309 414 490q121 135 229 225q123 -115 123 -279q0 -94 -47 -186q-125 -246 -385 -354q-121 84 -234 82q-102 -5 -112 -60q-6 -35 39 -55q35 -17 100 -23q45 -4 94 0 t101 19q39 -43 45 -119q14 -158 -95 -371q-75 -147 -233 -278q-104 45 -225 45q-166 0 -262 -53q-88 -50 -78 -103q10 -55 114 -67q29 -2 60 -2q201 0 432 135q143 -80 164 -224q0 -6 4 -6q10 0 12 23q8 119 -160 219q232 143 322 330q49 102 55 209q4 108 -65 213 q-17 30 -51 61q225 70 360 211q125 131 133 287q4 153 -86 272q-45 55 -96 94q479 355 1036 355q244 0 440 -105q236 -125 226 -364q-8 -201 -197 -347q-196 -151 -500 -151q-135 0 -249 53q-140 66 -160 182q-19 107 55 199q68 88 176 117q64 18 64 12q0 8 -21 8 q-67 0 -144 -40t-126 -105q-53 -74 -53 -150q0 -100 63 -165q127 -134 395 -134q201 0 379 74q201 82 305 232q66 96 72 215q10 178 -119 301q-104 98 -293 149q-149 41 -311 41q-590 0 -1079 -346q-174 102 -447 111q-878 26 -1720 -619q-70 -53 -131 -108q-100 14 -172 14 q-446 0 -756.5 -230.5t-310.5 -568.5v-2zM1560 1122q82 72 254 191q393 274 745 401q381 135 772 123q199 -6 355 -70q45 -18 69 -34q-270 -195 -569 -531l-506 -596q-160 -184 -319 -332q-105 191 -373 256q29 72 24 162q-8 240 -274 367q-82 39 -178 61v2zM1261 166 q-228 -10 -381 82q194 436 625 819q317 -49 444 -233q41 -62 43 -144q2 -88 -29 -155q-43 4 -86 4q-176 0 -334 -76q-208 -101 -280 -295zM1146 -244q-217 0 -387 49q16 199 109 416q149 -96 383 -100q-7 -27 -9 -62q-2 -34 4 -67l7 -12q4 -9 8 -7q6 2 6 11q-2 8 -4 14 q-4 29 0 63q2 35 8 60q379 6 602 229q70 70 107 158q252 -66 350 -264q-277 -250 -535 -361q-297 -127 -647 -127h-2zM1148 -270q527 0 942 245q137 82 273 189q24 -76 30 -160q4 -84 -14 -180q-70 -359 -342 -600q-285 -252 -639 -228q-309 21 -483 230q-160 190 -160 485 q0 33 2 68q184 -49 389 -49h2zM1285 172q64 168 265 270q143 74 325 74q41 0 78 -4q-72 -145 -254 -237.5t-412 -104.5zM270 350q0 312 315 527q307 206 723 206q76 0 119 -6q-402 -372 -580 -809q-86 66 -117 150q-18 51 -16 51q-8 -4 -6 -20q2 -66 53 -130q31 -43 76 -77 q-88 -224 -105 -428q-329 100 -428 344q-34 86 -34 190v2z" />
<glyph unicode="C" horiz-adv-x="1859" d="M298 248q0 -256 174 -381q146 -107 387 -107q185 0 380.5 87t334.5 233q197 205 211 420q21 323 -303 323q-123 0 -247 -59t-204 -156q-149 -180 -116 -360q28 -156 188 -156q64 0 125 36t47 50q2 -2 -33 -22q-69 -41 -143 -41q-137 0 -160 139q-24 152 121 326 q76 92 189 153q122 68 233 68q129 0 199 -78q57 -66 51 -178q-12 -203 -227 -436q-130 -142 -293 -228q-183 -94 -357 -94q-219 0 -334.5 121t-115.5 334q0 194 110 434q92 203 260 416q99 -19 207 -19q267 0 506 76q201 61 346 166q49 -78 185 -98q38 -7 75 -7 q246 0 462 159t224 355q7 152 -129 230q-106 59 -270 63q-356 8 -793 -188q-421 -193 -749 -504q-72 -68 -145 -156q-388 123 -365 461q12 193 176 332q170 147 426 147q131 0 246 -47q147 -59 170 -168q2 -10 8 -10q6 2 6 17q-2 14 -6 20q-20 86 -139 152.5t-283 66.5 q-272 0 -448 -158q-166 -147 -183 -354q-14 -176 90 -313q97 -125 269 -187q-363 -473 -363 -878v-2zM988 1128q-88 0 -174 13q158 192 422 401q570 455 1145 455q234 0 324 -125q32 -47 32 -119q0 -164 -235.5 -330t-468.5 -166q-131 0 -178 72q135 105 139 182 q2 48 -39 48q-43 0 -92 -49.5t-49 -114.5q0 -35 8 -54q-137 -88 -344 -145q-240 -68 -488 -68h-2zM1951 1538q27 0 23 -35q-9 -63 -127 -149q-9 20 -9 49q0 43 35 89t76 46h2z" />
<glyph unicode="D" horiz-adv-x="3303" d="M1324 -45q-274 -45 -782 -45h-199q-178 0 -246 12q-34 6 -34 17q0 24 104 45q148 30 432 30q260 0 725 -57v-2zM1480 -35q706 180 1196 742l373 426q180 204 368 370q64 -168 64 -356q0 -260 -162 -526q-170 -281 -454.5 -459t-612.5 -217q-117 -13 -246 -13 q-219 0 -526 31v2zM2016 -98q641 0 975 213q283 180 422 460q133 269 119 570q-10 209 -90 381q483 420 1016 420q227 0 370.5 -106.5t143.5 -289.5q0 -215 -195 -364q-186 -144 -436 -144q-123 0 -209 45q-104 56 -104 168q0 136 114 226q21 16 19 20t-6 4q-9 0 -27 -14 q-123 -88 -123 -236q0 -131 113 -202q96 -64 233 -64q275 0 459 162t184 399q0 297 -317 389q-98 29 -219 29q-521 0 -1047 -387q-137 244 -418.5 382t-621.5 138q-565 0 -994 -299q-436 -305 -466 -741q-21 -289 165 -445q164 -139 426 -139q242 0 471.5 142.5t325.5 361.5 q37 84 41 166q10 178 -84 293q-104 123 -295 123q-198 0 -356 -136q-164 -141 -170 -335q0 -17 2 -35q6 -25 16 -23q8 2 4 13q-6 8 -4 45q13 180 163.5 311t344.5 131q158 0 248 -100q80 -93 80 -217q0 -259 -267.5 -474t-588.5 -215q-217 0 -357 127q-159 144 -143 410 q19 270 231 506q193 213 527 346q319 127 682 127q555 0 852 -264q100 -92 164 -215q-346 -260 -824 -803q-325 -371 -575 -545t-576 -244q-192 23 -579 58q-109 6 -232 6q-200 0 -346 -17q-223 -24 -223 -81q0 -41 143 -60q133 -16 363 -16q493 0 864 84q356 -45 610 -45h2 z" />
<glyph unicode="E" horiz-adv-x="1785" d="M1379 793q-206 0 -378 -131q-179 -134 -179 -297q0 -78 50.5 -128.5t128.5 -52.5q32 -2 78.5 12.5t64.5 36.5q6 9 2 13q-2 0 -25 -15q-63 -28 -112 -24q-133 10 -133 139q0 137 94 248q86 98 225 145q88 31 178 31q158 0 240 -100q37 -45 49 -105q12 -57 -2 -121 q-53 -239 -283 -428q-243 -200 -516 -209q-241 -8 -358 140q-57 69 -76 170q-47 260 119 534q154 254 399 396q103 57 187 81q71 -124 264 -139q53 -4 96 10q57 21 62 66q10 84 -131 109q-44 6 -93 6q-55 0 -123 -13q-6 27 -8 66q-2 29 2 65q9 80 35 146q162 -29 332 -29 q115 0 203 19q28 -95 134.5 -143t248.5 -38q137 9 237 76q115 78 137 203q31 172 -122 276q-162 109 -449 103q-381 -8 -651 -236q-88 -73 -142 -166q-251 74 -391 183q-239 182 -239 415q0 142 86 252q84 105 221 150q92 31 199 31q210 0 364 -117q176 -135 176 -297 q0 -10 6 -10q11 0 11 32q0 172 -179 301q-163 119 -374 119q-164 0 -297 -74q-142 -77 -207 -217q-41 -90 -41 -194q0 -205 168 -371q143 -141 360 -213q58 -20 115 -37q-31 -65 -41 -159q-8 -78 20 -154q-221 -59 -415 -201q-238 -172 -353 -413q-41 -89 -57 -181 q-47 -280 125 -436q158 -145 434 -137q223 6 428 106.5t336 274.5q82 108 107 229q18 90 0 166q-29 117 -129 178q-91 58 -215 58h-3zM1257 1489q94 174 291.5 283.5t410.5 115.5q281 6 432 -94q144 -98 117 -256q-14 -90 -115.5 -161.5t-236.5 -80.5q-117 -8 -209 19 q-125 35 -154 123q236 49 252 149q6 37 -18.5 58.5t-61.5 21.5q-74 0 -133 -55q-67 -66 -63 -154q-80 -12 -127 -12q-205 0 -385 41v2zM1961 1649q74 0 62 -62q-9 -43 -101 -84q-63 -26 -131 -41q-2 56 29 105t82 69q30 13 57 13h2zM1330 1159q142 0 189 -51q14 -18 10 -43 q-10 -66 -127 -55q-156 14 -188 137q61 12 114 12h2z" />
<glyph unicode="F" horiz-adv-x="2865" d="M2184 801q0 -66 -24 -127q-15 2 -47.5 5t-65.5 3q-168 0 -331 -67.5t-275 -188.5q-76 -82 -115 -172h-39q-332 0 -438 170q186 395 651 772q457 -22 625 -225q59 -72 59 -168v-2zM1177 -227q-279 0 -486 80q25 288 146 546q63 -92 200 -141q129 -49 271 -49 q-19 -59 -19 -119q0 -33 6 -67q13 -25 17 -23q6 4 4 14q-2 9 -2 15q-10 45 -4 90q4 43 20 90q201 0 385 63q201 70 336 199q84 82 125 180q229 -41 369 -231q-617 -647 -1366 -647h-2zM689 -233q0 26 2 55q213 -80 490 -80q430 0 794 166q328 149 621 430q55 -107 74 -236 q18 -131 -11 -280q-59 -318 -265 -562.5t-505 -349.5q-161 -55 -329 -55q-232 0 -418 84q-227 107 -344 318q-109 194 -109 454v56zM1353 256q86 178 293 297q217 123 465 104q26 -2 40 -2q-79 -166 -310.5 -277.5t-487.5 -123.5v2zM276 422q0 319 360 553q342 223 780 223 h37q-436 -358 -620 -743q-11 24 -21 59q-2 25 -10 53q-10 0 -10 -20q-4 -68 26 -117q-123 -262 -151 -567q-391 162 -391 557v2zM3348 838q-43 -66 -105 -152q-6 -6 -10 -12q-6 -6 4 -8q12 -2 20 10q66 65 213 188q41 33 64 70q20 35 -8 53q-17 12 -39 2q-39 -18 -88 -78 q-21 -26 -35 -45q-57 -43 -152 -47q-37 -2 -94 2q-78 8 -94 8q115 166 360 486q277 330 543 444q100 43 211 53q49 5 59 5h50q4 0 4 4q4 12 -41 16q-31 2 -62 0q-241 -12 -501 -188q-310 -209 -613 -611q-84 -110 -149 -204q-232 0 -351 -103q-16 -14 -16 -22q0 -4 4 -7 q4 -4 25 15q76 59 200 65q43 2 101 0q-105 -147 -271 -336q-149 183 -393 224q23 63 23 129q0 188 -189 317q-174 115 -442 146q487 331 1061 481q655 172 1444 129q233 -12 426 -70q209 -61 272 -174q21 -37 19 -37q4 2 4 15q0 75 -76 145q-125 113 -391 170 q-136 29 -299 37q-774 39 -1416 -150q-325 -96 -593 -237q-275 -146 -496 -305q-53 4 -102 4q-455 0 -807 -244q-369 -254 -369 -610q0 -420 412 -586q-4 -70 -4 -127q0 -373 208 -604q242 -268 687 -268q401 0 729 260q358 284 436 723q29 161 4 303q-25 141 -92 254 q174 170 354 407q207 0 295 29q41 12 66 33v-2z" />
<glyph unicode="G" horiz-adv-x="1701" d="M416 252q0 244 186 559q217 -88 480 -88q282 0 579 90q289 88 535 248q315 203 446 440q64 117 64 228q0 253 -346 264q-127 4 -252 -21q-150 285 -645 285q-494 0 -863 -258q-342 -240 -387 -576q-22 -166 52.5 -318.5t220.5 -236.5q-207 -348 -185 -610 q15 -180 148 -272q114 -80 299 -80q213 0 413 131v-2q-493 -551 -847 -1098q-226 -342 -334 -567q-76 -156 -76 -232q0 -71 59 -88q52 -14 118.5 67t133.5 173l82 111l570 782q272 356 458 573l133 156q115 131 203 215q74 70 70 78q-6 6 -23 -10q-92 -76 -266 -269 q-137 -149 -354 -415q-299 -365 -502 -656l-313 -444l-150 -205q-98 -127 -129 -125q-16 2 -20 21q-2 18 8 47q53 151 211 419q104 177 323 494l97 137q348 473 706 897q297 199 422 346q39 45 33 68q-8 22 -35 22q-37 0 -102 -38q-76 -45 -252 -220q-82 -79 -193 -200 q-246 -146 -444 -146q-332 0 -332 322v2zM504 893q-178 121 -211 364q-10 74 2 162q43 326 352 557q338 254 818 254q469 0 620 -264q-543 -111 -995 -444q-367 -273 -584 -629h-2zM1082 743q-265 0 -465 88q127 213 325 412q371 367 807 574q168 77 346 120q29 -82 21 -163 q-25 -246 -264 -441q-189 -151 -424 -198q-64 -13 -107 -13q-16 0 -47 4t-47 4q-4 0 -6 -2q-12 -24 100 -24q205 0 414 96q168 78 282.5 233.5t124.5 335.5q5 91 -26 175q137 28 239 26q299 -8 299 -248q0 -215 -237 -448q-229 -225 -586 -373q-375 -158 -747 -158h-2z M1358 141l238 267q90 100 137 100q10 0 18 -10q8 -13 -24 -47q-111 -125 -369 -312v2z" />
<glyph unicode="H" horiz-adv-x="4136" d="M1451 207q336 0 561.5 129t237.5 346q12 221 -259 346t-695 82q-447 -45 -748 -260q-311 -223 -311 -508q0 -252 184 -412q154 -133 432 -190q228 -45 494 -37q428 14 821 135q150 47 303 119q154 -242 510 -242q111 0 183 45q18 15 12 21q-4 0 -19 -10q-65 -37 -170 -37 q-245 0 -395 139q-49 47 -80 107q260 122 523 327q155 121 305 266q141 138 223 238q190 -14 328 -84q96 -49 133 -104q4 10 4 20q0 57 -86 107q-123 69 -361 81q99 115 201 250l205 271q133 178 186 243q107 136 199 234q90 47 137 88q23 18 21 35q-4 14 -21 14 q-22 0 -103 -56.5t-126 -101.5q-56 -32 -377 -247l-195 -129q-342 -226 -667 -326q-275 -84 -502 -84q-182 0 -254 98q-25 33 -25 80q0 21 -6 19q-8 0 -8 -23q-2 -115 90 -176q82 -55 201 -55q237 0 516 98q354 123 850 469l330 229v-2q-148 -137 -375 -418l-414 -507 q-387 -9 -675.5 -171.5t-346.5 -404.5q-16 -68 -10 -129t29 -115q-523 -264 -1094 -284q-393 -15 -659 102q-355 154 -355 502q0 276 271.5 493t689.5 260q393 41 647 -79q244 -119 238 -330q-7 -184 -209 -309q-209 -129 -519 -129q-157 0 -280 39q-178 55 -199 174 q-8 49 0 67q8 17 4 19q-26 -58 -20 -95q14 -98 141 -165q135 -72 352 -72h2zM3426 809q-314 -363 -697 -621q-127 -86 -243 -147q-13 47 -13 98q-2 56 11 109q53 231 323 393q260 158 619 170v-2zM3532 55q209 76 447 336q202 223 450 613q371 579 723 858q293 229 533 229 q211 0 258 -145q22 -68 -13 -156q-28 -78 -84 -129q-139 -135 -346 -176q-92 -21 -168 -17q-116 7 -178 39l-22 19q-21 18 -23 16q-4 0 -4 -4q0 -16 43 -45q64 -41 184 -47q189 -8 377 78q234 104 283 291q20 77 2 133q-57 159 -311 159q-314 0 -654 -268 q-358 -283 -774 -891q-125 -190 -391 -557q-213 -272 -371 -344q-53 -16 -133 -57q-8 -6 -6 -17q4 -14 21 -12q14 2 20 4q41 19 76 43q121 66 244 66q106 0 98 -60q-6 -41 -55 -82q65 0 135 45q121 80 245 193q7 8 7 12t-3.5 6t-7.5 0l-110 -88q-56 -41 -109 -67 q-4 69 -100 78q-103 8 -283 -58v2z" />
<glyph unicode="I" horiz-adv-x="3307" d="M2479 1020q-90 0 -166 33q-96 41 -112 114q274 -24 413 -141q-41 -6 -133 -6h-2zM1140 -119q180 0 264 6q586 43 985 299q393 250 393 582q0 123 -71 213q352 63 764 311q157 94 387 250l381 258q172 113 339 203q46 25 72 37v-2q-233 -131 -530 -463 q-133 -148 -305 -367l-189 -241l-239 -310q-453 -581 -1092 -798q-223 -76 -471 -90q-422 -25 -688 110v2zM1009 -90q-357 27 -539 168q-147 110 -147 252q0 153 125 254q102 86 266 118q108 21 217 23q-146 -174 -146 -393q0 -264 224 -420v-2zM2479 963q109 0 180 10 q72 -84 72 -203q0 -332 -393 -580q-438 -276 -1084 -286q-77 0 -147 4q-236 149 -236 424q0 137 46 239q34 80 94 152q203 -10 315 -80q51 -31 82 -78q21 -33 23 -33q18 9 -23 60t-72 70q-116 73 -313 81q160 189 430 303.5t520 127.5q49 2 109 2q51 -2 98 -7 q12 -106 105 -159q79 -47 192 -47h2zM253 330q0 -164 170 -283q205 -147 614 -166q142 -86 349 -119q100 -16 210 -22q107 -4 226 4q571 39 985 276q436 250 842 787l630 827q129 156 250 273q78 75 134.5 109t158.5 69q78 26 78 61q0 6 -4 12.5t-12 6.5q-29 0 -70 -19 q-88 -39 -135 -75q-195 -89 -432 -240q-78 -49 -410 -275q-197 -135 -383 -239q-287 -160 -575 -242q-111 -31 -209 -43q-156 137 -471 162q0 72 36 131q17 21 15 23q-8 8 -29 -25q-18 -25 -26 -41q-15 -33 -17 -86q-125 2 -205 0q-258 -8 -551 -131q-311 -129 -475 -320 q-266 0 -465 -98q-229 -115 -229 -315v-2z" />
<glyph unicode="J" horiz-adv-x="4085" d="M2324 -209q264 0 498 154q251 168 251 395q0 211 -200 334q-217 133 -606 112q-242 -12 -484 -104q-258 -100 -420 -258q-204 -205 -204 -465q0 -283 256 -448q-152 -37 -345 -43q-348 -13 -561 114q-202 121 -202 332q0 117 53 203q112 186 321 217q31 0 31 6t-39 6 q-137 -14 -262 -108q-149 -115 -168 -265q-4 -32 -4 -63q0 -217 223 -342q232 -131 600 -123q205 4 379 47q246 -147 666 -147q608 0 1149 350q424 276 866 823q201 39 383 166q192 133 268 305q45 101 31 193q-16 90 -82 147q270 352 504 502q153 98 330 151l88 21 q22 4 26 18q8 27 -63 43q-64 13 -185 13q-192 0 -446 -58q-283 -63 -494 -168q-407 -200 -636 -454q-238 -260 -238 -510q0 -115 59.5 -205t163.5 -131q68 -29 148 -37q-389 -489 -815 -782q-531 -361 -1051 -361q-387 0 -614 137q419 111 614 330q86 -47 209 -47h2z M2328 -188q-117 0 -203 47q74 92 82 188q4 41 0 66q-14 106 -104 100q-49 -4 -83 -48t-38 -97q-12 -134 106 -218q-192 -219 -616 -323q-234 156 -234 432q0 205 115 365q191 266 561 381q174 53 348 61q369 18 570 -113q182 -121 182 -317q0 -221 -227 -381 q-211 -143 -457 -143h-2zM2107 -129q-107 78 -99 188q9 119 97 127q45 4 65 -49q17 -43 13 -90q-7 -84 -74 -176h-2zM3669 868q0 236 226.5 505t605.5 456q328 160 735 215q117 14 203 14q121 0 186 -20q19 -6 19 -13q0 5 -95 -22q-327 -90 -632 -367q-127 -114 -260 -266 q-52 29 -142 29q-135 0 -219 -60q-57 -39 -41 -55q2 0 21.5 17.5t27.5 23.5q88 55 203 55q80 0 133 -28q-92 -105 -360 -453l-133 -172l-152 -192q-154 12 -240 96t-86 235v2zM4702 1303q49 -56 53 -136q4 -147 -131 -317q-189 -238 -482 -309l105 133l229 311l224 318h2z " />
<glyph unicode="K" horiz-adv-x="4347" d="M3563 -27q170 301 436 478q110 73 203 67q49 -2 73.5 -35.5t16.5 -83.5q-23 -153 -217 -295q-203 -149 -402 -149q-73 0 -110 16v2zM3618 907q-37 -10 -96 -10q-109 0 -103 43q2 16 37 21q37 4 66 0q61 -11 96 -52v-2zM3663 -74q213 0 430 164q211 158 232 311 q16 123 -121 131q-195 13 -449 -243q-127 -129 -221 -305q-94 51 -74 194q15 101 137 289q56 84 74 119q37 69 49 131q19 102 -43 180q146 45 295.5 187.5t390.5 445.5q97 129 304 379q186 200 346 200q188 0 219 -141q10 -24 8 -24q10 0 10 30q-12 107 -149 148 q-41 10 -84 10q-185 0 -385 -172q-146 -123 -357 -387q-120 -158 -372 -463q-133 -149 -242 -190q-53 47 -137 63q-39 8 -76 0q-47 -8 -53 -41q-8 -47 80 -61q22 -4 43 -4q67 0 114 10q13 -23 19 -56q4 -30 -13 -69q-22 -57 -155 -250q-113 -164 -129 -287 q-27 -198 166 -272q-78 -158 -84 -283q0 -14 10 -24q8 2 8 10v14q12 125 94 273q56 -17 113 -17h2zM1560 1364q501 -14 731 -209q78 -68 102 -158h-45q-303 0 -506 88q-237 101 -284 277zM2430 1993q291 0 492.5 -102.5t201.5 -266.5v-16q0 -6 7 -9q12 -4 12 25 q0 178 -201 299q-209 125 -512 125q-430 0 -676 -190q-223 -170 -227 -412h-29q-495 0 -876 -275q-246 -174 -330 -417q-43 -123 -33 -256q21 -265 223 -441q177 -153 453 -215q178 -39 352 -39q447 0 807 142q355 137 688 436q240 215 492 539q84 108 229 321l236 346 q59 88 86 123q53 72 100 115q74 33 82 37q47 22 74 49q10 10 8 20q-2 11 -14 11q-41 0 -105 -48q-35 -24 -100 -84q-55 -18 -127 -81q-51 -41 -236 -209q-143 -131 -241 -199q-412 -283 -844 -322q-47 201 -305 324q-244 115 -570 123q0 225 207 377q234 170 674 170h2z M3839 1774q-203 -197 -534 -627l-177 -227q-454 -580 -884 -834t-961 -254q-375 0 -653 156q-330 186 -354 514q-19 241 157 448q162 191 453 303q285 111 600 111h45q43 -195 283 -315q219 -111 528 -107q16 2 31 2h26q2 -6 2 -22q0 -170 -149 -314q-141 -133 -372.5 -213 t-473.5 -80q-340 0 -477 148q-53 57 -55 139q-2 33 4 49q4 11 -2 11q-11 2 -17 -27q-4 -21 -4 -37q2 -168 203 -258q166 -78 391 -78q260 0 496 96q264 107 399 301q84 121 84 267v22q387 41 844 350q69 48 246 203l237 215q6 4 19 17l24 18q29 21 41 25v-2z" />
<glyph unicode="L" horiz-adv-x="3104" d="M788 -137q520 0 964 196l179 -69q297 -113 501 -121q226 -8 445 121q86 53 147 106l90 78q27 25 19 29q-4 4 -31 -17q-100 -75 -117 -86q-63 -45 -129 -71q-196 -86 -438 -74q-246 12 -606 137q502 240 987 791q94 -17 180 -17q303 0 541 156q69 45 108 94 q78 -53 232 -53q157 0 313 55q244 86 416 250q190 182 190 383q0 223 -247 295q-76 20 -164 20q-346 0 -686 -192q-74 84 -213 133q-125 41 -267 41q-362 0 -627.5 -196.5t-265.5 -460.5q0 -263 230 -406q69 -45 149 -74q-485 -565 -932 -798l-221 75q-409 136 -753 150 q-230 10 -371 -37q-148 -49 -172 -139q-39 -146 139 -228q156 -71 408 -71h2zM2996 926q-82 0 -160 8q112 129 237 289q11 -2 19 -2h20q172 0 330 69q172 76 260 209q55 82 55 176q0 88 -47 162q326 207 660 207q270 0 358 -170q29 -55 29 -127q0 -191 -195 -358 q-227 -199 -567 -271q-78 -16 -145 -20q-136 -8 -209 35q30 49 30 92q0 61 -47 61q-57 0 -51 -86q4 -43 39 -72q-78 -86 -244 -141q-178 -61 -370 -61h-2zM3737 1675q0 -174 -189.5 -300t-431.5 -126h-22q311 383 596 574q47 -60 47 -146v-2zM3651 1221q0 -41 -25 -74 q-30 27 -32 59q-11 66 32 66q25 0 25 -49v-2zM3202 2001q213 0 365 -72q53 -26 92 -63q-346 -205 -684 -598q-219 41 -219 196q0 43 29 78q20 27 22 25q-2 4 -14 0q-27 -8 -47 -51q-11 -23 -11 -54q0 -164 222 -219l-236 -282q-391 108 -391 430q0 260 258 438 q252 172 612 172h2zM786 -111q-219 0 -369 70q-176 84 -141 207q28 100 219 137q123 23 278 16q388 -16 930 -233q-413 -197 -915 -197h-2z" />
<glyph unicode="M" horiz-adv-x="4431" d="M258 446q0 -272 195 -442q167 -149 448 -199q184 -32 387 -26q580 16 1170 442q305 219 639 545l282 278l500 472q45 -11 137 -25l-221 -209q-252 -240 -494 -520q-264 -309 -452 -590q-90 -137 -133 -225q-25 -51 -29 -86q-8 -54 25 -68q10 -6 22 -6q39 0 94 61l821 879 q402 414 734 688q47 -8 143 -29q-344 -294 -565 -549t-316 -466q-49 -111 -57 -207q-10 -123 54.5 -194.5t187.5 -71.5q231 0 420 186q139 137 151 297q10 160 -125 180q-147 23 -289 -129q-122 -133 -116 -268q2 -33 12 -23q6 2 6 11v14q-4 119 117 244q143 147 268 131 q92 -13 92 -113q0 -78 -59 -184q-86 -152 -268 -267q-93 -57 -207 -57q-70 0 -117 43t-55 113q-15 108 71 274q97 189 310 428q278 316 612 582q375 -66 604 -72q232 -6 445 55q260 74 381 224q75 94 63 217q-10 98 -100 158q-76 51 -183 59q-47 119 -225 119 q-125 0 -317 -78q-174 -72 -394 -207q-292 -180 -555 -391l-223 43l203 201q133 139 178 215q12 20 17 47q4 35 -31 45q-29 10 -64 0q-43 -17 -88 -45q-172 -113 -499 -406q-803 162 -1264 189q-375 20 -653 -66q-299 -94 -418 -281q-559 -28 -942 -331q-330 -260 -330 -606 v-3zM278 451q0 309 330 550q338 250 828 302q28 2 63 4q-43 -97 -31 -222q13 -127 97 -219q79 -84 206 -118q80 -25 150 -23q4 0 52 16.5t46 18.5t-4 2q-10 0 -40.5 -9.5t-51.5 -9.5q-162 0 -287 91q-135 98 -145 251q-8 125 41 226q65 4 129 4q297 0 487 -78 q279 -117 279 -373q0 -166 -160 -313q-145 -137 -385 -219t-479 -82q-330 0 -467 147q-51 56 -64 142q-4 32 2.5 55.5t6.5 30.5q0 4 -2 6q-11 6 -20 -30t-7 -66q10 -158 194 -252q166 -86 379 -86q377 0 693 190q329 199 329 479q0 252 -262 396q-241 131 -614 127 q127 153 413 231q265 70 625 57q369 -12 928 -98q158 -25 307 -53l-756 -723q-438 -432 -802 -647q-476 -281 -971 -303q-439 -19 -713 112q-324 156 -324 484v2zM4037 1509q-45 11 -136 27l238 211q145 121 254 190q29 19 88 43q14 2 21.5 -4t7.5 -14l-29 -41 q-43 -49 -174 -168l-268 -244h-2zM4131 1464l217 -43q-248 -200 -486 -434q-190 -186 -569 -592q-285 -301 -479 -526q-59 -68 -82 -57q-10 4 -2 24q18 62 119 201q227 315 637 772q231 258 643 655h2zM5628 2085q170 0 213 -82q-449 0 -955 -338q-163 -111 -335 -250 q-19 2 -142 23q250 202 531 374q442 273 686 273h2zM5818 1978q113 0 193 -45q96 -51 106 -153q21 -219 -256 -342q-256 -113 -575 -103q-303 11 -606 58q364 301 600 432q278 153 536 153h2z" />
<glyph unicode="N" horiz-adv-x="3764" d="M3692 1249q-16 -106 -41 -305l-20 -174q-29 -278 -63 -430q-117 -168 -195 -336q-29 -61 -35 -92q-8 -29 4 -35q19 -8 70 30t90 97q84 133 162 408q311 415 688 770q280 266 666 530q403 277 827 371q223 49 491 49q478 0 684 -213q78 -80 84 -201q15 -282 -301 -475 q-295 -178 -702 -178q-383 0 -526 168q-50 57 -54 135q-6 102 62 188q59 78 159 121q64 25 136 31q41 -6 82 -8q0 29 -82 24q-154 -8 -267 -106q-122 -107 -114 -254q8 -164 166 -262q151 -96 393 -96q287 0 547 102q299 117 442 328q90 131 82 288q-10 199 -162 328 q-131 113 -340 154q-131 24 -256 24q-653 0 -1341 -481q-674 -473 -1145 -1028q-111 -129 -203 -252l-2 2q57 211 84 461q29 274 43 461q123 237 262 393q105 18 289 67q39 17 33 50q-6 28 -49 36q-103 17 -199 -53q-53 -37 -100 -90q-172 -41 -244 -162q-66 -108 -98 -336 q-387 -538 -908 -952q-710 -565 -1521 -565q-389 0 -662 141q-325 170 -325 500q0 383 383 631q229 149 544 207q152 26 307 26q342 0 582 -104q277 -123 277 -338q0 -252 -320 -436q-299 -172 -680 -172q-325 0 -467 151q-55 57 -65 137q8 43 12 88q-18 9 -27 -37 q-8 -36 -6 -57q17 -160 213 -254q170 -82 385 -82q377 0 668 187q307 196 307 475q0 239 -268 389q-248 135 -598 135q-496 0 -877 -270q-178 -127 -280 -295q-113 -182 -113 -385q0 -266 197 -447q170 -153 448 -217q180 -39 361 -39q624 0 1206 367q422 264 815 682 q217 231 403 487zM3557 285q-24 -88 -92 -254q-47 -86 -84 -119q-16 -14 -22 -10q-9 6 34 96q78 158 162 287h2zM3807 1436l8 100q2 41 11 68q41 131 200 170h2q-125 -144 -219 -338h-2zM4084 1808q94 86 174 103q47 10 80 6q30 -4 32 -21q4 -22 -41 -36q-82 -17 -245 -54v2 z" />
<glyph unicode="O" horiz-adv-x="2895" d="M1394 260q14 172 119 395q90 201 213 361q264 348 587 600q238 184 439 239q104 27 194 9q131 -27 172 -144q17 -51 15 -108q-3 -53 -17 -107q-74 -264 -317 -532q-256 -281 -606 -465q-383 -205 -801 -248h2zM765 315q-260 86 -391 256q-141 183 -94 410q49 242 274 378 t555 132q195 -2 330 -78q-264 -264 -453 -598q-151 -268 -219 -500h-2zM802 262q192 -57 399 -57q56 0 113 4q37 -303 364 -342q218 -27 474 76q-7 -25 -7 -31q-82 -301 -315 -504q-227 -192 -506 -192q-53 0 -106 6q-244 30 -367 217q-111 164 -113 418q-2 184 62 405h2z M753 276q-66 -227 -62 -415q6 -381 246 -555q115 -84 279 -105q57 -6 112 -6q293 0 532.5 206t317.5 507q2 16 10 51q246 107 490 309q418 350 631 768q166 326 153 609q-10 233 -155 360q-140 121 -371 129q-318 10 -711 -170q-413 -186 -762 -528q-145 94 -356 96 q-348 4 -574.5 -143.5t-277.5 -405.5q-47 -242 92.5 -430t403.5 -277h2zM812 301q78 244 223 504q177 311 441 586q71 -54 100 -117q4 -10 8 -10q4 2 4 14q-2 10 -2 16q-14 72 -88 121q338 338 738 529q380 180 698 167q317 -12 428 -227q49 -100 47 -231q-4 -267 -174 -582 q-207 -383 -598 -741q-227 -207 -444 -322q6 117 -35 195q-8 12 -19 6q-2 -2 4 -19q9 -22 11 -32q12 -41 14 -80q0 -41 -6 -86q-266 -131 -481 -105q-291 37 -291 330q630 64 1155 481q313 250 479 537q82 137 117 270q14 54 16 111q2 225 -205 270q-178 39 -436 -78 q-233 -106 -481 -313q-344 -285 -535 -623q-125 -219 -170 -423q-22 -105 -18 -197q-270 -12 -498 49h-2z" />
<glyph unicode="P" horiz-adv-x="2566" d="M1763 524q12 0 21 -2q-187 -182 -375 -182q-82 0 -78 43q4 55 147 102q127 39 263 39h22zM3018 879q-79 0 -141 20l293 367q168 207 311 348q121 119 250 217q62 -66 78 -154q35 -182 -121 -411q-117 -172 -289 -277q-182 -110 -378 -110h-3zM1054 -231q621 0 1141 417 q10 -49 12 -100q0 -57 -8 -113q-51 -342 -354 -600t-649 -245q-314 12 -477 215q-134 165 -134 421q0 48 5 95q200 -90 462 -90h2zM1403 1272q-347 -289 -560 -627q-235 -375 -282 -735q-242 145 -242 405q0 52 8 107q52 321 385 579q322 248 691 273v-2zM1059 -209 q-271 0 -467 103q45 356 295 729q229 344 612 649q147 -2 264 -60q135 -63 186 -184q23 -53 23 -113q0 -114 -66 -229q-47 -80 -112 -145h-60q-262 0 -397 -97q-43 -30 -45 -67q-2 -45 72 -53q18 -2 37 -2q90 0 207.5 53t215.5 143q242 -33 343 -246q-386 -352 -789 -446 q-149 -35 -317 -35h-2zM1517 1294l164 119q393 275 791 420q426 156 790 147q273 -6 438 -118q-348 -240 -731 -676q-102 -117 -194 -236q-115 84 -92 234q16 106 102 188q53 49 82 60q18 6 14 10q-12 12 -67 -23q-39 -22 -90.5 -84.5t-65.5 -152.5q-25 -156 102 -250 q-323 -406 -557 -625q-112 189 -364 228q158 149 186 325q23 148 -71 258q-82 94 -232 142q-98 28 -205 32v2zM3012 856q215 0 426 100.5t340 268.5q92 121 117 243q37 183 -61 316q-35 45 -70 71q387 291 805 291q237 0 379 -108q153 -117 123 -307q-33 -213 -250 -365 q-203 -143 -447 -149q-43 8 -88 12q-2 -2 -2 -4q0 -27 90 -27q256 0 477 145q238 158 273 381q24 156 -76 271q-88 100 -248 145q-106 29 -225 29q-408 0 -846 -287q-184 117 -467 121q-381 6 -818 -142.5t-818 -412.5q-101 -70 -203 -152q-246 -12 -510 -135 q-403 -188 -575 -504q-113 -208 -76 -411q41 -242 297 -373q-6 -53 -6 -104q0 -269 141 -441q172 -211 498 -223q372 -12 691.5 247t377.5 625q10 64 6 132q-6 65 -23 114q271 232 619 656q74 -23 147 -23h2z" />
<glyph unicode="Q" horiz-adv-x="2527" d="M1139 -125q-317 0 -377 242q-12 53 -12 116q0 175 98 416q121 295 310 527q467 577 1022 768q200 69 415 69q228 0 353 -94q135 -102 129 -285q-7 -215 -191 -358q8 74 8 141q0 131 -63.5 218t-186.5 102q-223 26 -495 -117q-217 -115 -403.5 -295t-301.5 -389 q-94 -176 -100 -309q-8 -199 162 -230q123 -22 293 74q98 55 235 174q170 148 301 379l51 100q17 29 31 29q17 -2 19 -23q8 -75 -60 -233q-74 -174 -227 -371q-260 -336 -596 -522q-232 -129 -412 -129h-2zM7 -377q0 51 110 70q49 10 115 12q61 2 137 0q314 -8 733 -131v-2 q-241 -55 -532 -59q-221 -5 -389 22q-174 27 -174 86v2zM-22 -379q0 -76 182 -108q142 -25 408 -25q311 0 586 68q473 -140 784 -177q147 -16 315 -16q281 0 488 111q176 94 243 237q23 47 23 96q0 23 -6 23q4 0 -12 -57q-9 -23 -25 -54q-150 -268 -702 -268 q-420 0 -1014 135v2q581 172 968 531q289 268 467 581q154 275 199 539q236 154 244 395q8 201 -139 303q-138 95 -390 95q-428 0 -854 -234q-407 -225 -686 -567q-159 -197 -262 -420q-119 -254 -129 -477q-16 -295 189 -420q104 -64 280 -64q189 0 440 134 q242 129 428.5 323.5t305.5 397.5q114 192 141 346q10 55 8 84q-4 28 -39 32q-26 2 -61 -57l-43 -84q-80 -143 -226 -295q-231 -235 -425 -301q-76 -27 -148 -14q-143 24 -133 192q8 129 111 299q161 271 460 520q234 197 459 267q117 35 227 20q228 -28 228 -299 q0 -76 -17 -162q-112 -75 -170 -71q-18 0 -18 -8q0 -11 31 -7q73 11 151 56q-51 -238 -215 -508q-178 -291 -459 -553q-438 -408 -976 -561q-494 114 -822 123q-186 4 -278 -17q-117 -24 -117 -84v-2z" />
<glyph unicode="R" horiz-adv-x="3710" d="M2663 954q-312 -372 -547 -581l-184 303q-148 252 -148 485q0 352 293 602q358 305 971 283q143 -6 280 -49q158 -49 248 -135q-239 -166 -516 -449q-213 -221 -385 -438q-262 102 -238 321q17 154 166 256q103 70 187 78q32 8 32 10q0 13 -34 7q-90 -9 -199 -80 q-156 -105 -178 -273q-23 -166 141 -280q49 -35 111 -58v-2zM1819 -141q-147 0 -334 73q348 113 643 336q29 -67 33 -141q6 -92 -57 -162q-56 -59 -148 -88q-63 -18 -135 -18h-2zM2890 938q-47 0 -90 6q342 438 592 688q110 111 219 197q84 -96 88 -232q2 -133 -74 -254 q-98 -159 -254 -262q-215 -143 -479 -143h-2zM6 31q0 88 123 137q105 41 248 41q240 0 496 -86l508 -189q-285 -90 -699 -90q-290 0 -460 37q-216 45 -216 148v2zM-14 27q0 -117 209 -166q172 -41 483 -39q449 2 754 90q209 -74 387 -74q149 0 254 70q123 82 117 221 q-4 82 -33 158q313 241 631 639q32 -4 120 -8q197 -9 195 -127q-2 -93 -192 -330q-144 -178 -132 -330q15 -174 248 -197q191 -18 423.5 148t271.5 346q10 47 2 86q-25 115 -162 115q-168 0 -322 -166q-143 -154 -147 -285v-16q0 -8 6 -8q2 12 6 28q33 148 160 275 q141 141 295 141q65 0 96 -45t16 -109q-47 -198 -251.5 -352.5t-382.5 -136.5q-183 18 -160 180q16 131 137 289q74 94 100 141q54 88 58 160q10 154 -172 199v2q260 20 452 129q174 98 256 235q72 121 72 238q0 180 -143 317q397 301 821 301q235 0 381 -108 q153 -117 123 -307q-35 -215 -252 -365q-207 -145 -447 -149q-41 0 -69 10q-11 2 -13 4t-4 0q-8 -8 19.5 -19.5t66.5 -11.5q256 0 480 146q237 153 272 378q24 156 -76 271q-88 100 -248 145q-106 29 -225 29q-428 0 -860 -293q-217 176 -555 190q-619 27 -1006 -286 q-325 -264 -325 -635q0 -172 69 -320q45 -100 144 -245q125 -183 155 -236q-319 -274 -651 -389l-340 135q-401 139 -717 139q-248 0 -356 -108q-39 -39 -39 -92v-2z" />
<glyph unicode="S" horiz-adv-x="2953" d="M4445 1960q-251 0 -608 -277q-227 181 -655 168q-217 -6 -426 -73q-250 -84 -363 -224q-57 -71 -57 -147q0 -14 2 -31q-203 -49 -350 -127q-189 43 -426 31q-320 -16 -623 -141t-479 -314q-190 -207 -203 -448q-14 -275 193 -447q174 -143 465 -192q196 -31 397 -23 q752 33 1303 465q182 142 350 326q442 129 725 356q270 219 309 463q264 111 439 249t184 253q10 133 -174 133h-3zM2797 471q-320 -340 -658 -512q-378 -190 -827 -209q-285 -10 -506 47q-250 66 -383 205q-153 156 -141 381q16 326 399 567q371 236 879 269q92 6 184 2 t182 -17q-245 -160 -249 -383q-4 -164 157 -268q138 -90 373 -117q-141 -92 -358 -151q-203 -58 -410 -58q-465 0 -512 289q-2 19 -2 35q0 61 35 113q8 10 6 12q-14 10 -43 -45.5t-21 -120.5q19 -166 201 -256q160 -80 375 -80q213 0 420 64q221 67 377 192q55 -4 110 -4 q213 0 412 47v-2zM1974 1198q225 -41 352 -129q145 -102 141 -248q-6 -205 -227 -358q-375 35 -500 213q-41 59 -41 143q2 221 273 379h2zM2922 1096q176 0 393 34l-61 -81l-68 -88l-180 -238q-88 -115 -185 -219q-235 -55 -520 -47q183 159 189 366q8 226 -271 355 q-84 36 -182 61q127 59 307 102q25 -127 189 -188q145 -57 387 -57h2zM2701 1421q-177 0 -340 -41q-2 15 -2 29q0 152 251.5 274.5t567.5 133.5q192 6 381 -37q166 -41 258 -111q-228 -186 -488 -514q-221 -35 -409 -35q-183 0 -322 39q-207 60 -233 189q172 38 336 38 q188 0 295 -40q79 -33 94 -66q2 -8 6 -4q18 12 -29 53q-37 33 -61 43q-113 49 -303 49h-2zM2993 545q121 133 414 528l58 78q204 43 514 166q-41 -219 -308 -432q-272 -217 -678 -342v2zM3483 1184q227 293 387 442q39 -35 80 -121q35 -75 31 -153q-277 -123 -498 -170v2z M4441 1942q91 0 119 -44q15 -20 15 -67q-17 -107 -173 -232q-163 -133 -401 -239q6 70 -31 153q-32 78 -84 129q322 300 553 300h2z" />
<glyph unicode="T" horiz-adv-x="3473" d="M1189 -209q-145 0 -272 8q14 219 84 420q192 -18 491 -82q-67 -170 -63 -338q-115 -8 -238 -8h-2zM2152 -37q-304 -129 -697 -160q8 168 80 324q205 -57 617 -162v-2zM282 51q0 99 168 148q82 22 200 30q109 9 267 -4h26q15 0 29 -4q-70 -229 -78 -422q-201 17 -350 58 q-262 71 -262 192v2zM1191 -236q125 0 240 9q10 -127 47 -209q43 -92 108 -111q6 -2 11 -2q4 0 4 2l-37 27q-45 31 -70 94q-35 90 -39 199q434 37 760 172q320 -78 580 -78q26 0 108 6q-53 -446 -403 -747q-320 -275 -709 -275q-235 0 -420 84q-229 107 -346 317 q-106 197 -106 457v64q127 -9 270 -9h2zM2297 -10q291 135 532 360q88 -168 76 -416q-12 0 -37 -2h-37q-239 0 -534 56v2zM2786 418q-258 -266 -559 -416q-225 55 -680 158q90 172 228 291q256 223 563 204q291 -16 448 -235v-2zM251 49q0 -135 268 -213q158 -45 369 -61 v-72q0 -373 209 -604q241 -268 690 -268q420 0 754 282q368 314 417 766q234 45 437 215l88 78q26 25 18 29l-33 -17q-239 -204 -505 -243q12 241 -105 436q250 239 502 604q321 465 596 666q209 153 407 168q29 2 60 2h53q4 0 4 4q0 20 -104 16q-244 -12 -504 -188 q-305 -209 -612 -615l-220 -301q-131 -176 -233 -289q-170 218 -465 234q-328 18 -598 -201q-166 -133 -236 -309q-296 57 -499 76q96 243 278 483q215 287 516 512q502 377 1260 543q518 112 1245 90q238 -8 426 -68q211 -67 272 -176q21 -37 19 -37q4 2 6 15q4 69 -78 145 q-123 115 -391 172q-178 39 -475 39q-533 0 -1036 -119q-725 -170 -1295 -598q-278 -209 -497 -504q-177 -235 -279 -497q-16 4 -59 6q-170 10 -281 2q-246 -21 -342 -107q-47 -41 -47 -94v-2z" />
<glyph unicode="U" horiz-adv-x="3053" d="M1134 -90q133 0 305 119q140 96 328 299l731 786l533 500q243 217 460 383q89 67 179 110q18 9 34 9q19 0 19 -11q0 -18 -57 -57q-43 -29 -211 -168q-338 -278 -746 -672q-328 -317 -493 -518q-170 -209 -234 -368q-37 -89 -37 -164q0 -131 92 -197q70 -51 187 -55 q-8 -60 -10 -117q-3 -53 8 -111q6 -40 18 -36q4 0 2 6q-4 12 -6 35q-6 49 -2 108q4 55 14 115q308 0 592 235q144 119 227.5 255t83.5 249q0 131 -147 131q-121 0 -272 -96q-340 -219 -471 -631q-21 -65 -33 -123q-201 17 -201 195q0 110 123 301q143 221 438 522 q101 103 150 148l760 725l102 88q59 45 158 141q20 29 20 49q0 31 -39 39q-24 4 -69 -10q-19 -6 -33 -13l-23 -12q-45 -26 -135 -86q-162 -115 -459 -379q-532 -473 -917 -905l-252 -280q-143 -154 -264 -267q-268 -248 -447 -248q-90 0 -90 89q0 92 117 262 q106 153 283 346l307 325l184 195q107 115 174 205q148 196 137 358q-8 117 -108 191q-84 61 -209 84q-76 12 -147 12q-594 6 -1092 -395q-305 -248 -393 -562q-31 -102 -27 -188q6 -156 107 -242q92 -82 235 -82q307 0 584 238q252 217 282 461q23 178 -129 246 q-55 24 -122 20q-41 -2 -93 -18q-61 -21 -82 -45q-6 -9 -4 -13q19 0 50.5 19.5t41.5 23.5q44 13 87 15q122 4 186 -74q53 -68 39 -174q-17 -117 -148 -278.5t-305 -272.5q-201 -127 -383 -127q-141 0 -228 78t-91 219q-6 170 108 369q174 297 551 522q402 237 826 237 q139 0 243 -57q125 -70 133 -197q9 -127 -137 -311q-67 -84 -176 -203l-182 -194q-158 -166 -459 -514q-223 -285 -223 -445q0 -118 98 -141q25 -6 47 -6h2zM3000 760q129 0 129 -115q0 -92 -85 -224t-226 -253q-113 -96 -265 -166q-167 -76 -301 -76q33 166 154 373 q82 137 203 252q133 127 270 182q66 27 119 27h2z" />
<glyph unicode="V" horiz-adv-x="1716" d="M2240 1518q-246 -234 -362 -355q-197 -202 -334 -379q-439 -563 -467 -825q-8 -78 39 -94q49 -19 139 72l707 704l264 248q645 584 1255 946q463 274 985 360q162 27 303 27q430 0 660 -133q223 -131 223 -379q0 -199 -121 -350q-192 -238 -567 -373q-340 -121 -684 -113 q-354 9 -541 154q-117 90 -117 242q0 223 281 395q297 182 674 182q303 0 471 -131q63 -51 90 -131q18 -55 16 -55q17 0 0 61q-41 162 -229 242q-160 65 -383 65q-381 0 -670 -196q-272 -184 -272 -426q0 -166 121 -268q186 -162 553 -181q350 -20 702 111q379 141 574 403 q122 164 122 388q0 270 -210 425q-232 168 -664 168q-326 0 -705 -122q-348 -113 -661 -297q-627 -369 -1243 -959q-281 -268 -537 -547l-219 -239l-196 -211q-64 -66 -99 -66q-6 0 -12 4q-12 4 -14 23q-7 55 96 215q203 311 555 764q297 381 684 782q192 135 332 264 q37 37 41 58q2 10 -13 16q-49 10 -186 -111l-117 -102q-16 -14 -131 -125q-584 -563 -1210 -686q-166 -33 -322 -29q-332 7 -489 166q-82 82 -94 207q-25 240 227 440q233 189 582 261q127 26 266 30q291 6 448 -104q78 -56 86 -148q15 -143 -151 -280 q-154 -129 -362 -188.5t-361 -59.5q-135 0 -205 49q-51 35 -61 92q-19 103 110 195q113 82 273 117q106 22 194 24q164 4 205 -43q10 -14 14 -12q17 16 -63 53q-56 25 -148 33q-157 10 -329 -53q-193 -74 -258 -199q-31 -55 -19 -119q27 -139 221 -166q43 -6 94 -6 q156 0 342 55q154 45 281 132q150 98 215 223q39 76 31 153q-21 187 -287 265q-119 32 -264 34q-303 2 -600 -131q-336 -149 -459 -395q-47 -98 -47 -203q0 -164 98 -276q160 -182 502 -197q428 -20 873 234q260 147 534 383v-2z" />
<glyph unicode="W" horiz-adv-x="2447" d="M2608 1806l-41 -37l-53 -49q-31 -28 -92 -88l-125 -123q-72 -69 -145 -147l-154 -160q-129 -135 -272 -303q-60 -68 -97 -115q-159 -204 -292 -424q-150 -243 -172 -383q-7 -36 -2 -59q4 -37 26 -49q8 -4 14 -6q66 -15 187 119l440 489q258 287 455 475q207 201 358 334 q82 72 150 123v-2q-205 -217 -418 -490q-131 -168 -275 -385q-149 -229 -225 -387q-55 -112 -65 -186q-4 -21 0 -39q6 -39 45 -51q30 -10 102 45q43 35 103 100q213 230 581 596l199 195q596 579 1261 1003q283 180 633 295q379 125 692 125q428 0 658 -133 q223 -131 223 -379q0 -199 -123 -350q-194 -240 -567 -373q-287 -102 -574 -113q-231 -8 -417 44q-197 51 -287 165q-49 60 -59 134q-25 167 116 321q127 135 365 223q231 86 471 86q303 0 471 -131q63 -51 90 -131q18 -55 16 -55q5 2 7 16q2 15 -7 45q-41 162 -229 242 q-160 65 -383 65q-381 0 -672 -196q-307 -209 -266 -488q35 -235 356 -333q142 -45 314 -54q350 -20 702 111q381 143 574 403q123 168 123 381q0 224 -158 373q-137 129 -369 186q-176 41 -383 41q-313 0 -688 -131q-354 -123 -665 -323q-480 -307 -977 -770 q-301 -279 -664 -664l-377 -403l-69 -74q-41 -43 -78 -66q-23 -14 -39 -10q-21 8 -12 47q6 37 51 115l2 4q69 119 219 328l115 160q317 444 630 806l330 379l33 37l18 23q7 6 9 10q0 4 -5 6q-10 10 -49 -16l-57 -43l-289 -246q-264 -219 -508 -444q-237 -218 -483 -486 l-358 -405l-111 -133q-72 -80 -121 -119q-41 -29 -65 -19q-15 6 -15 27q0 72 160 307q131 191 328 451l168 217q217 282 628 739l185 199q90 41 108 51q60 29 105 63q39 29 43 52q2 10 -13 16q-59 12 -200 -104l-76 -66q-119 -43 -510 -156l-295 -86q-500 -145 -854 -325 q-309 -156 -471 -326q-182 -192 -233 -407q-23 -97 -15 -179q10 -127 74 -221q57 -86 168.5 -138t238.5 -38q115 12 164 41q25 12 21 18q-2 3 -6 3q14 0 -64 -19q-35 -8 -88 -12q-137 -10 -252 41q-106 45 -164 123q-22 30 -32 59q-35 90 -27 180q12 172 141 350 q189 263 580 482q285 157 573 258l156 51l592 180q94 29 280 92v-2z" />
<glyph unicode="X" horiz-adv-x="3803" d="M1330 219q234 0 443 84q239 96 356 272q72 107 68 240q-7 217 -248 348q-228 123 -566 111q-444 -14 -778 -246q-352 -244 -352 -598q0 -246 172 -405q150 -140 403 -189q166 -33 347 -26q569 18 1058 282q424 225 811 656q201 223 362 494t193 433q13 60 15 137 q2 277 -279 330q-88 17 -184 2q-301 -49 -533 -301q-196 -215 -231 -495q-18 -148 31 -222q30 -49 65 -53q15 -2 17 2q6 6 -12.5 13.5t-20.5 11.5q-45 37 -55 102q-21 123 53 297q92 219 276 389q197 180 418 230q88 18 168 4q150 -27 193 -150q18 -55 16 -119 q-8 -153 -86 -323q-96 -209 -281 -459q-254 -344 -577 -614q-342 -287 -711 -447q-356 -155 -706 -168q-381 -12 -625 129q-274 158 -274 463q0 318 352 541q327 205 758 223q208 8 383 -31q227 -51 335 -174q68 -75 72 -180q8 -229 -276 -391q-271 -156 -609 -156 q-293 0 -417 140q-48 49 -58 120q-4 29 0 52q4 28 21 55q4 8 0 8q-21 12 -34 -38t-9 -81q20 -147 190 -231q148 -72 344 -72h2zM5531 2230q401 0 616 -119q246 -139 223 -436q-18 -248 -292 -454q-293 -220 -748 -275q-84 -10 -168 -12q-438 -10 -598 176q-63 72 -63 180 q0 195 223 359q248 182 586 213q67 6 143 2q117 -9 213 -49q121 -52 164 -140q6 -39 20 -80q6 0 10 29q13 82 -104 168q-125 90 -317 111q-91 10 -181 2q-340 -31 -573 -226q-209 -174 -209 -379q0 -161 119 -256q170 -137 475 -151q364 -21 688 108q379 148 545 416 q80 127 90 262q22 306 -236 469q-231 144 -626 144q-281 0 -588 -90q-328 -95 -602 -260q-572 -345 -1079 -1016q-240 -320 -320 -576q-29 -92 -31 -174q-4 -268 250 -289q117 -10 242 56q203 106 303 295q43 81 53 151q10 72 -22.5 121t-102.5 59q-149 21 -284 -120 q-113 -117 -121 -275q-8 -37 8 -37q4 2 8 41q17 139 125 250q137 139 262 121q111 -17 90 -139q-22 -142 -170 -297q-204 -217 -391 -203q-211 16 -198 266q12 260 339 694q373 494 771 799q456 350 917 481q281 80 539 80h2z" />
<glyph unicode="Y" horiz-adv-x="3266" d="M1695 700q-152 0 -242 76q-96 80 -90 225q8 162 139 351q445 254 805 254q168 0 250 -78q72 -72 55 -187q-18 -116 -163 -264q-152 -155 -342 -258q-222 -119 -410 -119h-2zM704 -74q-125 0 -181 115q-22 43 -22 109q0 43 8 88q195 163 367 157q155 -6 155 -149 q0 -113 -99 -216.5t-226 -103.5h-2zM714 -96q141 0 244.5 100t103.5 242q0 162 -184 170q-160 8 -359 -137q72 284 414 630q231 234 526 422v-2q-110 -172 -118 -321q-9 -164 102 -252q92 -76 252 -76q356 0 651 231q119 93 201 207q100 142 100 264q0 127 -108 191 q-86 51 -226 51q-354 0 -768 -215v2q123 154 316 309q389 314 858 389q158 25 291 11q180 -21 252 -125q26 -39 26 -94q0 -158 -200 -420q-89 -115 -197 -232l-213 -233q-158 -164 -457 -506q-221 -277 -221 -438q0 -70 37 -116t106 -46q113 0 353 199q184 153 487 460 l391 404q232 239 402 395q286 266 528 455q180 139 307 217q80 47 135 63q27 8 45 6q21 -2 15 -16q-10 -20 -146 -104q-71 -43 -125 -82q-516 -371 -1050 -944q-361 -388 -914 -1080q-311 -389 -606 -827q-153 -225 -289 -453q-159 -264 -196 -413q-14 -56 -2 -93 q16 -49 71 -49q39 0 99 68q80 92 217 285l315 438q189 266 502 657q156 199 344 416q115 131 203 215q76 72 72 78q-7 6 -25 -10l-55 -50l-37 -36l-39 -39q-187 -191 -488 -559q-294 -359 -503 -656l-312 -444l-151 -207q-96 -127 -127 -123q-17 2 -19 21q-4 18 7 47 q53 153 213 419q423 705 1204 1651q422 512 851 945t752 683l113 86l98 74q78 55 82 90q4 33 -47 37q-94 8 -295 -127q-338 -225 -768 -625q-196 -184 -532 -526l-271 -276q-305 -312 -477 -455q-223 -188 -328 -188q-88 0 -88 88q0 92 117 260q101 145 432 503l367 398 q237 256 340 461q55 112 55 219q0 182 -229 256q-62 18 -117 24q-276 31 -614 -90q-314 -114 -564 -317q-241 -197 -350 -348q-362 -209 -600 -453q-350 -358 -414 -684q-307 -258 -401 -547q-45 -133 -41 -233q2 -95 51 -164q56 -80 144 -86q14 0 37.5 4t19.5 12q-2 4 -4 2 q-16 -4 -33 -4q-12 2 -35 10q-118 43 -131 222q-6 92 39 227q70 217 236 401q55 62 112 115q0 -10 -2 -30.5t-2 -30.5q0 -125 84 -195q64 -53 156 -53h2z" />
<glyph unicode="Z" horiz-adv-x="3743" d="M509 -98q-84 0 -147 22q-92 33 -88 101q8 108 211 184q190 70 442 70q231 0 471 -111q-467 -266 -887 -266h-2zM3622 244q0 -226 -258 -365q-242 -127 -586 -119q-266 7 -591 140q-82 34 -142 65q209 256 520.5 402.5t643.5 146.5q288 0 382 -149q31 -52 31 -119v-2z M3897 1964q69 0 63 -49q-10 -88 -199 -162q-194 -78 -413 -78h-27q-16 2 -24 2q376 287 598 287h2zM499 -121q459 0 938 273l258 -132l258 -137q-102 -155 -125 -272q-8 -45 -4 -72q2 -22 8 -20q4 0 4 4v12q0 25 11 72q26 121 125 264q325 -150 688 -160q403 -10 686 133 q299 154 299 402q0 229 -267 307q-83 22 -182 22q-330 0 -651 -167q-307 -162 -522 -431q-178 91 -242 121q-137 68 -248 111q305 192 842 655q115 17 348 37q27 2 29 6q0 13 -29 13q-104 0 -278 16l626 559l195 158q10 -2 18 -2h19q268 0 474 78.5t222 187.5q12 80 -102 80 q-234 0 -648 -314q-112 25 -251 101l-236 137q-319 176 -661 176q-222 0 -408 -63q-221 -74 -338 -224q-76 -98 -90 -221q-21 -190 131 -297q133 -96 338 -96q147 0 285 43q159 51 249 143q56 60 64 136q12 104 -68 163q-67 52 -174 52q-147 0 -223 -88q-37 -46 -27 -56 q2 0 19.5 20.5t23.5 26.5q76 68 205 68q88 0 141.5 -54.5t43.5 -138.5q-17 -129 -179 -215q-151 -79 -358 -79q-133 0 -240 47q-125 55 -178 161q-37 70 -26 164q24 223 258 350q200 109 485 109q199 0 379 -72q76 -30 139 -65l113 -64q282 -164 553 -192 q-230 -172 -629 -537l-197 -178l-145 12q-41 0 -72 -8q-47 -10 -45 -43q4 -47 183 -43q-508 -440 -824 -633q-256 90 -553 90q-170 0 -327 -36q-199 -46 -299 -136q-60 -53 -64 -118q-4 -74 86 -113q76 -33 164 -33h2z" />
<glyph unicode="[" horiz-adv-x="1215" d="M1357 1434l-28 -65h-378l-700 -1709h380l-27 -64h-517l754 1838h516z" />
<glyph unicode="\" horiz-adv-x="675" d="M647 -15h-81l-579 1449h77z" />
<glyph unicode="]" horiz-adv-x="1215" d="M1175 1434l-756 -1838h-517l26 64h382l703 1709h-387l27 65h522z" />
<glyph unicode="^" horiz-adv-x="969" d="M737 541h-82l-188 319l-135 -319h-80l174 418h62z" />
<glyph unicode="_" horiz-adv-x="1015" d="M1049 -261h-1033l-10 111h1033z" />
<glyph unicode="`" horiz-adv-x="539" d="M356 684q0 -8 -17 -17q-63 0 -210 154q-84 87 -89 140v7q0 44 48 44q53 0 90.5 -107.5t124.5 -174.5q51 -35 53 -46z" />
<glyph unicode="a" d="M651 557l99 4q-60 -72 -168 -252q-127 -209 -127 -256q0 -28 32 -28q80 0 291 245l33 33q8 0 9 -4t3 -8q-14 -17 -41 -47l-73 -80q-160 -164 -226 -164q-90 0 -90 143v37q-80 -80 -121 -112q-84 -68 -133 -68q-127 0 -127 188q0 54 8 95l-12 -4l-8 8q4 10 33 45 q78 98 184 164q123 73 234 73q90 0 90 -98q0 -35 -9 -57l5 -4l67 116q19 29 47 31zM94 90q0 -65 45 -65q101 0 240 174q137 168 137 272q0 74 -65 74q-115 0 -240 -172q-117 -162 -117 -283z" />
<glyph unicode="b" horiz-adv-x="700" d="M643 1212l127 21l-391 -655q-158 -263 -205 -355q-59 -114 -59 -145q0 -53 49 -53q149 0 254 147q94 133 94 287q0 110 61 110q27 0 38.5 -22.5t11.5 -54.5q0 -78 -60 -187q-41 -76 -92 -129l21 -4q112 0 200 119q10 12 17 12l8 -8q0 -8 -33 -45q-88 -103 -213 -103 l-20 5q-152 -152 -283 -152h-8q-54 0 -84.5 42t-30.5 101q0 78 61 172l136 193l-4 4l-107 -115q-121 -131 -119 -131l-12 8q0 11 86 107q170 192 295 393z" />
<glyph unicode="c" horiz-adv-x="585" d="M553 471q0 -35 -21.5 -62.5t-56.5 -27.5q-49 0 -49 53q0 23 30.5 41.5t30.5 36.5q0 33 -49 33q-125 0 -229 -160q-94 -145 -94 -279q0 -81 86 -81q121 0 262 147q41 43 119 135q8 0 9 -4t3 -8q0 -8 -78 -94q-180 -201 -332 -201q-86 0 -127 76q-39 69 -32 149l4 58l-4 4 l-13 -8l-12 8q6 8 16 26q9 13 54 64q168 192 348 192q135 0 135 -98z" />
<glyph unicode="d" d="M516 479q0 78 -57 78q-123 0 -246 -178q-115 -168 -115 -297q0 -57 54 -57q98 0 233 176q131 170 131 278zM541 434l446 795l123 4l-311 -539l-242 -415q-98 -177 -98 -213q0 -41 33 -41q53 0 174 120q69 70 110 119q10 15 35 43q4 0 7 -1t4 -3t1 -4q0 -10 -41 -57 q-207 -242 -311 -242q-74 0 -74 111q0 8 6 45l7 37l-4 4q-48 -72 -119 -129q-86 -68 -156 -68q-61 0 -92 68q-23 51 -23 120q0 31 2 48q2 28 7 51l-13 -13q-12 9 -12 13q6 18 61 78q203 217 385 217q95 0 95 -90q0 -33 -4 -54z" />
<glyph unicode="e" horiz-adv-x="655" d="M590 471q0 -100 -182 -182q-136 -62 -285 -88q-12 -31 -12 -66q0 -110 98 -110q135 0 319 163q23 21 90 91q27 28 33 28q8 -8 8 -12q0 -12 -69 -80l-86 -80q-164 -135 -311 -135h-9q-82 0 -127 65.5t-45 151.5q8 47 8 62l-4 4l-4 -9l-12 13q0 10 86 90q211 192 389 192 q115 0 115 -98zM475 545q-86 0 -205 -119q-114 -111 -139 -201q129 17 252 92q141 89 141 191q0 37 -49 37z" />
<glyph unicode="f" horiz-adv-x="475" d="M349 528l-246 -487q139 14 303 197l49 55q11 10 17 10l8 -8q0 -19 -102 -119q-74 -72 -140 -110q-73 -46 -151 -58l-291 -549l-127 -16l319 577q-24 23 -24 62q0 61 57 61q21 0 25 -4l237 418l-4 4q-49 -41 -92 -88l-76 -84q-39 -41 -73 -84q-25 -29 -29 -31l-8 13 q108 127 168 192q43 47 118 119q44 41 66 82q336 614 545 614q78 0 78 -94q0 -160 -318 -418zM369 582l5 -4l215 176q161 135 239 229q115 141 115 242q0 45 -57 45q-140 0 -345 -363q-34 -61 -172 -325z" />
<glyph unicode="g" d="M479 545q-123 0 -252 -168q-125 -160 -125 -287q0 -65 54 -65q100 0 243 174q142 168 142 272q0 74 -62 74zM647 553l131 8l-344 -569l4 -4q82 32 174 112q82 70 189 199q8 8 14 8q8 -8 8 -12q0 -10 -73 -90q-187 -203 -328 -250q-80 -168 -225 -354q-189 -240 -312 -240 q-102 0 -102 102q0 142 248 308q78 53 293 176l143 295l-4 4q-174 -246 -307 -246q-127 0 -127 180q0 19 6 54.5t6 52.5q-4 4 -8 4q-10 0 -13.5 -4t-7.5 -8q-8 8 -8 12q94 125 254 215q113 63 201 63q106 0 106 -98q0 -35 -2 -45q-6 -18 -6 -25l4 -4q10 15 41 72zM-164 -537 q0 -77 58 -77q102 0 249 217q117 170 164 311q-213 -129 -284 -184q-187 -144 -187 -267z" />
<glyph unicode="h" d="M50 12l-127 -12q158 283 340 557l-240 -270q-14 -15 -18 -17q-8 9 -8 13q268 286 426 557l221 381l123 12q-10 -21 -158 -264l-237 -400l-203 -348l4 -4q309 352 418 352q82 0 82 -106q0 -53 -113 -211t-113 -199q0 -28 29 -28q74 0 242 176q14 14 65 75q31 37 37 39 q12 0 12 -12q-14 -14 -18 -20l-84 -99q-172 -184 -262 -184q-82 0 -82 115q0 82 84 213l141 192q0 25 -24 25q-74 0 -287 -223q-199 -209 -250 -310z" />
<glyph unicode="i" horiz-adv-x="475" d="M238 561l131 8l-199 -325q-88 -144 -88 -174q0 -45 41 -45q80 0 225 151l82 86q14 14 45 49q10 -2 12 -8q0 -8 -127 -143q-149 -160 -241 -160q-99 0 -99 106q0 105 103 252q33 43 94 129l-4 5q-90 -91 -176 -189q-21 -24 -29 -24q-8 8 -8 12l8 12q0 2 53 62l97 104 q63 68 80 92zM336 739q0 78 74 78q45 0 45 -53q0 -78 -70 -78q-49 0 -49 53z" />
<glyph unicode="j" horiz-adv-x="475" d="M275 561l131 8l-172 -313q-111 -201 -168 -289l4 -4q205 109 356 295q41 49 45 49q8 -8 8 -12t-6 -12q-26 -33 -30 -37q-90 -109 -162 -168q-107 -88 -236 -156q-131 -233 -209 -338q-165 -223 -295 -223q-106 0 -106 90q0 121 195 275q69 55 342 221q219 465 286 561 l-4 4q-114 -96 -176 -164l-47 -49q-2 -2 -8 -9t-10 -11q-13 0 -13 12l13 12q2 4 63 70q84 90 199 188zM-512 -561q0 -53 66 -53q178 0 397 524l-4 4l-207 -137q-252 -183 -252 -338zM346 741q0 78 74 78q45 0 45 -53q0 -78 -69 -78q-50 0 -50 53z" />
<glyph unicode="k" d="M722 451q-47 0 -54 73q-49 -10 -94 -86q-51 -86 -172 -110q39 -9 75 -48.5t36 -78.5q0 -27 -45 -144q0 -32 28 -32q45 0 113 57q80 68 192 201q15 18 23 20q4 0 7 -1t4 -3t1 -4q0 -4 -51 -64l-55 -59q-160 -172 -242 -172q-49 0 -80 55q-26 47 -26 101q0 39 26 88 q15 26 15 39q0 32 -37 32q-13 0 -37.5 -14t-44.5 -14q-29 0 -29 24q0 33 70 33l41 -4q35 0 98 53q55 43 82 82q68 94 135 94q78 0 78 -61q0 -57 -57 -57zM656 1221l127 12l-717 -1225l-139 -8l328 532l-4 5l-64 -80q-22 -27 -76 -84q-34 -37 -69 -80q-25 -31 -33 -35 q-8 8 -8 12q0 9 26 37q215 240 310 377q57 86 133 215z" />
<glyph unicode="l" horiz-adv-x="475" d="M668 1221l135 12l-418 -660q-178 -280 -221 -360q-66 -121 -66 -160q0 -28 33 -28q82 0 238 155l114 127q9 0 10 -4t3 -8q-11 -12 -28 -34.5t-50 -55.5q-195 -205 -295 -205q-86 0 -86 102q0 88 49 166l160 248l-4 4l-136 -155l-61 -66q-29 -33 -37 -33l-8 8 q256 273 422 545z" />
<glyph unicode="m" horiz-adv-x="1261" d="M532 12l-126 -12q290 461 290 516q0 29 -24 29q-60 0 -260 -234q-160 -186 -232 -299l-135 -12q315 494 315 516q0 29 -32 29q-66 0 -193 -131q-41 -43 -96 -109q-25 -31 -31 -31q-8 0 -8 13q25 37 119 143q121 139 213 139q82 0 82 -77q0 -72 -62 -179q-22 -39 -57 -96 l4 -4l178 207q137 149 203 149q70 0 70 -90q0 -55 -35 -137q-13 -27 -64 -121l4 -4l176 207q140 145 213 145q74 0 74 -102q0 -66 -104.5 -210t-104.5 -187l-4 -9q0 -36 37 -36q62 0 184 131l119 129q15 16 21 18q12 0 12 -8t-57 -70l-62 -65q-151 -160 -225 -160 q-86 0 -86 131q0 76 84 207q14 22 133 190q0 17 -29 17q-73 0 -272 -234q-146 -170 -232 -299z" />
<glyph unicode="n" horiz-adv-x="925" d="M168 12l-135 -12q327 481 327 516q0 29 -32 29q-76 0 -217 -156q-105 -115 -103 -115q-8 9 -8 13q0 8 78 94q90 100 137 137q66 51 121 51q78 0 78 -98q0 -90 -131 -258l4 -4l200 207q158 153 222 153q32 0 52.5 -29.5t20.5 -64.5q0 -69 -77 -176q-136 -182 -136 -233 q0 -41 33 -41q62 0 217 163q113 119 107 119q2 0 4 -5t4 -7q0 -21 -127 -148q-148 -147 -209 -147q-90 0 -90 131q0 72 86 203q12 18 135 186q0 25 -29 25q-65 0 -278 -230q-201 -215 -254 -303z" />
<glyph unicode="o" horiz-adv-x="700" d="M578 430q0 -139 -119 -258l20 -4q103 0 193 102l33 33q4 0 7 -1t4 -3t1 -4t-2 -6q-66 -88 -142 -121q-55 -25 -110 -25q-17 0 -29 4q-119 -147 -262 -147q-127 0 -127 184q0 45 12 107q0 4 -1 7t-3 4t-4 1q-12 0 -37 -33l-12 9q0 18 119 131q168 159 336 159 q123 0 123 -139zM532 455q0 37 -17 63.5t-52 26.5q-119 0 -232 -166q-104 -152 -104 -277q0 -77 53 -77q131 0 246 151q106 141 106 279z" />
<glyph unicode="p" d="M476 913l106 17l-434 -737l4 -5q316 381 438 381q78 0 78 -106q0 -60 -110.5 -211.5t-110.5 -198.5q0 -28 33 -28q82 0 237 176l65 77q23 27 30 29q8 0 9 -4t3 -8q0 -6 -8 -14q-21 -21 -58 -64q-186 -217 -282 -217q-90 0 -90 131q0 84 110.5 223.5t110.5 165.5 q0 25 -29 25q-63 0 -209 -144q-98 -98 -176 -196q-151 -193 -291 -434l-172 -299l-139 -9l705 1143l-5 4l-133 -161q-143 -175 -149 -175q-6 5 -12 9q0 -4 122 147q205 254 357 483z" />
<glyph unicode="q" d="M119 82q0 -57 33 -57q114 0 260 168q141 161 141 278q0 74 -78 74q-98 0 -223 -152q-133 -162 -133 -311zM659 553l111 4l-545 -922l4 -4l256 306q7 6 260 292q70 78 78 78q13 -8 13 -12l-66 -70l-90 -98l-344 -397q-141 -170 -205 -275l-131 -12l463 762l-4 4 q-51 -64 -121 -121q-107 -88 -182 -88q-119 0 -119 184q0 21 12 107l-4 4q-10 0 -16 -7t-9 -14q-12 11 -12 17q8 8 21 24l57 62q76 80 178 133q113 59 211 59q49 0 76 -22.5t27 -75.5q0 -12 -6.5 -34.5t-6.5 -35.5l4 -4z" />
<glyph unicode="r" horiz-adv-x="700" d="M168 12l-127 -12l233 365q82 124 82 151q0 29 -37 29q-59 0 -155 -103l-156 -168q-8 9 -8 13q8 14 41 51l78 88q137 143 209 143q82 0 82 -94q0 -59 -72 -186q-31 -56 -59 -92l4 -4l127 129q90 92 106 133q45 114 131 114q49 0 49 -32q0 -23 -114.5 -116t-114.5 -167 q0 -70 65 -70q41 0 95 41q32 33 55 64q8 12 14 14l13 -8q-4 -10 -18 -25l-36 -41q-53 -65 -123 -65q-32 0 -61 24.5t-29 57.5q0 67 41 114l-4 5q-71 -70 -155 -162q-52 -58 -156 -191z" />
<glyph unicode="s" horiz-adv-x="475" d="M266 106h4q29 19 68 54l80 90q25 29 53 57q8 -8 8 -12q0 -8 -82 -102q-165 -193 -323 -193q-123 0 -123 94q0 58 49 58q45 0 45 -33q0 -19 -14 -33t-14 -29q0 -32 32 -32q76 0 146 133q63 118 63 202q0 185 12 193l-4 4q-16 -10 -108 -115l-129 -147q-10 -16 -21 -16 l-8 8q0 16 195 229q63 70 75 74q25 61 66 61q37 0 37 -28q0 -29 -27 -43q-6 -5 -55 -23q-6 -14 -7 -21.5t-1 -23.5q0 -72 12 -133q29 -141 29 -150q0 -65 -58 -123z" />
<glyph unicode="t" horiz-adv-x="475" d="M381 754l119 196l127 8l-131 -204h237q12 -9 12 -13q-8 -12 -12 -12h-254q-389 -600 -389 -672q0 -32 41 -32q78 0 225 147q50 49 97 107q22 28 30 28q9 0 9 -12q0 -10 -54 -68l-57 -59q-168 -168 -254 -168q-98 0 -98 102q0 121 192 390l-4 4l-127 -144q-37 -41 -57 -65 q-8 -13 -21 -25l-12 8q0 6 12 21q76 76 205 237l152 201h-74q-8 0 -8 12q0 4 4 9l4 4h86z" />
<glyph unicode="u" d="M266 561l115 8l-242 -374q-53 -86 -53 -134q0 -36 33 -36q76 0 246 186q163 180 262 350l131 8q-307 -438 -307 -508q0 -36 32 -36q58 0 193 143q129 135 131 135q4 0 7 -1t4 -3t1 -4q-12 -16 -63 -74l-60 -65q-147 -156 -221 -156q-86 0 -86 131q0 47 12 78l-4 4 l-88 -94q-119 -119 -190 -119q-47 0 -70.5 29.5t-23.5 81.5q0 108 108 251l100 134l-4 4q-49 -37 -188 -185q-25 -32 -33 -36q-8 0 -8 12q0 10 16.5 28.5t88 92t161.5 149.5z" />
<glyph unicode="v" d="M160 143q0 84 102.5 221.5t102.5 159.5q0 21 -37 21q-54 0 -140 -82q-92 -86 -149 -156q-27 -31 -31 -33q-8 9 -8 13q0 8 31 41l84 90q139 151 217 151q45 0 65.5 -28.5t20.5 -73.5q0 -72 -94.5 -207t-94.5 -178q0 -57 50 -57q133 0 253 151q115 146 115 283 q0 110 62 110q49 0 49 -65q0 -62 -72 -180q-65 -111 -121 -156l4 -4q58 0 121.5 36t100.5 83q18 24 20 24q12 -8 12 -12q0 -25 -90 -90.5t-184 -65.5q-170 -139 -275 -139q-57 0 -85.5 38t-28.5 105z" />
<glyph unicode="w" horiz-adv-x="1036" d="M610 557l135 12q-286 -409 -286 -495q0 -49 53 -49q111 0 233 120q140 138 140 301q0 64 4 80q12 43 57 43q49 0 49 -45q0 -75 -67.5 -189t-132.5 -167l4 -4q108 0 200 102q37 41 41 41q2 0 4.5 -5t4.5 -7q-13 -23 -23 -31q-27 -37 -68 -59q-28 -25 -84 -47 q-47 -19 -96 -19q-155 -139 -274 -139q-62 0 -88.5 43t-26.5 113q0 26 12 45l-4 4l-127 -123q-86 -82 -147 -82q-51 0 -77 30.5t-26 84.5q0 73 46 151q18 33 163 226l-4 4q-57 -50 -80.5 -73.5t-61.5 -68.5t-58 -65q-11 -10 -17 -10q-8 8 -8 12q8 8 10 12l43 49 q37 47 111 121q22 23 98 92l119 4q-299 -432 -299 -495q0 -49 37 -49q104 0 280 217q138 170 211 315z" />
<glyph unicode="x" horiz-adv-x="700" d="M270 221q-151 -221 -274 -221q-86 0 -86 66q0 28 10 42.5t43 14.5q49 0 49 -53q0 -37 13 -37q49 0 139 94q72 76 111 139q18 31 47.5 123t29.5 123q0 33 -24 33q-53 0 -189 -131q-88 -86 -131 -140l-8 13q10 14 35 45q98 127 205 200q53 37 96 37q86 0 86 -131 q0 -63 -8 -86l4 -4q35 72 102 139q82 82 148 82q82 0 82 -65q0 -49 -45 -49t-49.5 32.5t-6.5 34.5t-26 2q-64 0 -166 -151q-113 -166 -113 -316q0 -32 25 -32q69 0 225 168l102 110q5 0 8 -1t4 -3t1 -4q0 -6 -62 -74l-73 -82q-129 -139 -213 -139q-99 0 -99 168z" />
<glyph unicode="y" horiz-adv-x="925" d="M771 557l131 12l-365 -594l4 -4q154 74 336 283q43 49 49 49l9 -8q-7 -10 -31 -41q-47 -57 -55 -66q-138 -149 -332 -254q-328 -573 -533 -573q-98 0 -98 111q0 102 158 231q121 100 407 268l180 344l-4 4q-59 -81 -170 -184q-141 -131 -206 -131q-39 0 -66 41 q-20 35 -20 78q0 74 98 219t98 178q0 25 -33 25q-71 0 -192 -131q-43 -47 -86 -99q-35 -41 -41 -41q-8 0 -8 13q2 6 12 19t86 100q145 163 233 163q91 0 91 -110q0 -76 -98.5 -226.5t-98.5 -171.5q0 -32 29 -32q86 0 280 215q180 198 236 313zM431 -66q-209 -135 -293 -202 q-207 -166 -207 -269q0 -77 61 -77q181 0 443 548h-4z" />
<glyph unicode="z" horiz-adv-x="700" d="M422 172v-12q0 -23 -16 -51q-37 -64 -37 -68q0 -16 21 -16q45 0 192 155q117 123 115 123q4 0 7 -1t4 -3t1 -4q0 -10 -106 -127q-154 -168 -218 -168q-40 0 -69 28.5t-29 69.5q0 17 12 39q29 51 29 60q0 16 -29 16q-41 0 -145 -60.5t-121 -95.5q-43 -57 -65 -57 q-29 0 -29 20q0 27 39 54l63 37l230 190q131 109 229 174l-4 4q-115 -61 -188 -61q-45 0 -119 45q-80 -66 -156 -164q-16 -20 -24 -20l-4 16l67 76q68 75 105 104q-13 19 -13 41q0 53 62 53q49 0 49 -41q0 -14 -12.5 -31.5t-12.5 -25.5q0 -29 74 -29q35 0 102.5 22.5 t87.5 43.5q62 61 89 61q16 0 16 -24q0 -27 -39 -47q-4 -2 -68 -31q-36 -21 -229 -184q-47 -39 -108 -84q-52 -37 -56 -43l8 -4q134 86 205 86q78 0 90 -66z" />
<glyph unicode="{" horiz-adv-x="1216" d="M515 238l-180 -361q-61 -123 -61 -172q0 -24 28.5 -44.5t69.5 -20.5l-12 -50q-88 0 -127 13q-70 22 -70 90q0 35 14 82q11 35 43 114l189 377q53 107 53 148q0 67 -86 98q109 29 170 84q55 51 109 158l188 381q78 155 172 223q102 72 266 72l-24 -50q-99 0 -168 -63 q-58 -51 -119 -174l-180 -357q-62 -120 -117 -176q-72 -69 -186 -98q86 -27 86 -102q0 -58 -58 -172z" />
<glyph unicode="|" horiz-adv-x="540" d="M274 0v1233h61v-1233h-61z" />
<glyph unicode="}" horiz-adv-x="1216" d="M668 786l180 357q58 112 58 172q0 65 -99 65l13 50q90 0 127 -13q69 -20 69 -90q0 -82 -57 -197l-189 -376q-53 -107 -53 -148q0 -61 86 -94q-106 -27 -170 -86q-55 -51 -108 -160l-189 -381q-78 -155 -172 -223q-102 -72 -266 -72l29 50q168 0 286 237l181 361 q63 129 116 178q68 63 183 92l4 4q-90 29 -90 98q0 56 61 176z" />
<glyph unicode="~" horiz-adv-x="970" d="M708 356l41 -41q-35 -45 -59 -63q-39 -31 -84 -31t-115 39q-31 16 -57 27q-35 12 -70 12q-61 0 -94 -86l-41 41q49 98 139 98q45 0 103 -26q71 -33 92 -39q28 -13 47 -13q31 0 55 25q4 4 43 57z" />
<glyph unicode="&#xa8;" horiz-adv-x="1024" />
<glyph unicode="&#xa9;" horiz-adv-x="1772" />
<glyph unicode="&#xaa;" d="M651 557l99 4q-60 -72 -168 -252q-127 -209 -127 -256q0 -28 32 -28q80 0 291 245l33 33q8 0 9 -4t3 -8q-14 -17 -41 -47l-73 -80q-160 -164 -226 -164q-90 0 -90 143v37q-80 -80 -121 -112q-84 -68 -133 -68q-127 0 -127 188q0 54 8 95l-12 -4l-8 8q4 10 33 45 q78 98 184 164q123 73 234 73q90 0 90 -98q0 -35 -9 -57l5 -4l67 116q19 29 47 31zM94 90q0 -65 45 -65q101 0 240 174q137 168 137 272q0 74 -65 74q-115 0 -240 -172q-117 -162 -117 -283z" />
<glyph unicode="&#xad;" d="M667 324l-24 -78h-451l25 78h450z" />
<glyph unicode="&#xae;" horiz-adv-x="1770" />
<glyph unicode="&#xb2;" horiz-adv-x="946" d="M376 664q0 -95 90 -95q66 0 133 80q57 66 84 142q12 30 25 55q2 4 8 14q12 -8 12 -12q0 -103 -76 -205q-82 -106 -182 -106q-119 0 -119 118q0 125 115 222q111 90 238 90q221 0 221 -189q0 -182 -182 -297q-209 -100 -330 -170q-51 -28 -131 -90q-103 -78 -103 -102 l-4 -8l4 4q23 22 66 51q78 51 139 51q123 0 123 -119q0 -65 49 -65q64 0 201 168q14 18 45 49q8 -8 8 -12q-16 -29 -26.5 -43.5t-71.5 -83.5q-53 -60 -96 -88q-54 -35 -109 -35q-111 0 -121 102q-8 82 -47 82q-37 0 -98 -45q-51 -37 -82 -74l-39 -50q-21 -28 -27 -28 q-12 0 -12 17q0 20 29 74q61 112 254 243l262 178q80 56 141 150q68 104 68 190q0 115 -136 115q-114 0 -215 -80q-108 -86 -108 -198z" />
<glyph unicode="&#xb3;" horiz-adv-x="946" d="M934 811q0 -137 -191 -229l-170 -78q193 -6 193 -168q0 -141 -136 -248q-127 -100 -270 -100q-217 0 -217 176q0 35 21.5 66.5t56.5 31.5q61 0 61 -57q0 -53 -65 -74q-29 -8 -29 -33q0 -86 143 -86q115 0 229.5 134.5t114.5 250.5q0 78 -90 78q-53 0 -151 -53 q-12 0 -12 16q0 8 30 23q78 37 133 71q258 164 258 316q0 94 -106 94q-96 0 -188 -65q-103 -72 -103 -164q0 -25 20.5 -41.5t41.5 -16.5q94 0 196 160q8 16 14 33q13 24 19 24q4 -12 4 -16v-12q0 -76 -68.5 -144.5t-144.5 -68.5q-106 0 -106 90q0 98 116 176q105 70 207 70 q80 0 134.5 -39t54.5 -117z" />
<glyph unicode="&#xb4;" horiz-adv-x="1024" />
<glyph unicode="&#xb6;" horiz-adv-x="1024" d="M929 1435v-70h-127v-1365h-82v1365h-166v-1365h-84v738q-174 8 -275.5 102.5t-101.5 245.5q0 157 107.5 253t285.5 96h443z" />
<glyph unicode="&#xb9;" horiz-adv-x="946" d="M274 0l389 598q125 190 180 291l-4 4q-213 -229 -426 -393l-90 -70q-54 -41 -66 -41q-8 0 -8 12q0 7 53 48q131 98 238 190q139 119 295 281q45 47 53 47q12 0 12 -21q0 -37 -252 -530q-110 -217 -219 -404q-76 0 -155 -12z" />
<glyph unicode="&#xba;" horiz-adv-x="700" d="M578 430q0 -139 -119 -258l20 -4q103 0 193 102l33 33q4 0 7 -1t4 -3t1 -4t-2 -6q-66 -88 -142 -121q-55 -25 -110 -25q-17 0 -29 4q-119 -147 -262 -147q-127 0 -127 184q0 45 12 107q0 4 -1 7t-3 4t-4 1q-12 0 -37 -33l-12 9q0 18 119 131q168 159 336 159 q123 0 123 -139zM532 455q0 37 -17 63.5t-52 26.5q-119 0 -232 -166q-104 -152 -104 -277q0 -77 53 -77q131 0 246 151q106 141 106 279z" />
<glyph unicode="&#xbc;" horiz-adv-x="1780" />
<glyph unicode="&#xbd;" horiz-adv-x="1780" />
<glyph unicode="&#xbe;" horiz-adv-x="1780" />
<glyph unicode="&#xc0;" horiz-adv-x="3495" d="M2504 748q217 0 436 -48q-407 -397 -756 -591q-432 -242 -909 -265q-176 -8 -319 19q8 254 202 444q127 -43 291 -43q219 0 428 70q225 76 375 215q96 88 141 196q29 3 56 3h55zM1558 1343q563 0 774 -223q76 -80 76 -194q0 -74 -29 -144q-377 -16 -701.5 -130.5 t-515.5 -305.5q-268 80 -288 258q10 45 16 92q-16 13 -27 -34q-10 -39 -8 -62q17 -190 275 -285q-189 -206 -197 -452q-297 53 -469 207q-192 168 -192 432q0 243 194 446q178 185 479 291q293 104 611 104h2zM1187 340q186 176 504 283q305 104 669 120q-98 -190 -382 -311 q-277 -117 -576 -117q-102 0 -215 23v2zM4687 1978q-109 0 -252 -90q-110 -71 -209 -172q-221 -229 -409 -508q-158 -24 -295 -28q127 137 391 401q131 119 299 231q330 218 620 211q76 -2 127 -36q60 -39 60 -111q0 -94 -115 -203q-137 -131 -405 -262q-222 -108 -545 -180 l88 137l88 127q84 125 152 205q219 260 415 260q-18 0 62 -12q6 0 8 6q10 24 -78 24h-2zM2946 25q29 6 66 28q307 178 536 516q82 119 199 316l192 317q324 58 572 172q270 125 412 268q120 123 120 234q0 162 -211 168q-229 8 -497 -127q-410 -205 -922 -739 q-584 14 -805 274q-80 92 -80 221q0 174 146 281q129 94 309 96q117 2 213 -33q121 -43 164 -131q29 -59 22 -61q9 0 9 22q0 60 -74 125.5t-205 91.5q-63 13 -129 13q-143 0 -262 -56q-133 -61 -199 -174q-43 -73 -43 -168q0 -252 295 -391q246 -119 623 -129l-215 -215 l-209 -203q-217 45 -455 45h-57q-37 -2 -55 -2q22 72 22 142q0 237 -270 377q-246 124 -600 124q-500 0 -897 -260q-185 -120 -291 -284q-121 -183 -121 -383q0 -279 199 -457q176 -160 485 -213q2 -262 182 -434q156 -152 424 -217q174 -41 355 -47q432 -13 765 145 q320 154 314 344q-2 92 -82 160q-27 18 -31 10q-4 -4 19 -22q43 -45 45 -134q6 -186 -293 -337q-311 -156 -737 -144q-381 12 -641 178q-291 187 -299 494q77 -12 157 -16q74 -5 162 0q561 24 1008 268q354 192 761 600q289 -74 347 -139v2q-19 96 -316 174l117 116l211 216 l108 112q113 0 297 23q-108 -164 -166 -260l-182 -304q-231 -385 -469 -546q-26 -19 -84 -43q-28 0 -78 4q-59 6 -75 6q-93 4 -93 -25q0 -43 89 -43q77 0 151 19q27 0 83 -13.5t93 -13.5q178 0 309 105q62 49 113 100q14 14 14 20q0 2 -2 4.5t-4 2.5l-20 -16l-96 -79 q-101 -82 -267 -82q-110 0 -176 5v2zM3948.5 2358q-16.5 -14 -16.5 -31q0 -59 110.5 -174.5t163.5 -115.5q6 2 8 8q-94 88 -108 108q-35 49 -62 150q-18 69 -63 69q-16 0 -32.5 -14z" />
<glyph unicode="&#xc1;" horiz-adv-x="3495" d="M2504 748q217 0 436 -48q-407 -397 -756 -591q-432 -242 -909 -265q-176 -8 -319 19q8 254 202 444q127 -43 291 -43q219 0 428 70q225 76 375 215q96 88 141 196q29 3 56 3h55zM1558 1343q563 0 774 -223q76 -80 76 -194q0 -74 -29 -144q-377 -16 -701.5 -130.5 t-515.5 -305.5q-268 80 -288 258q10 45 16 92q-16 13 -27 -34q-10 -39 -8 -62q17 -190 275 -285q-189 -206 -197 -452q-297 53 -469 207q-192 168 -192 432q0 243 194 446q178 185 479 291q293 104 611 104h2zM1187 340q186 176 504 283q305 104 669 120q-98 -190 -382 -311 q-277 -117 -576 -117q-102 0 -215 23v2zM4687 1978q-109 0 -252 -90q-110 -71 -209 -172q-221 -229 -409 -508q-158 -24 -295 -28q127 137 391 401q131 119 299 231q330 218 620 211q76 -2 127 -36q60 -39 60 -111q0 -94 -115 -203q-137 -131 -405 -262q-222 -108 -545 -180 l88 137l88 127q84 125 152 205q219 260 415 260q-18 0 62 -12q6 0 8 6q10 24 -78 24h-2zM2946 25q29 6 66 28q307 178 536 516q82 119 199 316l192 317q324 58 572 172q270 125 412 268q120 123 120 234q0 162 -211 168q-229 8 -497 -127q-410 -205 -922 -739 q-584 14 -805 274q-80 92 -80 221q0 174 146 281q129 94 309 96q117 2 213 -33q121 -43 164 -131q29 -59 22 -61q9 0 9 22q0 60 -74 125.5t-205 91.5q-63 13 -129 13q-143 0 -262 -56q-133 -61 -199 -174q-43 -73 -43 -168q0 -252 295 -391q246 -119 623 -129l-215 -215 l-209 -203q-217 45 -455 45h-57q-37 -2 -55 -2q22 72 22 142q0 237 -270 377q-246 124 -600 124q-500 0 -897 -260q-185 -120 -291 -284q-121 -183 -121 -383q0 -279 199 -457q176 -160 485 -213q2 -262 182 -434q156 -152 424 -217q174 -41 355 -47q432 -13 765 145 q320 154 314 344q-2 92 -82 160q-27 18 -31 10q-4 -4 19 -22q43 -45 45 -134q6 -186 -293 -337q-311 -156 -737 -144q-381 12 -641 178q-291 187 -299 494q77 -12 157 -16q74 -5 162 0q561 24 1008 268q354 192 761 600q289 -74 347 -139v2q-19 96 -316 174l117 116l211 216 l108 112q113 0 297 23q-108 -164 -166 -260l-182 -304q-231 -385 -469 -546q-26 -19 -84 -43q-28 0 -78 4q-59 6 -75 6q-93 4 -93 -25q0 -43 89 -43q77 0 151 19q27 0 83 -13.5t93 -13.5q178 0 309 105q62 49 113 100q14 14 14 20q0 2 -2 4.5t-4 2.5l-20 -16l-96 -79 q-101 -82 -267 -82q-110 0 -176 5v2zM4365 2372q-45 0 -63 -69q-27 -101 -62 -150q-14 -20 -108 -108q2 -6 8 -8q53 0 163.5 115.5t110.5 174.5q0 17 -16 31t-33 14z" />
<glyph unicode="&#xc2;" horiz-adv-x="3495" d="M2504 748q217 0 436 -48q-407 -397 -756 -591q-432 -242 -909 -265q-176 -8 -319 19q8 254 202 444q127 -43 291 -43q219 0 428 70q225 76 375 215q96 88 141 196q29 3 56 3h55zM1558 1343q563 0 774 -223q76 -80 76 -194q0 -74 -29 -144q-377 -16 -701.5 -130.5 t-515.5 -305.5q-268 80 -288 258q10 45 16 92q-16 13 -27 -34q-10 -39 -8 -62q17 -190 275 -285q-189 -206 -197 -452q-297 53 -469 207q-192 168 -192 432q0 243 194 446q178 185 479 291q293 104 611 104h2zM1187 340q186 176 504 283q305 104 669 120q-98 -190 -382 -311 q-277 -117 -576 -117q-102 0 -215 23v2zM4687 1978q-109 0 -252 -90q-110 -71 -209 -172q-221 -229 -409 -508q-158 -24 -295 -28q127 137 391 401q131 119 299 231q330 218 620 211q76 -2 127 -36q60 -39 60 -111q0 -94 -115 -203q-137 -131 -405 -262q-222 -108 -545 -180 l88 137l88 127q84 125 152 205q219 260 415 260q-18 0 62 -12q6 0 8 6q10 24 -78 24h-2zM2946 25q29 6 66 28q307 178 536 516q82 119 199 316l192 317q324 58 572 172q270 125 412 268q120 123 120 234q0 162 -211 168q-229 8 -497 -127q-410 -205 -922 -739 q-584 14 -805 274q-80 92 -80 221q0 174 146 281q129 94 309 96q117 2 213 -33q121 -43 164 -131q29 -59 22 -61q9 0 9 22q0 60 -74 125.5t-205 91.5q-63 13 -129 13q-143 0 -262 -56q-133 -61 -199 -174q-43 -73 -43 -168q0 -252 295 -391q246 -119 623 -129l-215 -215 l-209 -203q-217 45 -455 45h-57q-37 -2 -55 -2q22 72 22 142q0 237 -270 377q-246 124 -600 124q-500 0 -897 -260q-185 -120 -291 -284q-121 -183 -121 -383q0 -279 199 -457q176 -160 485 -213q2 -262 182 -434q156 -152 424 -217q174 -41 355 -47q432 -13 765 145 q320 154 314 344q-2 92 -82 160q-27 18 -31 10q-4 -4 19 -22q43 -45 45 -134q6 -186 -293 -337q-311 -156 -737 -144q-381 12 -641 178q-291 187 -299 494q77 -12 157 -16q74 -5 162 0q561 24 1008 268q354 192 761 600q289 -74 347 -139v2q-19 96 -316 174l117 116l211 216 l108 112q113 0 297 23q-108 -164 -166 -260l-182 -304q-231 -385 -469 -546q-26 -19 -84 -43q-28 0 -78 4q-59 6 -75 6q-93 4 -93 -25q0 -43 89 -43q77 0 151 19q27 0 83 -13.5t93 -13.5q178 0 309 105q62 49 113 100q14 14 14 20q0 2 -2 4.5t-4 2.5l-20 -16l-96 -79 q-101 -82 -267 -82q-110 0 -176 5v2zM4483 2351l28 4q23 -94 80 -191q12 -22 55 -88l-4 -2q-20 0 -86 78l-78 98q-43 -36 -131 -98q-108 -78 -131 -78l-8 2q189 156 275 275z" />
<glyph unicode="&#xc3;" horiz-adv-x="3495" d="M2504 748q217 0 436 -48q-407 -397 -756 -591q-432 -242 -909 -265q-176 -8 -319 19q8 254 202 444q127 -43 291 -43q219 0 428 70q225 76 375 215q96 88 141 196q29 3 56 3h55zM1558 1343q563 0 774 -223q76 -80 76 -194q0 -74 -29 -144q-377 -16 -701.5 -130.5 t-515.5 -305.5q-268 80 -288 258q10 45 16 92q-16 13 -27 -34q-10 -39 -8 -62q17 -190 275 -285q-189 -206 -197 -452q-297 53 -469 207q-192 168 -192 432q0 243 194 446q178 185 479 291q293 104 611 104h2zM1187 340q186 176 504 283q305 104 669 120q-98 -190 -382 -311 q-277 -117 -576 -117q-102 0 -215 23v2zM4687 1978q-109 0 -252 -90q-110 -71 -209 -172q-221 -229 -409 -508q-158 -24 -295 -28q127 137 391 401q131 119 299 231q330 218 620 211q76 -2 127 -36q60 -39 60 -111q0 -94 -115 -203q-137 -131 -405 -262q-222 -108 -545 -180 l88 137l88 127q84 125 152 205q219 260 415 260q-18 0 62 -12q6 0 8 6q10 24 -78 24h-2zM2946 25q29 6 66 28q307 178 536 516q82 119 199 316l192 317q324 58 572 172q270 125 412 268q120 123 120 234q0 162 -211 168q-229 8 -497 -127q-410 -205 -922 -739 q-584 14 -805 274q-80 92 -80 221q0 174 146 281q129 94 309 96q117 2 213 -33q121 -43 164 -131q29 -59 22 -61q9 0 9 22q0 60 -74 125.5t-205 91.5q-63 13 -129 13q-143 0 -262 -56q-133 -61 -199 -174q-43 -73 -43 -168q0 -252 295 -391q246 -119 623 -129l-215 -215 l-209 -203q-217 45 -455 45h-57q-37 -2 -55 -2q22 72 22 142q0 237 -270 377q-246 124 -600 124q-500 0 -897 -260q-185 -120 -291 -284q-121 -183 -121 -383q0 -279 199 -457q176 -160 485 -213q2 -262 182 -434q156 -152 424 -217q174 -41 355 -47q432 -13 765 145 q320 154 314 344q-2 92 -82 160q-27 18 -31 10q-4 -4 19 -22q43 -45 45 -134q6 -186 -293 -337q-311 -156 -737 -144q-381 12 -641 178q-291 187 -299 494q77 -12 157 -16q74 -5 162 0q561 24 1008 268q354 192 761 600q289 -74 347 -139v2q-19 96 -316 174l117 116l211 216 l108 112q113 0 297 23q-108 -164 -166 -260l-182 -304q-231 -385 -469 -546q-26 -19 -84 -43q-28 0 -78 4q-59 6 -75 6q-93 4 -93 -25q0 -43 89 -43q77 0 151 19q27 0 83 -13.5t93 -13.5q178 0 309 105q62 49 113 100q14 14 14 20q0 2 -2 4.5t-4 2.5l-20 -16l-96 -79 q-101 -82 -267 -82q-110 0 -176 5v2zM4182 2178q-33 -51 -33 -82q0 -16 8 -16q33 40 50 63q26 27 65 27q45 0 133 -35t142 -35q98 0 143 96q16 35 16 56q0 4 -8 12l-33 -45q-32 -45 -86 -45q-45 0 -143 37q-57 20 -76 24q-47 12 -71 12q-62 0 -107 -69z" />
<glyph unicode="&#xc4;" horiz-adv-x="3495" d="M2504 748q217 0 436 -48q-407 -397 -756 -591q-432 -242 -909 -265q-176 -8 -319 19q8 254 202 444q127 -43 291 -43q219 0 428 70q225 76 375 215q96 88 141 196q29 3 56 3h55zM1558 1343q563 0 774 -223q76 -80 76 -194q0 -74 -29 -144q-377 -16 -701.5 -130.5 t-515.5 -305.5q-268 80 -288 258q10 45 16 92q-16 13 -27 -34q-10 -39 -8 -62q17 -190 275 -285q-189 -206 -197 -452q-297 53 -469 207q-192 168 -192 432q0 243 194 446q178 185 479 291q293 104 611 104h2zM1187 340q186 176 504 283q305 104 669 120q-98 -190 -382 -311 q-277 -117 -576 -117q-102 0 -215 23v2zM4687 1978q-109 0 -252 -90q-110 -71 -209 -172q-221 -229 -409 -508q-158 -24 -295 -28q127 137 391 401q131 119 299 231q330 218 620 211q76 -2 127 -36q60 -39 60 -111q0 -94 -115 -203q-137 -131 -405 -262q-222 -108 -545 -180 l88 137l88 127q84 125 152 205q219 260 415 260q-18 0 62 -12q6 0 8 6q10 24 -78 24h-2zM2946 25q29 6 66 28q307 178 536 516q82 119 199 316l192 317q324 58 572 172q270 125 412 268q120 123 120 234q0 162 -211 168q-229 8 -497 -127q-410 -205 -922 -739 q-584 14 -805 274q-80 92 -80 221q0 174 146 281q129 94 309 96q117 2 213 -33q121 -43 164 -131q29 -59 22 -61q9 0 9 22q0 60 -74 125.5t-205 91.5q-63 13 -129 13q-143 0 -262 -56q-133 -61 -199 -174q-43 -73 -43 -168q0 -252 295 -391q246 -119 623 -129l-215 -215 l-209 -203q-217 45 -455 45h-57q-37 -2 -55 -2q22 72 22 142q0 237 -270 377q-246 124 -600 124q-500 0 -897 -260q-185 -120 -291 -284q-121 -183 -121 -383q0 -279 199 -457q176 -160 485 -213q2 -262 182 -434q156 -152 424 -217q174 -41 355 -47q432 -13 765 145 q320 154 314 344q-2 92 -82 160q-27 18 -31 10q-4 -4 19 -22q43 -45 45 -134q6 -186 -293 -337q-311 -156 -737 -144q-381 12 -641 178q-291 187 -299 494q77 -12 157 -16q74 -5 162 0q561 24 1008 268q354 192 761 600q289 -74 347 -139v2q-19 96 -316 174l117 116l211 216 l108 112q113 0 297 23q-108 -164 -166 -260l-182 -304q-231 -385 -469 -546q-26 -19 -84 -43q-28 0 -78 4q-59 6 -75 6q-93 4 -93 -25q0 -43 89 -43q77 0 151 19q27 0 83 -13.5t93 -13.5q178 0 309 105q62 49 113 100q14 14 14 20q0 2 -2 4.5t-4 2.5l-19 -15l-97 -80 q-101 -82 -267 -82q-110 0 -176 5v2z" />
<glyph unicode="&#xc8;" horiz-adv-x="1785" d="M1379 793q-206 0 -378 -131q-179 -134 -179 -297q0 -78 50.5 -128.5t128.5 -52.5q32 -2 78.5 12.5t64.5 36.5q6 9 2 13q-2 0 -25 -15q-63 -28 -112 -24q-133 10 -133 139q0 137 94 248q86 98 225 145q88 31 178 31q158 0 240 -100q37 -45 49 -105q12 -57 -2 -121 q-53 -239 -283 -428q-243 -200 -516 -209q-241 -8 -358 140q-57 69 -76 170q-47 260 119 534q154 254 399 396q103 57 187 81q71 -124 264 -139q53 -4 96 10q57 21 62 66q10 84 -131 109q-44 6 -93 6q-55 0 -123 -13q-6 27 -8 66q-2 29 2 65q9 80 35 146q162 -29 332 -29 q115 0 203 19q28 -95 134.5 -143t248.5 -38q137 9 237 76q115 78 137 203q31 172 -122 276q-162 109 -449 103q-381 -8 -651 -236q-88 -73 -142 -166q-251 74 -391 183q-239 182 -239 415q0 142 86 252q84 105 221 150q92 31 199 31q210 0 364 -117q176 -135 176 -297 q0 -10 6 -10q11 0 11 32q0 172 -179 301q-163 119 -374 119q-164 0 -297 -74q-142 -77 -207 -217q-41 -90 -41 -194q0 -205 168 -371q143 -141 360 -213q58 -20 115 -37q-31 -65 -41 -159q-8 -78 20 -154q-221 -59 -415 -201q-238 -172 -353 -413q-41 -89 -57 -181 q-47 -280 125 -436q158 -145 434 -137q223 6 428 106.5t336 274.5q82 108 107 229q18 90 0 166q-29 117 -129 178q-91 58 -215 58h-3zM1257 1489q94 174 291.5 283.5t410.5 115.5q281 6 432 -94q144 -98 117 -256q-14 -90 -115.5 -161.5t-236.5 -80.5q-117 -8 -209 19 q-125 35 -154 123q236 49 252 149q6 37 -18.5 58.5t-61.5 21.5q-74 0 -133 -55q-67 -66 -63 -154q-80 -12 -127 -12q-205 0 -385 41v2zM1961 1649q74 0 62 -62q-9 -43 -101 -84q-63 -26 -131 -41q-2 56 29 105t82 69q30 13 57 13h2zM1330 1159q142 0 189 -51q14 -18 10 -43 q-10 -66 -127 -55q-156 14 -188 137q61 12 114 12h2zM1668.5 2358q-16.5 -14 -16.5 -31q0 -59 110.5 -174.5t163.5 -115.5q6 2 8 8q-94 88 -108 108q-35 49 -62 150q-18 69 -63 69q-16 0 -32.5 -14z" />
<glyph unicode="&#xc9;" horiz-adv-x="1785" d="M1379 793q-206 0 -378 -131q-179 -134 -179 -297q0 -78 50.5 -128.5t128.5 -52.5q32 -2 78.5 12.5t64.5 36.5q6 9 2 13q-2 0 -25 -15q-63 -28 -112 -24q-133 10 -133 139q0 137 94 248q86 98 225 145q88 31 178 31q158 0 240 -100q37 -45 49 -105q12 -57 -2 -121 q-53 -239 -283 -428q-243 -200 -516 -209q-241 -8 -358 140q-57 69 -76 170q-47 260 119 534q154 254 399 396q103 57 187 81q71 -124 264 -139q53 -4 96 10q57 21 62 66q10 84 -131 109q-44 6 -93 6q-55 0 -123 -13q-6 27 -8 66q-2 29 2 65q9 80 35 146q162 -29 332 -29 q115 0 203 19q28 -95 134.5 -143t248.5 -38q137 9 237 76q115 78 137 203q31 172 -122 276q-162 109 -449 103q-381 -8 -651 -236q-88 -73 -142 -166q-251 74 -391 183q-239 182 -239 415q0 142 86 252q84 105 221 150q92 31 199 31q210 0 364 -117q176 -135 176 -297 q0 -10 6 -10q11 0 11 32q0 172 -179 301q-163 119 -374 119q-164 0 -297 -74q-142 -77 -207 -217q-41 -90 -41 -194q0 -205 168 -371q143 -141 360 -213q58 -20 115 -37q-31 -65 -41 -159q-8 -78 20 -154q-221 -59 -415 -201q-238 -172 -353 -413q-41 -89 -57 -181 q-47 -280 125 -436q158 -145 434 -137q223 6 428 106.5t336 274.5q82 108 107 229q18 90 0 166q-29 117 -129 178q-91 58 -215 58h-3zM1257 1489q94 174 291.5 283.5t410.5 115.5q281 6 432 -94q144 -98 117 -256q-14 -90 -115.5 -161.5t-236.5 -80.5q-117 -8 -209 19 q-125 35 -154 123q236 49 252 149q6 37 -18.5 58.5t-61.5 21.5q-74 0 -133 -55q-67 -66 -63 -154q-80 -12 -127 -12q-205 0 -385 41v2zM1961 1649q74 0 62 -62q-9 -43 -101 -84q-63 -26 -131 -41q-2 56 29 105t82 69q30 13 57 13h2zM1330 1159q142 0 189 -51q14 -18 10 -43 q-10 -66 -127 -55q-156 14 -188 137q61 12 114 12h2zM2194 2372q-45 0 -63 -69q-27 -101 -62 -150q-14 -20 -108 -108q2 -6 8 -8q53 0 163.5 115.5t110.5 174.5q0 17 -16 31t-33 14z" />
<glyph unicode="&#xca;" horiz-adv-x="1785" d="M1379 793q-206 0 -378 -131q-179 -134 -179 -297q0 -78 50.5 -128.5t128.5 -52.5q32 -2 78.5 12.5t64.5 36.5q6 9 2 13q-2 0 -25 -15q-63 -28 -112 -24q-133 10 -133 139q0 137 94 248q86 98 225 145q88 31 178 31q158 0 240 -100q37 -45 49 -105q12 -57 -2 -121 q-53 -239 -283 -428q-243 -200 -516 -209q-241 -8 -358 140q-57 69 -76 170q-47 260 119 534q154 254 399 396q103 57 187 81q71 -124 264 -139q53 -4 96 10q57 21 62 66q10 84 -131 109q-44 6 -93 6q-55 0 -123 -13q-6 27 -8 66q-2 29 2 65q9 80 35 146q162 -29 332 -29 q115 0 203 19q28 -95 134.5 -143t248.5 -38q137 9 237 76q115 78 137 203q31 172 -122 276q-162 109 -449 103q-381 -8 -651 -236q-88 -73 -142 -166q-251 74 -391 183q-239 182 -239 415q0 142 86 252q84 105 221 150q92 31 199 31q210 0 364 -117q176 -135 176 -297 q0 -10 6 -10q11 0 11 32q0 172 -179 301q-163 119 -374 119q-164 0 -297 -74q-142 -77 -207 -217q-41 -90 -41 -194q0 -205 168 -371q143 -141 360 -213q58 -20 115 -37q-31 -65 -41 -159q-8 -78 20 -154q-221 -59 -415 -201q-238 -172 -353 -413q-41 -89 -57 -181 q-47 -280 125 -436q158 -145 434 -137q223 6 428 106.5t336 274.5q82 108 107 229q18 90 0 166q-29 117 -129 178q-91 58 -215 58h-3zM1257 1489q94 174 291.5 283.5t410.5 115.5q281 6 432 -94q144 -98 117 -256q-14 -90 -115.5 -161.5t-236.5 -80.5q-117 -8 -209 19 q-125 35 -154 123q236 49 252 149q6 37 -18.5 58.5t-61.5 21.5q-74 0 -133 -55q-67 -66 -63 -154q-80 -12 -127 -12q-205 0 -385 41v2zM1961 1649q74 0 62 -62q-9 -43 -101 -84q-63 -26 -131 -41q-2 56 29 105t82 69q30 13 57 13h2zM1330 1159q142 0 189 -51q14 -18 10 -43 q-10 -66 -127 -55q-156 14 -188 137q61 12 114 12h2zM1754 1995l8 -2q23 0 131 78q88 62 131 98l78 -98q66 -78 86 -78l4 2q-43 66 -55 88q-57 97 -80 191l-28 -4q-86 -119 -275 -275z" />
<glyph unicode="&#xcb;" horiz-adv-x="1785" d="M1379 793q-206 0 -378 -131q-179 -134 -179 -297q0 -78 50.5 -128.5t128.5 -52.5q32 -2 78.5 12.5t64.5 36.5q6 9 2 13q-2 0 -25 -15q-63 -28 -112 -24q-133 10 -133 139q0 137 94 248q86 98 225 145q88 31 178 31q158 0 240 -100q37 -45 49 -105q12 -57 -2 -121 q-53 -239 -283 -428q-243 -200 -516 -209q-241 -8 -358 140q-57 69 -76 170q-47 260 119 534q154 254 399 396q103 57 187 81q71 -124 264 -139q53 -4 96 10q57 21 62 66q10 84 -131 109q-44 6 -93 6q-55 0 -123 -13q-6 27 -8 66q-2 29 2 65q9 80 35 146q162 -29 332 -29 q115 0 203 19q28 -95 134.5 -143t248.5 -38q137 9 237 76q115 78 137 203q31 172 -122 276q-162 109 -449 103q-381 -8 -651 -236q-88 -73 -142 -166q-251 74 -391 183q-239 182 -239 415q0 142 86 252q84 105 221 150q92 31 199 31q210 0 364 -117q176 -135 176 -297 q0 -10 6 -10q11 0 11 32q0 172 -179 301q-163 119 -374 119q-164 0 -297 -74q-142 -77 -207 -217q-41 -90 -41 -194q0 -205 168 -371q143 -141 360 -213q58 -20 115 -37q-31 -65 -41 -159q-8 -78 20 -154q-221 -59 -415 -201q-238 -172 -353 -413q-41 -89 -57 -181 q-47 -280 125 -436q158 -145 434 -137q223 6 428 106.5t336 274.5q82 108 107 229q18 90 0 166q-29 117 -129 178q-91 58 -215 58h-3zM1257 1489q94 174 291.5 283.5t410.5 115.5q281 6 432 -94q144 -98 117 -256q-14 -90 -115.5 -161.5t-236.5 -80.5q-117 -8 -209 19 q-125 35 -154 123q236 49 252 149q6 37 -18.5 58.5t-61.5 21.5q-74 0 -133 -55q-67 -66 -63 -154q-80 -12 -127 -12q-205 0 -385 41v2zM1961 1649q74 0 62 -62q-9 -43 -101 -84q-63 -26 -131 -41q-2 56 29 105t82 69q30 13 57 13h2zM1330 1159q142 0 189 -51q14 -18 10 -43 q-10 -66 -127 -55q-156 14 -188 137q61 12 114 12h2z" />
<glyph unicode="&#xcc;" horiz-adv-x="3307" d="M2479 1020q-90 0 -166 33q-96 41 -112 114q274 -24 413 -141q-41 -6 -133 -6h-2zM1140 -119q180 0 264 6q586 43 985 299q393 250 393 582q0 123 -71 213q352 63 764 311q157 94 387 250l381 258q172 113 339 203q46 25 72 37v-2q-233 -131 -530 -463 q-133 -148 -305 -367l-189 -241l-239 -310q-453 -581 -1092 -798q-223 -76 -471 -90q-422 -25 -688 110v2zM1009 -90q-357 27 -539 168q-147 110 -147 252q0 153 125 254q102 86 266 118q108 21 217 23q-146 -174 -146 -393q0 -264 224 -420v-2zM2479 963q109 0 180 10 q72 -84 72 -203q0 -332 -393 -580q-438 -276 -1084 -286q-77 0 -147 4q-236 149 -236 424q0 137 46 239q34 80 94 152q203 -10 315 -80q51 -31 82 -78q21 -33 23 -33q18 9 -23 60t-72 70q-116 73 -313 81q160 189 430 303.5t520 127.5q49 2 109 2q51 -2 98 -7 q12 -106 105 -159q79 -47 192 -47h2zM253 330q0 -164 170 -283q205 -147 614 -166q142 -86 349 -119q100 -16 210 -22q107 -4 226 4q571 39 985 276q436 250 842 787l630 827q129 156 250 273q78 75 134.5 109t158.5 69q78 26 78 61q0 6 -4 12.5t-12 6.5q-29 0 -70 -19 q-88 -39 -135 -75q-195 -89 -432 -240q-78 -49 -410 -275q-197 -135 -383 -239q-287 -160 -575 -242q-111 -31 -209 -43q-156 137 -471 162q0 72 36 131q17 21 15 23q-8 8 -29 -25q-18 -25 -26 -41q-15 -33 -17 -86q-125 2 -205 0q-258 -8 -551 -131q-311 -129 -475 -320 q-266 0 -465 -98q-229 -115 -229 -315v-2zM4140.5 2358q-16.5 -14 -16.5 -31q0 -59 110.5 -174.5t163.5 -115.5q6 2 8 8q-94 88 -108 108q-35 49 -62 150q-18 69 -63 69q-16 0 -32.5 -14z" />
<glyph unicode="&#xcd;" horiz-adv-x="3307" d="M2479 1020q-90 0 -166 33q-96 41 -112 114q274 -24 413 -141q-41 -6 -133 -6h-2zM1140 -119q180 0 264 6q586 43 985 299q393 250 393 582q0 123 -71 213q352 63 764 311q157 94 387 250l381 258q172 113 339 203q46 25 72 37v-2q-233 -131 -530 -463 q-133 -148 -305 -367l-189 -241l-239 -310q-453 -581 -1092 -798q-223 -76 -471 -90q-422 -25 -688 110v2zM1009 -90q-357 27 -539 168q-147 110 -147 252q0 153 125 254q102 86 266 118q108 21 217 23q-146 -174 -146 -393q0 -264 224 -420v-2zM2479 963q109 0 180 10 q72 -84 72 -203q0 -332 -393 -580q-438 -276 -1084 -286q-77 0 -147 4q-236 149 -236 424q0 137 46 239q34 80 94 152q203 -10 315 -80q51 -31 82 -78q21 -33 23 -33q18 9 -23 60t-72 70q-116 73 -313 81q160 189 430 303.5t520 127.5q49 2 109 2q51 -2 98 -7 q12 -106 105 -159q79 -47 192 -47h2zM253 330q0 -164 170 -283q205 -147 614 -166q142 -86 349 -119q100 -16 210 -22q107 -4 226 4q571 39 985 276q436 250 842 787l630 827q129 156 250 273q78 75 134.5 109t158.5 69q78 26 78 61q0 6 -4 12.5t-12 6.5q-29 0 -70 -19 q-88 -39 -135 -75q-195 -89 -432 -240q-78 -49 -410 -275q-197 -135 -383 -239q-287 -160 -575 -242q-111 -31 -209 -43q-156 137 -471 162q0 72 36 131q17 21 15 23q-8 8 -29 -25q-18 -25 -26 -41q-15 -33 -17 -86q-125 2 -205 0q-258 -8 -551 -131q-311 -129 -475 -320 q-266 0 -465 -98q-229 -115 -229 -315v-2zM4433 2372q-45 0 -63 -69q-27 -101 -62 -150q-14 -20 -108 -108q2 -6 8 -8q53 0 163.5 115.5t110.5 174.5q0 17 -16 31t-33 14z" />
<glyph unicode="&#xce;" horiz-adv-x="3307" d="M6345 2287h-82l-188 319l-135 -319h-80l174 418h62zM2479 1020q-90 0 -166 33q-96 41 -112 114q274 -24 413 -141q-41 -6 -133 -6h-2zM1140 -119q180 0 264 6q586 43 985 299q393 250 393 582q0 123 -71 213q352 63 764 311q157 94 387 250l381 258q172 113 339 203 q46 25 72 37v-2q-233 -131 -530 -463q-133 -148 -305 -367l-189 -241l-239 -310q-453 -581 -1092 -798q-223 -76 -471 -90q-422 -25 -688 110v2zM1009 -90q-357 27 -539 168q-147 110 -147 252q0 153 125 254q102 86 266 118q108 21 217 23q-146 -174 -146 -393 q0 -264 224 -420v-2zM2479 963q109 0 180 10q72 -84 72 -203q0 -332 -393 -580q-438 -276 -1084 -286q-77 0 -147 4q-236 149 -236 424q0 137 46 239q34 80 94 152q203 -10 315 -80q51 -31 82 -78q21 -33 23 -33q18 9 -23 60t-72 70q-116 73 -313 81q160 189 430 303.5 t520 127.5q49 2 109 2q51 -2 98 -7q12 -106 105 -159q79 -47 192 -47h2zM253 330q0 -164 170 -283q205 -147 614 -166q142 -86 349 -119q100 -16 210 -22q107 -4 226 4q571 39 985 276q436 250 842 787l630 827q129 156 250 273q78 75 134.5 109t158.5 69q78 26 78 61 q0 6 -4 12.5t-12 6.5q-29 0 -70 -19q-88 -39 -135 -75q-195 -89 -432 -240q-78 -49 -410 -275q-197 -135 -383 -239q-287 -160 -575 -242q-111 -31 -209 -43q-156 137 -471 162q0 72 36 131q17 21 15 23q-8 8 -29 -25q-18 -25 -26 -41q-15 -33 -17 -86q-125 2 -205 0 q-258 -8 -551 -131q-311 -129 -475 -320q-266 0 -465 -98q-229 -115 -229 -315v-2z" />
<glyph unicode="&#xcf;" horiz-adv-x="3307" d="M2479 1020q-90 0 -166 33q-96 41 -112 114q274 -24 413 -141q-41 -6 -133 -6h-2zM1140 -119q180 0 264 6q586 43 985 299q393 250 393 582q0 123 -71 213q352 63 764 311q157 94 387 250l381 258q172 113 339 203q46 25 72 37v-2q-233 -131 -530 -463 q-133 -148 -305 -367l-189 -241l-239 -310q-453 -581 -1092 -798q-223 -76 -471 -90q-422 -25 -688 110v2zM1009 -90q-357 27 -539 168q-147 110 -147 252q0 153 125 254q102 86 266 118q108 21 217 23q-146 -174 -146 -393q0 -264 224 -420v-2zM2479 963q109 0 180 10 q72 -84 72 -203q0 -332 -393 -580q-438 -276 -1084 -286q-77 0 -147 4q-236 149 -236 424q0 137 46 239q34 80 94 152q203 -10 315 -80q51 -31 82 -78q21 -33 23 -33q18 9 -23 60t-72 70q-116 73 -313 81q160 189 430 303.5t520 127.5q49 2 109 2q51 -2 98 -7 q12 -106 105 -159q79 -47 192 -47h2zM253 330q0 -164 170 -283q205 -147 614 -166q142 -86 349 -119q100 -16 210 -22q107 -4 226 4q571 39 985 276q436 250 842 787l630 827q129 156 250 273q78 75 134.5 109t158.5 69q78 26 78 61q0 6 -4 12.5t-12 6.5q-29 0 -70 -19 q-88 -39 -135 -75q-195 -89 -432 -240q-78 -49 -410 -275q-197 -135 -383 -239q-287 -160 -575 -242q-111 -31 -209 -43q-156 137 -471 162q0 72 36 131q17 21 15 23q-8 8 -29 -25q-18 -25 -26 -41q-15 -33 -17 -86q-125 2 -205 0q-258 -8 -551 -131q-311 -129 -475 -320 q-266 0 -465 -98q-229 -115 -229 -315v-2z" />
<glyph unicode="&#xd1;" horiz-adv-x="3764" d="M7363 2495l41 -41q-35 -45 -59 -63q-39 -31 -84 -31t-115 39q-31 16 -57 27q-35 12 -70 12q-61 0 -94 -86l-41 41q49 98 139 98q45 0 103 -26q71 -33 92 -39q28 -13 47 -13q31 0 55 25q4 4 43 57zM3692 1249q-16 -106 -41 -305l-20 -174q-29 -278 -63 -430 q-117 -168 -195 -336q-29 -61 -35 -92q-8 -29 4 -35q19 -8 70 30t90 97q84 133 162 408q311 415 688 770q280 266 666 530q403 277 827 371q223 49 491 49q478 0 684 -213q78 -80 84 -201q15 -282 -301 -475q-295 -178 -702 -178q-383 0 -526 168q-50 57 -54 135 q-6 102 62 188q59 78 159 121q64 25 136 31q41 -6 82 -8q0 29 -82 24q-154 -8 -267 -106q-122 -107 -114 -254q8 -164 166 -262q151 -96 393 -96q287 0 547 102q299 117 442 328q90 131 82 288q-10 199 -162 328q-131 113 -340 154q-131 24 -256 24q-653 0 -1341 -481 q-674 -473 -1145 -1028q-111 -129 -203 -252l-2 2q57 211 84 461q29 274 43 461q123 237 262 393q105 18 289 67q39 17 33 50q-6 28 -49 36q-103 17 -199 -53q-53 -37 -100 -90q-172 -41 -244 -162q-66 -108 -98 -336q-387 -538 -908 -952q-710 -565 -1521 -565 q-389 0 -662 141q-325 170 -325 500q0 383 383 631q229 149 544 207q152 26 307 26q342 0 582 -104q277 -123 277 -338q0 -252 -320 -436q-299 -172 -680 -172q-325 0 -467 151q-55 57 -65 137q8 43 12 88q-18 9 -27 -37q-8 -36 -6 -57q17 -160 213 -254q170 -82 385 -82 q377 0 668 187q307 196 307 475q0 239 -268 389q-248 135 -598 135q-496 0 -877 -270q-178 -127 -280 -295q-113 -182 -113 -385q0 -266 197 -447q170 -153 448 -217q180 -39 361 -39q624 0 1206 367q422 264 815 682q217 231 403 487zM3557 285q-24 -88 -92 -254 q-47 -86 -84 -119q-16 -14 -22 -10q-9 6 34 96q78 158 162 287h2zM3807 1436l8 100q2 41 11 68q41 131 200 170h2q-125 -144 -219 -338h-2zM4084 1808q94 86 174 103q47 10 80 6q30 -4 32 -21q4 -22 -41 -36q-82 -17 -245 -54v2z" />
<glyph unicode="&#xd2;" horiz-adv-x="2895" d="M1394 260q14 172 119 395q90 201 213 361q264 348 587 600q238 184 439 239q104 27 194 9q131 -27 172 -144q17 -51 15 -108q-3 -53 -17 -107q-74 -264 -317 -532q-256 -281 -606 -465q-383 -205 -801 -248h2zM765 315q-260 86 -391 256q-141 183 -94 410q49 242 274 378 t555 132q195 -2 330 -78q-264 -264 -453 -598q-151 -268 -219 -500h-2zM802 262q192 -57 399 -57q56 0 113 4q37 -303 364 -342q218 -27 474 76q-7 -25 -7 -31q-82 -301 -315 -504q-227 -192 -506 -192q-53 0 -106 6q-244 30 -367 217q-111 164 -113 418q-2 184 62 405h2z M753 276q-66 -227 -62 -415q6 -381 246 -555q115 -84 279 -105q57 -6 112 -6q293 0 532.5 206t317.5 507q2 16 10 51q246 107 490 309q418 350 631 768q166 326 153 609q-10 233 -155 360q-140 121 -371 129q-318 10 -711 -170q-413 -186 -762 -528q-145 94 -356 96 q-348 4 -574.5 -143.5t-277.5 -405.5q-47 -242 92.5 -430t403.5 -277h2zM812 301q78 244 223 504q177 311 441 586q71 -54 100 -117q4 -10 8 -10q4 2 4 14q-2 10 -2 16q-14 72 -88 121q338 338 738 529q380 180 698 167q317 -12 428 -227q49 -100 47 -231q-4 -267 -174 -582 q-207 -383 -598 -741q-227 -207 -444 -322q6 117 -35 195q-8 12 -19 6q-2 -2 4 -19q9 -22 11 -32q12 -41 14 -80q0 -41 -6 -86q-266 -131 -481 -105q-291 37 -291 330q630 64 1155 481q313 250 479 537q82 137 117 270q14 54 16 111q2 225 -205 270q-178 39 -436 -78 q-233 -106 -481 -313q-344 -285 -535 -623q-125 -219 -170 -423q-22 -105 -18 -197q-270 -12 -498 49h-2zM2540.5 2541q-16.5 -14 -16.5 -31q0 -59 110.5 -174.5t163.5 -115.5q6 2 8 8q-94 88 -108 108q-35 49 -62 150q-18 69 -63 69q-16 0 -32.5 -14z" />
<glyph unicode="&#xd3;" horiz-adv-x="2895" d="M1394 260q14 172 119 395q90 201 213 361q264 348 587 600q238 184 439 239q104 27 194 9q131 -27 172 -144q17 -51 15 -108q-3 -53 -17 -107q-74 -264 -317 -532q-256 -281 -606 -465q-383 -205 -801 -248h2zM765 315q-260 86 -391 256q-141 183 -94 410q49 242 274 378 t555 132q195 -2 330 -78q-264 -264 -453 -598q-151 -268 -219 -500h-2zM802 262q192 -57 399 -57q56 0 113 4q37 -303 364 -342q218 -27 474 76q-7 -25 -7 -31q-82 -301 -315 -504q-227 -192 -506 -192q-53 0 -106 6q-244 30 -367 217q-111 164 -113 418q-2 184 62 405h2z M753 276q-66 -227 -62 -415q6 -381 246 -555q115 -84 279 -105q57 -6 112 -6q293 0 532.5 206t317.5 507q2 16 10 51q246 107 490 309q418 350 631 768q166 326 153 609q-10 233 -155 360q-140 121 -371 129q-318 10 -711 -170q-413 -186 -762 -528q-145 94 -356 96 q-348 4 -574.5 -143.5t-277.5 -405.5q-47 -242 92.5 -430t403.5 -277h2zM812 301q78 244 223 504q177 311 441 586q71 -54 100 -117q4 -10 8 -10q4 2 4 14q-2 10 -2 16q-14 72 -88 121q338 338 738 529q380 180 698 167q317 -12 428 -227q49 -100 47 -231q-4 -267 -174 -582 q-207 -383 -598 -741q-227 -207 -444 -322q6 117 -35 195q-8 12 -19 6q-2 -2 4 -19q9 -22 11 -32q12 -41 14 -80q0 -41 -6 -86q-266 -131 -481 -105q-291 37 -291 330q630 64 1155 481q313 250 479 537q82 137 117 270q14 54 16 111q2 225 -205 270q-178 39 -436 -78 q-233 -106 -481 -313q-344 -285 -535 -623q-125 -219 -170 -423q-22 -105 -18 -197q-270 -12 -498 49h-2zM2953 2555q-45 0 -63 -69q-27 -101 -62 -150q-14 -20 -108 -108q2 -6 8 -8q53 0 163.5 115.5t110.5 174.5q0 17 -16 31t-33 14z" />
<glyph unicode="&#xd4;" horiz-adv-x="2895" d="M1394 260q14 172 119 395q90 201 213 361q264 348 587 600q238 184 439 239q104 27 194 9q131 -27 172 -144q17 -51 15 -108q-3 -53 -17 -107q-74 -264 -317 -532q-256 -281 -606 -465q-383 -205 -801 -248h2zM765 315q-260 86 -391 256q-141 183 -94 410q49 242 274 378 t555 132q195 -2 330 -78q-264 -264 -453 -598q-151 -268 -219 -500h-2zM802 262q192 -57 399 -57q56 0 113 4q37 -303 364 -342q218 -27 474 76q-7 -25 -7 -31q-82 -301 -315 -504q-227 -192 -506 -192q-53 0 -106 6q-244 30 -367 217q-111 164 -113 418q-2 184 62 405h2z M753 276q-66 -227 -62 -415q6 -381 246 -555q115 -84 279 -105q57 -6 112 -6q293 0 532.5 206t317.5 507q2 16 10 51q246 107 490 309q418 350 631 768q166 326 153 609q-10 233 -155 360q-140 121 -371 129q-318 10 -711 -170q-413 -186 -762 -528q-145 94 -356 96 q-348 4 -574.5 -143.5t-277.5 -405.5q-47 -242 92.5 -430t403.5 -277h2zM812 301q78 244 223 504q177 311 441 586q71 -54 100 -117q4 -10 8 -10q4 2 4 14q-2 10 -2 16q-14 72 -88 121q338 338 738 529q380 180 698 167q317 -12 428 -227q49 -100 47 -231q-4 -267 -174 -582 q-207 -383 -598 -741q-227 -207 -444 -322q6 117 -35 195q-8 12 -19 6q-2 -2 4 -19q9 -22 11 -32q12 -41 14 -80q0 -41 -6 -86q-266 -131 -481 -105q-291 37 -291 330q630 64 1155 481q313 250 479 537q82 137 117 270q14 54 16 111q2 225 -205 270q-178 39 -436 -78 q-233 -106 -481 -313q-344 -285 -535 -623q-125 -219 -170 -423q-22 -105 -18 -197q-270 -12 -498 49h-2zM2682 2221l8 -2q23 0 131 78q88 62 131 98l78 -98q66 -78 86 -78l4 2q-43 66 -55 88q-57 97 -80 191l-28 -4q-86 -119 -275 -275z" />
<glyph unicode="&#xd5;" horiz-adv-x="2895" d="M1394 260q14 172 119 395q90 201 213 361q264 348 587 600q238 184 439 239q104 27 194 9q131 -27 172 -144q17 -51 15 -108q-3 -53 -17 -107q-74 -264 -317 -532q-256 -281 -606 -465q-383 -205 -801 -248h2zM765 315q-260 86 -391 256q-141 183 -94 410q49 242 274 378 t555 132q195 -2 330 -78q-264 -264 -453 -598q-151 -268 -219 -500h-2zM802 262q192 -57 399 -57q56 0 113 4q37 -303 364 -342q218 -27 474 76q-7 -25 -7 -31q-82 -301 -315 -504q-227 -192 -506 -192q-53 0 -106 6q-244 30 -367 217q-111 164 -113 418q-2 184 62 405h2z M753 276q-66 -227 -62 -415q6 -381 246 -555q115 -84 279 -105q57 -6 112 -6q293 0 532.5 206t317.5 507q2 16 10 51q246 107 490 309q418 350 631 768q166 326 153 609q-10 233 -155 360q-140 121 -371 129q-318 10 -711 -170q-413 -186 -762 -528q-145 94 -356 96 q-348 4 -574.5 -143.5t-277.5 -405.5q-47 -242 92.5 -430t403.5 -277h2zM812 301q78 244 223 504q177 311 441 586q71 -54 100 -117q4 -10 8 -10q4 2 4 14q-2 10 -2 16q-14 72 -88 121q338 338 738 529q380 180 698 167q317 -12 428 -227q49 -100 47 -231q-4 -267 -174 -582 q-207 -383 -598 -741q-227 -207 -444 -322q6 117 -35 195q-8 12 -19 6q-2 -2 4 -19q9 -22 11 -32q12 -41 14 -80q0 -41 -6 -86q-266 -131 -481 -105q-291 37 -291 330q630 64 1155 481q313 250 479 537q82 137 117 270q14 54 16 111q2 225 -205 270q-178 39 -436 -78 q-233 -106 -481 -313q-344 -285 -535 -623q-125 -219 -170 -423q-22 -105 -18 -197q-270 -12 -498 49h-2zM2730 2359q-33 -51 -33 -82q0 -16 8 -16q33 40 50 63q26 27 65 27q45 0 133 -35t142 -35q98 0 143 96q16 35 16 56q0 4 -8 12l-33 -45q-32 -45 -86 -45q-45 0 -143 37 q-57 20 -76 24q-47 12 -71 12q-62 0 -107 -69z" />
<glyph unicode="&#xd6;" horiz-adv-x="2895" d="M1394 260q14 172 119 395q90 201 213 361q264 348 587 600q238 184 439 239q104 27 194 9q131 -27 172 -144q17 -51 15 -108q-3 -53 -17 -107q-74 -264 -317 -532q-256 -281 -606 -465q-383 -205 -801 -248h2zM765 315q-260 86 -391 256q-141 183 -94 410q49 242 274 378 t555 132q195 -2 330 -78q-264 -264 -453 -598q-151 -268 -219 -500h-2zM802 262q192 -57 399 -57q56 0 113 4q37 -303 364 -342q218 -27 474 76q-7 -25 -7 -31q-82 -301 -315 -504q-227 -192 -506 -192q-53 0 -106 6q-244 30 -367 217q-111 164 -113 418q-2 184 62 405h2z M753 276q-66 -227 -62 -415q6 -381 246 -555q115 -84 279 -105q57 -6 112 -6q293 0 532.5 206t317.5 507q2 16 10 51q246 107 490 309q418 350 631 768q166 326 153 609q-10 233 -155 360q-140 121 -371 129q-318 10 -711 -170q-413 -186 -762 -528q-145 94 -356 96 q-348 4 -574.5 -143.5t-277.5 -405.5q-47 -242 92.5 -430t403.5 -277h2zM812 301q78 244 223 504q177 311 441 586q71 -54 100 -117q4 -10 8 -10q4 2 4 14q-2 10 -2 16q-14 72 -88 121q338 338 738 529q380 180 698 167q317 -12 428 -227q49 -100 47 -231q-4 -267 -174 -582 q-207 -383 -598 -741q-227 -207 -444 -322q6 117 -35 195q-8 12 -19 6q-2 -2 4 -19q9 -22 11 -32q12 -41 14 -80q0 -41 -6 -86q-266 -131 -481 -105q-291 37 -291 330q630 64 1155 481q313 250 479 537q82 137 117 270q14 54 16 111q2 225 -205 270q-178 39 -436 -78 q-233 -106 -481 -313q-344 -285 -535 -623q-125 -219 -170 -423q-22 -105 -18 -197q-270 -12 -498 49h-2z" />
<glyph unicode="&#xd9;" horiz-adv-x="3053" d="M1134 -90q133 0 305 119q140 96 328 299l731 786l533 500q243 217 460 383q89 67 179 110q18 9 34 9q19 0 19 -11q0 -18 -57 -57q-43 -29 -211 -168q-338 -278 -746 -672q-328 -317 -493 -518q-170 -209 -234 -368q-37 -89 -37 -164q0 -131 92 -197q70 -51 187 -55 q-8 -60 -10 -117q-3 -53 8 -111q6 -40 18 -36q4 0 2 6q-4 12 -6 35q-6 49 -2 108q4 55 14 115q308 0 592 235q144 119 227.5 255t83.5 249q0 131 -147 131q-121 0 -272 -96q-340 -219 -471 -631q-21 -65 -33 -123q-201 17 -201 195q0 110 123 301q143 221 438 522 q101 103 150 148l760 725l102 88q59 45 158 141q20 29 20 49q0 31 -39 39q-24 4 -69 -10q-19 -6 -33 -13l-23 -12q-45 -26 -135 -86q-162 -115 -459 -379q-532 -473 -917 -905l-252 -280q-143 -154 -264 -267q-268 -248 -447 -248q-90 0 -90 89q0 92 117 262 q106 153 283 346l307 325l184 195q107 115 174 205q148 196 137 358q-8 117 -108 191q-84 61 -209 84q-76 12 -147 12q-594 6 -1092 -395q-305 -248 -393 -562q-31 -102 -27 -188q6 -156 107 -242q92 -82 235 -82q307 0 584 238q252 217 282 461q23 178 -129 246 q-55 24 -122 20q-41 -2 -93 -18q-61 -21 -82 -45q-6 -9 -4 -13q19 0 50.5 19.5t41.5 23.5q44 13 87 15q122 4 186 -74q53 -68 39 -174q-17 -117 -148 -278.5t-305 -272.5q-201 -127 -383 -127q-141 0 -228 78t-91 219q-6 170 108 369q174 297 551 522q402 237 826 237 q139 0 243 -57q125 -70 133 -197q9 -127 -137 -311q-67 -84 -176 -203l-182 -194q-158 -166 -459 -514q-223 -285 -223 -445q0 -118 98 -141q25 -6 47 -6h2zM3000 760q129 0 129 -115q0 -92 -85 -224t-226 -253q-113 -96 -265 -166q-167 -76 -301 -76q33 166 154 373 q82 137 203 252q133 127 270 182q66 27 119 27h2zM2568.5 2474q-16.5 -14 -16.5 -31q0 -59 110.5 -174.5t163.5 -115.5q6 2 8 8q-94 88 -108 108q-35 49 -62 150q-18 69 -63 69q-16 0 -32.5 -14z" />
<glyph unicode="&#xda;" horiz-adv-x="3053" d="M1134 -90q133 0 305 119q140 96 328 299l731 786l533 500q243 217 460 383q89 67 179 110q18 9 34 9q19 0 19 -11q0 -18 -57 -57q-43 -29 -211 -168q-338 -278 -746 -672q-328 -317 -493 -518q-170 -209 -234 -368q-37 -89 -37 -164q0 -131 92 -197q70 -51 187 -55 q-8 -60 -10 -117q-3 -53 8 -111q6 -40 18 -36q4 0 2 6q-4 12 -6 35q-6 49 -2 108q4 55 14 115q308 0 592 235q144 119 227.5 255t83.5 249q0 131 -147 131q-121 0 -272 -96q-340 -219 -471 -631q-21 -65 -33 -123q-201 17 -201 195q0 110 123 301q143 221 438 522 q101 103 150 148l760 725l102 88q59 45 158 141q20 29 20 49q0 31 -39 39q-24 4 -69 -10q-19 -6 -33 -13l-23 -12q-45 -26 -135 -86q-162 -115 -459 -379q-532 -473 -917 -905l-252 -280q-143 -154 -264 -267q-268 -248 -447 -248q-90 0 -90 89q0 92 117 262 q106 153 283 346l307 325l184 195q107 115 174 205q148 196 137 358q-8 117 -108 191q-84 61 -209 84q-76 12 -147 12q-594 6 -1092 -395q-305 -248 -393 -562q-31 -102 -27 -188q6 -156 107 -242q92 -82 235 -82q307 0 584 238q252 217 282 461q23 178 -129 246 q-55 24 -122 20q-41 -2 -93 -18q-61 -21 -82 -45q-6 -9 -4 -13q19 0 50.5 19.5t41.5 23.5q44 13 87 15q122 4 186 -74q53 -68 39 -174q-17 -117 -148 -278.5t-305 -272.5q-201 -127 -383 -127q-141 0 -228 78t-91 219q-6 170 108 369q174 297 551 522q402 237 826 237 q139 0 243 -57q125 -70 133 -197q9 -127 -137 -311q-67 -84 -176 -203l-182 -194q-158 -166 -459 -514q-223 -285 -223 -445q0 -118 98 -141q25 -6 47 -6h2zM3000 760q129 0 129 -115q0 -92 -85 -224t-226 -253q-113 -96 -265 -166q-167 -76 -301 -76q33 166 154 373 q82 137 203 252q133 127 270 182q66 27 119 27h2zM3022 2488q-45 0 -63 -69q-27 -101 -62 -150q-14 -20 -108 -108q2 -6 8 -8q53 0 163.5 115.5t110.5 174.5q0 17 -16 31t-33 14z" />
<glyph unicode="&#xdb;" horiz-adv-x="3053" d="M5189 2257h-82l-188 319l-135 -319h-80l174 418h62zM1134 -90q133 0 305 119q140 96 328 299l731 786l533 500q243 217 460 383q89 67 179 110q18 9 34 9q19 0 19 -11q0 -18 -57 -57q-43 -29 -211 -168q-338 -278 -746 -672q-328 -317 -493 -518q-170 -209 -234 -368 q-37 -89 -37 -164q0 -131 92 -197q70 -51 187 -55q-8 -60 -10 -117q-3 -53 8 -111q6 -40 18 -36q4 0 2 6q-4 12 -6 35q-6 49 -2 108q4 55 14 115q308 0 592 235q144 119 227.5 255t83.5 249q0 131 -147 131q-121 0 -272 -96q-340 -219 -471 -631q-21 -65 -33 -123 q-201 17 -201 195q0 110 123 301q143 221 438 522q101 103 150 148l760 725l102 88q59 45 158 141q20 29 20 49q0 31 -39 39q-24 4 -69 -10q-19 -6 -33 -13l-23 -12q-45 -26 -135 -86q-162 -115 -459 -379q-532 -473 -917 -905l-252 -280q-143 -154 -264 -267 q-268 -248 -447 -248q-90 0 -90 89q0 92 117 262q106 153 283 346l307 325l184 195q107 115 174 205q148 196 137 358q-8 117 -108 191q-84 61 -209 84q-76 12 -147 12q-594 6 -1092 -395q-305 -248 -393 -562q-31 -102 -27 -188q6 -156 107 -242q92 -82 235 -82 q307 0 584 238q252 217 282 461q23 178 -129 246q-55 24 -122 20q-41 -2 -93 -18q-61 -21 -82 -45q-6 -9 -4 -13q19 0 50.5 19.5t41.5 23.5q44 13 87 15q122 4 186 -74q53 -68 39 -174q-17 -117 -148 -278.5t-305 -272.5q-201 -127 -383 -127q-141 0 -228 78t-91 219 q-6 170 108 369q174 297 551 522q402 237 826 237q139 0 243 -57q125 -70 133 -197q9 -127 -137 -311q-67 -84 -176 -203l-182 -194q-158 -166 -459 -514q-223 -285 -223 -445q0 -118 98 -141q25 -6 47 -6h2zM3000 760q129 0 129 -115q0 -92 -85 -224t-226 -253 q-113 -96 -265 -166q-167 -76 -301 -76q33 166 154 373q82 137 203 252q133 127 270 182q66 27 119 27h2z" />
<glyph unicode="&#xdc;" horiz-adv-x="3053" d="M1134 -90q133 0 305 119q140 96 328 299l731 786l533 500q243 217 460 383q89 67 179 110q18 9 34 9q19 0 19 -11q0 -18 -57 -57q-43 -29 -211 -168q-338 -278 -746 -672q-328 -317 -493 -518q-170 -209 -234 -368q-37 -89 -37 -164q0 -131 92 -197q70 -51 187 -55 q-8 -60 -10 -117q-3 -53 8 -111q6 -40 18 -36q4 0 2 6q-4 12 -6 35q-6 49 -2 108q4 55 14 115q308 0 592 235q144 119 227.5 255t83.5 249q0 131 -147 131q-121 0 -272 -96q-340 -219 -471 -631q-21 -65 -33 -123q-201 17 -201 195q0 110 123 301q143 221 438 522 q101 103 150 148l760 725l102 88q59 45 158 141q20 29 20 49q0 31 -39 39q-24 4 -69 -10q-19 -6 -33 -13l-23 -12q-45 -26 -135 -86q-162 -115 -459 -379q-532 -473 -917 -905l-252 -280q-143 -154 -264 -267q-268 -248 -447 -248q-90 0 -90 89q0 92 117 262 q106 153 283 346l307 325l184 195q107 115 174 205q148 196 137 358q-8 117 -108 191q-84 61 -209 84q-76 12 -147 12q-594 6 -1092 -395q-305 -248 -393 -562q-31 -102 -27 -188q6 -156 107 -242q92 -82 235 -82q307 0 584 238q252 217 282 461q23 178 -129 246 q-55 24 -122 20q-41 -2 -93 -18q-61 -21 -82 -45q-6 -9 -4 -13q19 0 50.5 19.5t41.5 23.5q44 13 87 15q122 4 186 -74q53 -68 39 -174q-17 -117 -148 -278.5t-305 -272.5q-201 -127 -383 -127q-141 0 -228 78t-91 219q-6 170 108 369q174 297 551 522q402 237 826 237 q139 0 243 -57q125 -70 133 -197q9 -127 -137 -311q-67 -84 -176 -203l-182 -194q-158 -166 -459 -514q-223 -285 -223 -445q0 -118 98 -141q25 -6 47 -6h2zM3000 760q129 0 129 -115q0 -92 -85 -224t-226 -253q-113 -96 -265 -166q-167 -76 -301 -76q33 166 154 373 q82 137 203 252q133 127 270 182q66 27 119 27h2z" />
<glyph unicode="&#xdd;" horiz-adv-x="3266" d="M1695 700q-152 0 -242 76q-96 80 -90 225q8 162 139 351q445 254 805 254q168 0 250 -78q72 -72 55 -187q-18 -116 -163 -264q-152 -155 -342 -258q-222 -119 -410 -119h-2zM704 -74q-125 0 -181 115q-22 43 -22 109q0 43 8 88q195 163 367 157q155 -6 155 -149 q0 -113 -99 -216.5t-226 -103.5h-2zM714 -96q141 0 244.5 100t103.5 242q0 162 -184 170q-160 8 -359 -137q72 284 414 630q231 234 526 422v-2q-110 -172 -118 -321q-9 -164 102 -252q92 -76 252 -76q356 0 651 231q119 93 201 207q100 142 100 264q0 127 -108 191 q-86 51 -226 51q-354 0 -768 -215v2q123 154 316 309q389 314 858 389q158 25 291 11q180 -21 252 -125q26 -39 26 -94q0 -158 -200 -420q-89 -115 -197 -232l-213 -233q-158 -164 -457 -506q-221 -277 -221 -438q0 -70 37 -116t106 -46q113 0 353 199q184 153 487 460 l391 404q232 239 402 395q286 266 528 455q180 139 307 217q80 47 135 63q27 8 45 6q21 -2 15 -16q-10 -20 -146 -104q-71 -43 -125 -82q-516 -371 -1050 -944q-361 -388 -914 -1080q-311 -389 -606 -827q-153 -225 -289 -453q-159 -264 -196 -413q-14 -56 -2 -93 q16 -49 71 -49q39 0 99 68q80 92 217 285l315 438q189 266 502 657q156 199 344 416q115 131 203 215q76 72 72 78q-7 6 -25 -10l-55 -50l-37 -36l-39 -39q-187 -191 -488 -559q-294 -359 -503 -656l-312 -444l-151 -207q-96 -127 -127 -123q-17 2 -19 21q-4 18 7 47 q53 153 213 419q423 705 1204 1651q422 512 851 945t752 683l113 86l98 74q78 55 82 90q4 33 -47 37q-94 8 -295 -127q-338 -225 -768 -625q-196 -184 -532 -526l-271 -276q-305 -312 -477 -455q-223 -188 -328 -188q-88 0 -88 88q0 92 117 260q101 145 432 503l367 398 q237 256 340 461q55 112 55 219q0 182 -229 256q-62 18 -117 24q-276 31 -614 -90q-314 -114 -564 -317q-241 -197 -350 -348q-362 -209 -600 -453q-350 -358 -414 -684q-307 -258 -401 -547q-45 -133 -41 -233q2 -95 51 -164q56 -80 144 -86q14 0 37.5 4t19.5 12q-2 4 -4 2 q-16 -4 -33 -4q-12 2 -35 10q-118 43 -131 222q-6 92 39 227q70 217 236 401q55 62 112 115q0 -10 -2 -30.5t-2 -30.5q0 -125 84 -195q64 -53 156 -53h2zM4174 2555q-45 0 -63 -69q-27 -101 -62 -150q-14 -20 -108 -108q2 -6 8 -8q53 0 163.5 115.5t110.5 174.5q0 17 -16 31 t-33 14z" />
<glyph unicode="&#xe0;" d="M651 557l99 4q-60 -72 -168 -252q-127 -209 -127 -256q0 -28 32 -28q80 0 291 245l33 33q8 0 9 -4t3 -8q-14 -17 -41 -47l-73 -80q-160 -164 -226 -164q-90 0 -90 143v37q-80 -80 -121 -112q-84 -68 -133 -68q-127 0 -127 188q0 54 8 95l-12 -4l-8 8q4 10 33 45 q78 98 184 164q123 73 234 73q90 0 90 -98q0 -35 -9 -57l5 -4l67 116q19 29 47 31zM94 90q0 -65 45 -65q101 0 240 174q137 168 137 272q0 74 -65 74q-115 0 -240 -172q-117 -162 -117 -283zM381 997q45 0 63 -69q27 -101 62 -150q14 -20 108 -108q-2 -6 -8 -8 q-53 0 -163.5 115.5t-110.5 174.5q0 17 16.5 31t32.5 14z" />
<glyph unicode="&#xe1;" d="M651 557l99 4q-60 -72 -168 -252q-127 -209 -127 -256q0 -28 32 -28q80 0 291 245l33 33q8 0 9 -4t3 -8q-14 -17 -41 -47l-73 -80q-160 -164 -226 -164q-90 0 -90 143v37q-80 -80 -121 -112q-84 -68 -133 -68q-127 0 -127 188q0 54 8 95l-12 -4l-8 8q4 10 33 45 q78 98 184 164q123 73 234 73q90 0 90 -98q0 -35 -9 -57l5 -4l67 116q19 29 47 31zM94 90q0 -65 45 -65q101 0 240 174q137 168 137 272q0 74 -65 74q-115 0 -240 -172q-117 -162 -117 -283zM641 1008q18 0 31.5 -14.5t13.5 -30.5q0 -62 -109.5 -176.5t-160.5 -114.5 q-13 0 -13 8q46 33 119 115q21 32 51 143q19 70 68 70z" />
<glyph unicode="&#xe2;" d="M651 557l99 4q-60 -72 -168 -252q-127 -209 -127 -256q0 -28 32 -28q80 0 291 245l33 33q8 0 9 -4t3 -8q-14 -17 -41 -47l-73 -80q-160 -164 -226 -164q-90 0 -90 143v37q-80 -80 -121 -112q-84 -68 -133 -68q-127 0 -127 188q0 54 8 95l-12 -4l-8 8q4 10 33 45 q78 98 184 164q123 73 234 73q90 0 90 -98q0 -35 -9 -57l5 -4l67 116q19 29 47 31zM94 90q0 -65 45 -65q101 0 240 174q137 168 137 272q0 74 -65 74q-115 0 -240 -172q-117 -162 -117 -283zM535 889l28 4q23 -94 80 -191q12 -22 55 -88l-4 -2q-20 0 -86 78l-78 98 q-43 -36 -131 -98q-108 -78 -131 -78l-8 2q189 156 275 275z" />
<glyph unicode="&#xe3;" d="M651 557l99 4q-60 -72 -168 -252q-127 -209 -127 -256q0 -28 32 -28q80 0 291 245l33 33q8 0 9 -4t3 -8q-14 -17 -41 -47l-73 -80q-160 -164 -226 -164q-90 0 -90 143v37q-80 -80 -121 -112q-84 -68 -133 -68q-127 0 -127 188q0 54 8 95l-12 -4l-8 8q4 10 33 45 q78 98 184 164q123 73 234 73q90 0 90 -98q0 -35 -9 -57l5 -4l67 116q19 29 47 31zM94 90q0 -65 45 -65q101 0 240 174q137 168 137 272q0 74 -65 74q-115 0 -240 -172q-117 -162 -117 -283zM365 829q24 0 71 -12q19 -4 76 -24q98 -37 143 -37q54 0 86 45l33 45q8 -8 8 -12 q0 -21 -16 -56q-45 -96 -143 -96q-54 0 -142 35t-133 35q-39 0 -65 -27q-17 -23 -50 -63q-8 0 -8 16q0 31 33 82q45 69 107 69z" />
<glyph unicode="&#xe4;" d="M651 557l99 4q-60 -72 -168 -252q-127 -209 -127 -256q0 -28 32 -28q80 0 291 245l33 33q8 0 9 -4t3 -8q-14 -17 -41 -47l-73 -80q-160 -164 -226 -164q-90 0 -90 143v37q-80 -80 -121 -112q-84 -68 -133 -68q-127 0 -127 188q0 54 8 95l-12 -4l-8 8q4 10 33 45 q78 98 184 164q123 73 234 73q90 0 90 -98q0 -35 -9 -57l5 -4l67 116q19 29 47 31zM94 90q0 -65 45 -65q101 0 240 174q137 168 137 272q0 74 -65 74q-115 0 -240 -172q-117 -162 -117 -283z" />
<glyph unicode="&#xe8;" horiz-adv-x="655" d="M590 471q0 -100 -182 -182q-136 -62 -285 -88q-12 -31 -12 -66q0 -110 98 -110q135 0 319 163q23 21 90 91q27 28 33 28q8 -8 8 -12q0 -12 -69 -80l-86 -80q-164 -135 -311 -135h-9q-82 0 -127 65.5t-45 151.5q8 47 8 62l-4 4l-4 -9l-12 13q0 10 86 90q211 192 389 192 q115 0 115 -98zM475 545q-86 0 -205 -119q-114 -111 -139 -201q129 17 252 92q141 89 141 191q0 37 -49 37zM340 997q45 0 63 -69q27 -101 62 -150q14 -20 108 -108q-2 -6 -8 -8q-53 0 -163.5 115.5t-110.5 174.5q0 17 16.5 31t32.5 14z" />
<glyph unicode="&#xe9;" horiz-adv-x="655" d="M590 471q0 -100 -182 -182q-136 -62 -285 -88q-12 -31 -12 -66q0 -110 98 -110q135 0 319 163q23 21 90 91q27 28 33 28q8 -8 8 -12q0 -12 -69 -80l-86 -80q-164 -135 -311 -135h-9q-82 0 -127 65.5t-45 151.5q8 47 8 62l-4 4l-4 -9l-12 13q0 10 86 90q211 192 389 192 q115 0 115 -98zM475 545q-86 0 -205 -119q-114 -111 -139 -201q129 17 252 92q141 89 141 191q0 37 -49 37zM610 987q19 0 32 -14.5t13 -30.5q0 -61 -109.5 -176t-160.5 -115q-12 0 -12 8q45 33 119 115q20 33 51 144q18 69 67 69z" />
<glyph unicode="&#xea;" horiz-adv-x="655" d="M590 471q0 -100 -182 -182q-136 -62 -285 -88q-12 -31 -12 -66q0 -110 98 -110q135 0 319 163q23 21 90 91q27 28 33 28q8 -8 8 -12q0 -12 -69 -80l-86 -80q-164 -135 -311 -135h-9q-82 0 -127 65.5t-45 151.5q8 47 8 62l-4 4l-4 -9l-12 13q0 10 86 90q211 192 389 192 q115 0 115 -98zM475 545q-86 0 -205 -119q-114 -111 -139 -201q129 17 252 92q141 89 141 191q0 37 -49 37zM434 893l29 4q22 -94 80 -190q12 -23 55 -89l-4 -2q-21 0 -86 78l-78 99q-43 -37 -131 -99q-109 -78 -131 -78l-8 2q188 156 274 275z" />
<glyph unicode="&#xeb;" horiz-adv-x="655" d="M590 471q0 -100 -182 -182q-136 -62 -285 -88q-12 -31 -12 -66q0 -110 98 -110q135 0 319 163q23 21 90 91q27 28 33 28q8 -8 8 -12q0 -12 -69 -80l-86 -80q-164 -135 -311 -135h-9q-82 0 -127 65.5t-45 151.5q8 47 8 62l-4 4l-4 -9l-12 13q0 10 86 90q211 192 389 192 q115 0 115 -98zM475 545q-86 0 -205 -119q-114 -111 -139 -201q129 17 252 92q141 89 141 191q0 37 -49 37z" />
<glyph unicode="&#xec;" horiz-adv-x="475" d="M238 561l131 8l-199 -325q-88 -144 -88 -174q0 -45 41 -45q80 0 225 151l82 86q14 14 45 49q10 -2 12 -8q0 -8 -127 -143q-149 -160 -241 -160q-99 0 -99 106q0 105 103 252q33 43 94 129l-4 5q-90 -91 -176 -189q-21 -24 -29 -24q-8 8 -8 12l8 12q0 2 53 62l97 104 q63 68 80 92zM236 1014q45 0 63 -70q27 -100 61 -149q15 -21 109 -109q-2 -6 -8 -8q-53 0 -164 115.5t-111 175.5q0 16 16.5 30.5t33.5 14.5z" />
<glyph unicode="&#xed;" horiz-adv-x="475" d="M238 561l131 8l-199 -325q-88 -144 -88 -174q0 -45 41 -45q80 0 225 151l82 86q14 14 45 49q10 -2 12 -8q0 -8 -127 -143q-149 -160 -241 -160q-99 0 -99 106q0 105 103 252q33 43 94 129l-4 5q-90 -91 -176 -189q-21 -24 -29 -24q-8 8 -8 12l8 12q0 2 53 62l97 104 q63 68 80 92zM434 1034q19 0 32 -14t13 -31q0 -61 -109.5 -176t-160.5 -115q-12 0 -12 9q45 32 118 114q21 33 52 144q18 69 67 69z" />
<glyph unicode="&#xee;" horiz-adv-x="475" d="M1871 939h-82l-188 319l-135 -319h-80l174 418h62zM238 561l131 8l-199 -325q-88 -144 -88 -174q0 -45 41 -45q80 0 225 151l82 86q14 14 45 49q10 -2 12 -8q0 -8 -127 -143q-149 -160 -241 -160q-99 0 -99 106q0 105 103 252q33 43 94 129l-4 5q-90 -91 -176 -189 q-21 -24 -29 -24q-8 8 -8 12l8 12q0 2 53 62l97 104q63 68 80 92zM336 739q0 78 74 78q45 0 45 -53q0 -78 -70 -78q-49 0 -49 53z" />
<glyph unicode="&#xef;" horiz-adv-x="475" d="M238 561l131 8l-199 -325q-88 -144 -88 -174q0 -45 41 -45q80 0 225 151l82 86q14 14 45 49q10 -2 12 -8q0 -8 -127 -143q-149 -160 -241 -160q-99 0 -99 106q0 105 103 252q33 43 94 129l-4 5q-90 -91 -176 -189q-21 -24 -29 -24q-8 8 -8 12l8 12q0 2 53 62l97 104 q63 68 80 92zM336 739q0 78 74 78q45 0 45 -53q0 -78 -70 -78q-49 0 -49 53z" />
<glyph unicode="&#xf1;" horiz-adv-x="925" d="M2580 834l41 -41q-35 -45 -59 -63q-39 -31 -84 -31t-115 39q-31 16 -57 27q-35 12 -70 12q-61 0 -94 -86l-41 41q49 98 139 98q45 0 103 -26q71 -33 92 -39q28 -13 47 -13q31 0 55 25q4 4 43 57zM168 12l-135 -12q327 481 327 516q0 29 -32 29q-76 0 -217 -156 q-105 -115 -103 -115q-8 9 -8 13q0 8 78 94q90 100 137 137q66 51 121 51q78 0 78 -98q0 -90 -131 -258l4 -4l200 207q158 153 222 153q32 0 52.5 -29.5t20.5 -64.5q0 -69 -77 -176q-136 -182 -136 -233q0 -41 33 -41q62 0 217 163q113 119 107 119q2 0 4 -5t4 -7 q0 -21 -127 -148q-148 -147 -209 -147q-90 0 -90 131q0 72 86 203q12 18 135 186q0 25 -29 25q-65 0 -278 -230q-201 -215 -254 -303z" />
<glyph unicode="&#xf2;" horiz-adv-x="700" d="M578 430q0 -139 -119 -258l20 -4q103 0 193 102l33 33q4 0 7 -1t4 -3t1 -4t-2 -6q-66 -88 -142 -121q-55 -25 -110 -25q-17 0 -29 4q-119 -147 -262 -147q-127 0 -127 184q0 45 12 107q0 4 -1 7t-3 4t-4 1q-12 0 -37 -33l-12 9q0 18 119 131q168 159 336 159 q123 0 123 -139zM532 455q0 37 -17 63.5t-52 26.5q-119 0 -232 -166q-104 -152 -104 -277q0 -77 53 -77q131 0 246 151q106 141 106 279zM348 987q45 0 64 -69q26 -101 61 -150q14 -20 109 -109q-2 -6 -9 -8q-53 0 -163.5 116t-110.5 175q0 16 16.5 30.5t32.5 14.5z" />
<glyph unicode="&#xf3;" horiz-adv-x="700" d="M578 430q0 -139 -119 -258l20 -4q103 0 193 102l33 33q4 0 7 -1t4 -3t1 -4t-2 -6q-66 -88 -142 -121q-55 -25 -110 -25q-17 0 -29 4q-119 -147 -262 -147q-127 0 -127 184q0 45 12 107q0 4 -1 7t-3 4t-4 1q-12 0 -37 -33l-12 9q0 18 119 131q168 159 336 159 q123 0 123 -139zM532 455q0 37 -17 63.5t-52 26.5q-119 0 -232 -166q-104 -152 -104 -277q0 -77 53 -77q131 0 246 151q106 141 106 279zM557 997q18 0 31.5 -14t13.5 -31q0 -61 -109.5 -175.5t-160.5 -114.5q-13 0 -13 8q46 32 119 114q21 33 51 144q19 69 68 69z" />
<glyph unicode="&#xf4;" horiz-adv-x="700" d="M578 430q0 -139 -119 -258l20 -4q103 0 193 102l33 33q4 0 7 -1t4 -3t1 -4t-2 -6q-66 -88 -142 -121q-55 -25 -110 -25q-17 0 -29 4q-119 -147 -262 -147q-127 0 -127 184q0 45 12 107q0 4 -1 7t-3 4t-4 1q-12 0 -37 -33l-12 9q0 18 119 131q168 159 336 159 q123 0 123 -139zM532 455q0 37 -17 63.5t-52 26.5q-119 0 -232 -166q-104 -152 -104 -277q0 -77 53 -77q131 0 246 151q106 141 106 279zM451 885l28 4q23 -94 80 -191q12 -22 55 -88l-4 -2q-20 0 -86 78l-78 98q-43 -36 -131 -98q-108 -78 -131 -78l-8 2q189 156 275 275z " />
<glyph unicode="&#xf5;" horiz-adv-x="700" d="M578 430q0 -139 -119 -258l20 -4q103 0 193 102l33 33q4 0 7 -1t4 -3t1 -4t-2 -6q-66 -88 -142 -121q-55 -25 -110 -25q-17 0 -29 4q-119 -147 -262 -147q-127 0 -127 184q0 45 12 107q0 4 -1 7t-3 4t-4 1q-12 0 -37 -33l-12 9q0 18 119 131q168 159 336 159 q123 0 123 -139zM532 455q0 37 -17 63.5t-52 26.5q-119 0 -232 -166q-104 -152 -104 -277q0 -77 53 -77q131 0 246 151q106 141 106 279zM311 809q25 0 72 -12q18 -4 76 -25q98 -37 143 -37q53 0 86 45l33 45q8 -8 8 -12q0 -20 -16 -55q-45 -96 -144 -96q-53 0 -141 34.5 t-133 34.5q-39 0 -66 -26q-16 -23 -49 -64q-8 0 -8 16q0 31 33 82q45 70 106 70z" />
<glyph unicode="&#xf6;" horiz-adv-x="700" d="M578 430q0 -139 -119 -258l20 -4q103 0 193 102l33 33q4 0 7 -1t4 -3t1 -4t-2 -6q-66 -88 -142 -121q-55 -25 -110 -25q-17 0 -29 4q-119 -147 -262 -147q-127 0 -127 184q0 45 12 107q0 4 -1 7t-3 4t-4 1q-12 0 -37 -33l-12 9q0 18 119 131q168 159 336 159 q123 0 123 -139zM532 455q0 37 -17 63.5t-52 26.5q-119 0 -232 -166q-104 -152 -104 -277q0 -77 53 -77q131 0 246 151q106 141 106 279z" />
<glyph unicode="&#xf7;" horiz-adv-x="1706" />
<glyph unicode="&#xf9;" d="M266 561l115 8l-242 -374q-53 -86 -53 -134q0 -36 33 -36q76 0 246 186q163 180 262 350l131 8q-307 -438 -307 -508q0 -36 32 -36q58 0 193 143q129 135 131 135q4 0 7 -1t4 -3t1 -4q-12 -16 -63 -74l-60 -65q-147 -156 -221 -156q-86 0 -86 131q0 47 12 78l-4 4 l-88 -94q-119 -119 -190 -119q-47 0 -70.5 29.5t-23.5 81.5q0 108 108 251l100 134l-4 4q-49 -37 -188 -185q-25 -32 -33 -36q-8 0 -8 12q0 10 16.5 28.5t88 92t161.5 149.5zM369 997q45 0 63 -69q27 -101 62 -150q14 -20 108 -108q-2 -6 -8 -8q-53 0 -164 115.5t-111 174.5 q0 17 16.5 31t33.5 14z" />
<glyph unicode="&#xfa;" d="M266 561l115 8l-242 -374q-53 -86 -53 -134q0 -36 33 -36q76 0 246 186q163 180 262 350l131 8q-307 -438 -307 -508q0 -36 32 -36q58 0 193 143q129 135 131 135q4 0 7 -1t4 -3t1 -4q-12 -16 -63 -74l-60 -65q-147 -156 -221 -156q-86 0 -86 131q0 47 12 78l-4 4 l-88 -94q-119 -119 -190 -119q-47 0 -70.5 29.5t-23.5 81.5q0 108 108 251l100 134l-4 4q-49 -37 -188 -185q-25 -32 -33 -36q-8 0 -8 12q0 10 16.5 28.5t88 92t161.5 149.5zM670 987q18 0 31.5 -14.5t13.5 -30.5q0 -61 -109.5 -176t-161.5 -115q-12 0 -12 8q45 33 119 115 q20 33 51 144q19 69 68 69z" />
<glyph unicode="&#xfb;" d="M2031 691h-82l-188 319l-135 -319h-80l174 418h62zM266 561l115 8l-242 -374q-53 -86 -53 -134q0 -36 33 -36q76 0 246 186q163 180 262 350l131 8q-307 -438 -307 -508q0 -36 32 -36q58 0 193 143q129 135 131 135q4 0 7 -1t4 -3t1 -4q-12 -16 -63 -74l-60 -65 q-147 -156 -221 -156q-86 0 -86 131q0 47 12 78l-4 4l-88 -94q-119 -119 -190 -119q-47 0 -70.5 29.5t-23.5 81.5q0 108 108 251l100 134l-4 4q-49 -37 -188 -185q-25 -32 -33 -36q-8 0 -8 12q0 10 16.5 28.5t88 92t161.5 149.5z" />
<glyph unicode="&#xfc;" d="M266 561l115 8l-242 -374q-53 -86 -53 -134q0 -36 33 -36q76 0 246 186q163 180 262 350l131 8q-307 -438 -307 -508q0 -36 32 -36q58 0 193 143q129 135 131 135q4 0 7 -1t4 -3t1 -4q-12 -16 -63 -74l-60 -65q-147 -156 -221 -156q-86 0 -86 131q0 47 12 78l-4 4 l-88 -94q-119 -119 -190 -119q-47 0 -70.5 29.5t-23.5 81.5q0 108 108 251l100 134l-4 4q-49 -37 -188 -185q-25 -32 -33 -36q-8 0 -8 12q0 10 16.5 28.5t88 92t161.5 149.5z" />
<glyph unicode="&#xfd;" horiz-adv-x="925" d="M771 557l131 12l-365 -594l4 -4q154 74 336 283q43 49 49 49l9 -8q-7 -10 -31 -41q-47 -57 -55 -66q-138 -149 -332 -254q-328 -573 -533 -573q-98 0 -98 111q0 102 158 231q121 100 407 268l180 344l-4 4q-59 -81 -170 -184q-141 -131 -206 -131q-39 0 -66 41 q-20 35 -20 78q0 74 98 219t98 178q0 25 -33 25q-71 0 -192 -131q-43 -47 -86 -99q-35 -41 -41 -41q-8 0 -8 13q2 6 12 19t86 100q145 163 233 163q91 0 91 -110q0 -76 -98.5 -226.5t-98.5 -171.5q0 -32 29 -32q86 0 280 215q180 198 236 313zM431 -66q-209 -135 -293 -202 q-207 -166 -207 -269q0 -77 61 -77q181 0 443 548h-4zM783 1008q18 0 31.5 -14.5t13.5 -30.5q0 -62 -109.5 -176.5t-160.5 -114.5q-13 0 -13 8q46 33 119 115q21 32 51 143q19 70 68 70z" />
<glyph unicode="&#xff;" horiz-adv-x="925" d="M771 557l131 12l-365 -594l4 -4q154 74 336 283q43 49 49 49l9 -8q-7 -10 -31 -41q-47 -57 -55 -66q-138 -149 -332 -254q-328 -573 -533 -573q-98 0 -98 111q0 102 158 231q121 100 407 268l180 344l-4 4q-59 -81 -170 -184q-141 -131 -206 -131q-39 0 -66 41 q-20 35 -20 78q0 74 98 219t98 178q0 25 -33 25q-71 0 -192 -131q-43 -47 -86 -99q-35 -41 -41 -41q-8 0 -8 13q2 6 12 19t86 100q145 163 233 163q91 0 91 -110q0 -76 -98.5 -226.5t-98.5 -171.5q0 -32 29 -32q86 0 280 215q180 198 236 313zM431 -66q-209 -135 -293 -202 q-207 -166 -207 -269q0 -77 61 -77q181 0 443 548h-4z" />
<glyph unicode="&#x152;" horiz-adv-x="4680" d="M4274 793q-206 0 -378 -131q-179 -134 -179 -297q0 -78 50.5 -128.5t128.5 -52.5q32 -2 78.5 12.5t64.5 36.5q6 9 2 13q-2 0 -25 -15q-63 -28 -112 -24q-133 10 -133 139q0 137 94 248q86 98 225 145q88 31 178 31q158 0 240 -100q37 -45 49 -105q12 -57 -2 -121 q-53 -239 -283 -428q-243 -200 -516 -209q-241 -8 -358 140q-57 69 -76 170q-47 260 119 534q154 254 399 396q103 57 187 81q71 -124 264 -139q53 -4 96 10q57 21 62 66q10 84 -131 109q-44 6 -93 6q-55 0 -123 -13q-6 27 -8 66q-2 29 2 65q9 80 35 146q162 -29 332 -29 q115 0 203 19q28 -95 134.5 -143t248.5 -38q137 9 237 76q115 78 137 203q31 172 -122 276q-162 109 -449 103q-381 -8 -651 -236q-88 -73 -142 -166q-251 74 -391 183q-239 182 -239 415q0 142 86 252q84 105 221 150q92 31 199 31q210 0 364 -117q176 -135 176 -297 q0 -10 6 -10q11 0 11 32q0 172 -179 301q-163 119 -374 119q-164 0 -297 -74q-142 -77 -207 -217q-41 -90 -41 -194q0 -205 168 -371q143 -141 360 -213q58 -20 115 -37q-31 -65 -41 -159q-8 -78 20 -154q-221 -59 -415 -201q-238 -172 -353 -413q-41 -89 -57 -181 q-47 -280 125 -436q158 -145 434 -137q223 6 428 106.5t336 274.5q82 108 107 229q18 90 0 166q-29 117 -129 178q-91 58 -215 58h-3zM4152 1489q94 174 291.5 283.5t410.5 115.5q281 6 432 -94q144 -98 117 -256q-14 -90 -115.5 -161.5t-236.5 -80.5q-117 -8 -209 19 q-125 35 -154 123q236 49 252 149q6 37 -18.5 58.5t-61.5 21.5q-74 0 -133 -55q-67 -66 -63 -154q-80 -12 -127 -12q-205 0 -385 41v2zM4856 1649q74 0 62 -62q-9 -43 -101 -84q-63 -26 -131 -41q-2 56 29 105t82 69q30 13 57 13h2zM4225 1159q142 0 189 -51q14 -18 10 -43 q-10 -66 -127 -55q-156 14 -188 137q61 12 114 12h2zM1394 260q14 172 119 395q90 201 213 361q264 348 587 600q238 184 439 239q104 27 194 9q131 -27 172 -144q17 -51 15 -108q-3 -53 -17 -107q-74 -264 -317 -532q-256 -281 -606 -465q-383 -205 -801 -248h2zM765 315 q-260 86 -391 256q-141 183 -94 410q49 242 274 378t555 132q195 -2 330 -78q-264 -264 -453 -598q-151 -268 -219 -500h-2zM802 262q192 -57 399 -57q56 0 113 4q37 -303 364 -342q218 -27 474 76q-7 -25 -7 -31q-82 -301 -315 -504q-227 -192 -506 -192q-53 0 -106 6 q-244 30 -367 217q-111 164 -113 418q-2 184 62 405h2zM753 276q-66 -227 -62 -415q6 -381 246 -555q115 -84 279 -105q57 -6 112 -6q293 0 532.5 206t317.5 507q2 16 10 51q246 107 490 309q418 350 631 768q166 326 153 609q-10 233 -155 360q-140 121 -371 129 q-318 10 -711 -170q-413 -186 -762 -528q-145 94 -356 96q-348 4 -574.5 -143.5t-277.5 -405.5q-47 -242 92.5 -430t403.5 -277h2zM812 301q78 244 223 504q177 311 441 586q71 -54 100 -117q4 -10 8 -10q4 2 4 14q-2 10 -2 16q-14 72 -88 121q338 338 738 529 q380 180 698 167q317 -12 428 -227q49 -100 47 -231q-4 -267 -174 -582q-207 -383 -598 -741q-227 -207 -444 -322q6 117 -35 195q-8 12 -19 6q-2 -2 4 -19q9 -22 11 -32q12 -41 14 -80q0 -41 -6 -86q-266 -131 -481 -105q-291 37 -291 330q630 64 1155 481q313 250 479 537 q82 137 117 270q14 54 16 111q2 225 -205 270q-178 39 -436 -78q-233 -106 -481 -313q-344 -285 -535 -623q-125 -219 -170 -423q-22 -105 -18 -197q-270 -12 -498 49h-2z" />
<glyph unicode="&#x153;" horiz-adv-x="1355" d="M1290 471q0 -100 -182 -182q-136 -62 -285 -88q-12 -31 -12 -66q0 -110 98 -110q135 0 319 163q23 21 90 91q27 28 33 28q8 -8 8 -12q0 -12 -69 -80l-86 -80q-164 -135 -311 -135h-9q-82 0 -127 65.5t-45 151.5q8 47 8 62l-4 4l-4 -9l-12 13q0 10 86 90q211 192 389 192 q115 0 115 -98zM1175 545q-86 0 -205 -119q-114 -111 -139 -201q129 17 252 92q141 89 141 191q0 37 -49 37zM578 430q0 -139 -119 -258l20 -4q103 0 193 102l33 33q4 0 7 -1t4 -3t1 -4t-2 -6q-66 -88 -142 -121q-55 -25 -110 -25q-17 0 -29 4q-119 -147 -262 -147 q-127 0 -127 184q0 45 12 107q0 4 -1 7t-3 4t-4 1q-12 0 -37 -33l-12 9q0 18 119 131q168 159 336 159q123 0 123 -139zM532 455q0 37 -17 63.5t-52 26.5q-119 0 -232 -166q-104 -152 -104 -277q0 -77 53 -77q131 0 246 151q106 141 106 279z" />
<glyph unicode="&#x178;" horiz-adv-x="3266" d="M1695 700q-152 0 -242 76q-96 80 -90 225q8 162 139 351q445 254 805 254q168 0 250 -78q72 -72 55 -187q-18 -116 -163 -264q-152 -155 -342 -258q-222 -119 -410 -119h-2zM704 -74q-125 0 -181 115q-22 43 -22 109q0 43 8 88q195 163 367 157q155 -6 155 -149 q0 -113 -99 -216.5t-226 -103.5h-2zM714 -96q141 0 244.5 100t103.5 242q0 162 -184 170q-160 8 -359 -137q72 284 414 630q231 234 526 422v-2q-110 -172 -118 -321q-9 -164 102 -252q92 -76 252 -76q356 0 651 231q119 93 201 207q100 142 100 264q0 127 -108 191 q-86 51 -226 51q-354 0 -768 -215v2q123 154 316 309q389 314 858 389q158 25 291 11q180 -21 252 -125q26 -39 26 -94q0 -158 -200 -420q-89 -115 -197 -232l-213 -233q-158 -164 -457 -506q-221 -277 -221 -438q0 -70 37 -116t106 -46q113 0 353 199q184 153 487 460 l391 404q232 239 402 395q286 266 528 455q180 139 307 217q80 47 135 63q27 8 45 6q21 -2 15 -16q-10 -20 -146 -104q-71 -43 -125 -82q-516 -371 -1050 -944q-361 -388 -914 -1080q-311 -389 -606 -827q-153 -225 -289 -453q-159 -264 -196 -413q-14 -56 -2 -93 q16 -49 71 -49q39 0 99 68q80 92 217 285l315 438q189 266 502 657q156 199 344 416q115 131 203 215q76 72 72 78q-7 6 -25 -10l-55 -50l-37 -36l-39 -39q-187 -191 -488 -559q-294 -359 -503 -656l-312 -444l-151 -207q-96 -127 -127 -123q-17 2 -19 21q-4 18 7 47 q53 153 213 419q423 705 1204 1651q422 512 851 945t752 683l113 86l98 74q78 55 82 90q4 33 -47 37q-94 8 -295 -127q-338 -225 -768 -625q-196 -184 -532 -526l-271 -276q-305 -312 -477 -455q-223 -188 -328 -188q-88 0 -88 88q0 92 117 260q101 145 432 503l367 398 q237 256 340 461q55 112 55 219q0 182 -229 256q-62 18 -117 24q-276 31 -614 -90q-314 -114 -564 -317q-241 -197 -350 -348q-362 -209 -600 -453q-350 -358 -414 -684q-307 -258 -401 -547q-45 -133 -41 -233q2 -95 51 -164q56 -80 144 -86q14 0 37.5 4t19.5 12q-2 4 -4 2 q-16 -4 -33 -4q-12 2 -35 10q-118 43 -131 222q-6 92 39 227q70 217 236 401q55 62 112 115q0 -10 -2 -30.5t-2 -30.5q0 -125 84 -195q64 -53 156 -53h2z" />
<glyph unicode="&#x2c6;" horiz-adv-x="969" d="M737 541h-82l-188 319l-135 -319h-80l174 418h62z" />
<glyph unicode="&#x2dc;" horiz-adv-x="573" d="M994 265l41 -41q-35 -45 -59 -63q-39 -31 -84 -31t-115 39q-31 16 -57 27q-35 12 -70 12q-61 0 -94 -86l-41 41q49 98 139 98q45 0 103 -26q71 -33 92 -39q28 -13 47 -13q31 0 55 25q4 4 43 57z" />
<glyph unicode="&#x2013;" horiz-adv-x="1024" d="M204 512v204h616v-204h-616z" />
<glyph unicode="&#x2014;" horiz-adv-x="2048" d="M204 512v204h1640v-204h-1640z" />
<glyph unicode="&#x2018;" horiz-adv-x="540" d="M241 721q0 63 116.5 191t162.5 128q4 0 7 -1t4 -3t1 -4q0 -4 -37 -33q-131 -102 -131 -168q0 -81 -8 -108q-17 -59 -74 -59q-41 0 -41 57z" />
<glyph unicode="&#x2019;" horiz-adv-x="540" d="M614 983q0 -63 -117 -191t-166 -128q-8 0 -8 12q0 10 33 33q135 96 135 168.5t8 103.5q17 59 70 59q18 0 31.5 -11t13.5 -46z" />
<glyph unicode="&#x201c;" horiz-adv-x="687" d="M464 2217q0 63 116.5 191t166.5 128q6 -2 8 -8q0 -10 -33 -33q-135 -96 -135 -168q0 -77 -6 -106q-17 -61 -72 -61q-20 0 -29 8q-16 16 -16 49zM767 2217q0 63 117 191t166 128q6 -2 8 -8q0 -10 -33 -33q-135 -96 -135 -168q0 -77 -6 -106q-17 -61 -72 -61q-20 0 -29 8 q-16 16 -16 49z" />
<glyph unicode="&#x201d;" horiz-adv-x="1087" d="M1632 2479q0 -63 -117 -191t-166 -128q-8 0 -8 12q0 10 33 33q135 96 135 168.5t8 103.5q17 59 70 59q18 0 31.5 -11t13.5 -46zM1329 2479q0 -63 -117 -191t-166 -128q-8 0 -8 12q0 10 33 33q135 96 135 168.5t8 103.5q17 59 70 59q18 0 31.5 -11t13.5 -46z" />
<glyph unicode="&#x2026;" horiz-adv-x="983" d="M282 127q61 0 61 -49q0 -90 -82 -90q-49 0 -49 57q0 82 70 82zM543 127q61 0 61 -49q0 -90 -82 -90q-49 0 -49 57q0 82 70 82zM814 127q61 0 61 -49q0 -90 -82 -90q-49 0 -49 57q0 82 70 82z" />
<glyph unicode="&#x2039;" horiz-adv-x="970" d="M753 53v-61l-569 262v61l569 263v-62l-499 -229z" />
<glyph unicode="&#x203a;" horiz-adv-x="970" d="M258 -8v61l500 234l-500 229v62l569 -263v-61z" />
<glyph unicode="&#x2122;" horiz-adv-x="7904" d="M3731 446q0 -272 195 -442q167 -149 448 -199q184 -32 387 -26q580 16 1170 442q305 219 639 545l282 278l500 472q45 -11 137 -25l-221 -209q-252 -240 -494 -520q-264 -309 -452 -590q-90 -137 -133 -225q-25 -51 -29 -86q-8 -54 25 -68q10 -6 22 -6q39 0 94 61 l821 879q402 414 734 688q47 -8 143 -29q-344 -294 -565 -549t-316 -466q-49 -111 -57 -207q-10 -123 54.5 -194.5t187.5 -71.5q231 0 420 186q139 137 151 297q10 160 -125 180q-147 23 -289 -129q-122 -133 -116 -268q2 -33 12 -23q6 2 6 11v14q-4 119 117 244 q143 147 268 131q92 -13 92 -113q0 -78 -59 -184q-86 -152 -268 -267q-93 -57 -207 -57q-70 0 -117 43t-55 113q-15 108 71 274q97 189 310 428q278 316 612 582q375 -66 604 -72q232 -6 445 55q260 74 381 224q75 94 63 217q-10 98 -100 158q-76 51 -183 59 q-47 119 -225 119q-125 0 -317 -78q-174 -72 -394 -207q-292 -180 -555 -391l-223 43l203 201q133 139 178 215q12 20 17 47q4 35 -31 45q-29 10 -64 0q-43 -17 -88 -45q-172 -113 -499 -406q-803 162 -1264 189q-375 20 -653 -66q-299 -94 -418 -281q-559 -28 -942 -331 q-330 -260 -330 -606v-3zM3751 451q0 309 330 550q338 250 828 302q28 2 63 4q-43 -97 -31 -222q13 -127 97 -219q79 -84 206 -118q80 -25 150 -23q4 0 52 16.5t46 18.5t-4 2q-10 0 -40.5 -9.5t-51.5 -9.5q-162 0 -287 91q-135 98 -145 251q-8 125 41 226q65 4 129 4 q297 0 487 -78q279 -117 279 -373q0 -166 -160 -313q-145 -137 -385 -219t-479 -82q-330 0 -467 147q-51 56 -64 142q-4 32 2.5 55.5t6.5 30.5q0 4 -2 6q-11 6 -20 -30t-7 -66q10 -158 194 -252q166 -86 379 -86q377 0 693 190q329 199 329 479q0 252 -262 396 q-241 131 -614 127q127 153 413 231q265 70 625 57q369 -12 928 -98q158 -25 307 -53l-756 -723q-438 -432 -802 -647q-476 -281 -971 -303q-439 -19 -713 112q-324 156 -324 484v2zM7510 1509q-45 11 -136 27l238 211q145 121 254 190q29 19 88 43q14 2 21.5 -4t7.5 -14 l-29 -41q-43 -49 -174 -168l-268 -244h-2zM7604 1464l217 -43q-248 -200 -486 -434q-190 -186 -569 -592q-285 -301 -479 -526q-59 -68 -82 -57q-10 4 -2 24q18 62 119 201q227 315 637 772q231 258 643 655h2zM9101 2085q170 0 213 -82q-449 0 -955 -338 q-163 -111 -335 -250q-19 2 -142 23q250 202 531 374q442 273 686 273h2zM9291 1978q113 0 193 -45q96 -51 106 -153q21 -219 -256 -342q-256 -113 -575 -103q-303 11 -606 58q364 301 600 432q278 153 536 153h2zM1189 -209q-145 0 -272 8q14 219 84 420q192 -18 491 -82 q-67 -170 -63 -338q-115 -8 -238 -8h-2zM2152 -37q-304 -129 -697 -160q8 168 80 324q205 -57 617 -162v-2zM282 51q0 99 168 148q82 22 200 30q109 9 267 -4h26q15 0 29 -4q-70 -229 -78 -422q-201 17 -350 58q-262 71 -262 192v2zM1191 -236q125 0 240 9q10 -127 47 -209 q43 -92 108 -111q6 -2 11 -2q4 0 4 2l-37 27q-45 31 -70 94q-35 90 -39 199q434 37 760 172q320 -78 580 -78q26 0 108 6q-53 -446 -403 -747q-320 -275 -709 -275q-235 0 -420 84q-229 107 -346 317q-106 197 -106 457v64q127 -9 270 -9h2zM2297 -10q291 135 532 360 q88 -168 76 -416q-12 0 -37 -2h-37q-239 0 -534 56v2zM2786 418q-258 -266 -559 -416q-225 55 -680 158q90 172 228 291q256 223 563 204q291 -16 448 -235v-2zM251 49q0 -135 268 -213q158 -45 369 -61v-72q0 -373 209 -604q241 -268 690 -268q420 0 754 282 q368 314 417 766q234 45 437 215l88 78q26 25 18 29l-33 -17q-239 -204 -505 -243q12 241 -105 436q250 239 502 604q321 465 596 666q209 153 407 168q29 2 60 2h53q4 0 4 4q0 20 -104 16q-244 -12 -504 -188q-305 -209 -612 -615l-220 -301q-131 -176 -233 -289 q-170 218 -465 234q-328 18 -598 -201q-166 -133 -236 -309q-296 57 -499 76q96 243 278 483q215 287 516 512q502 377 1260 543q518 112 1245 90q238 -8 426 -68q211 -67 272 -176q21 -37 19 -37q4 2 6 15q4 69 -78 145q-123 115 -391 172q-178 39 -475 39 q-533 0 -1036 -119q-725 -170 -1295 -598q-278 -209 -497 -504q-177 -235 -279 -497q-16 4 -59 6q-170 10 -281 2q-246 -21 -342 -107q-47 -41 -47 -94v-2z" />
<glyph unicode="&#xe000;" horiz-adv-x="570" d="M0 570h570v-570h-570v570z" />
<glyph unicode="&#xfb01;" horiz-adv-x="950" d="M713 561l131 8l-199 -325q-88 -144 -88 -174q0 -45 41 -45q80 0 225 151l82 86q14 14 45 49q10 -2 12 -8q0 -8 -127 -143q-149 -160 -241 -160q-99 0 -99 106q0 105 103 252q33 43 94 129l-4 5q-90 -91 -176 -189q-21 -24 -29 -24q-8 8 -8 12l8 12q0 2 53 62l97 104 q63 68 80 92zM811 739q0 78 74 78q45 0 45 -53q0 -78 -70 -78q-49 0 -49 53zM349 528l-246 -487q139 14 303 197l49 55q11 10 17 10l8 -8q0 -19 -102 -119q-74 -72 -140 -110q-73 -46 -151 -58l-291 -549l-127 -16l319 577q-24 23 -24 62q0 61 57 61q21 0 25 -4l237 418 l-4 4q-49 -41 -92 -88l-76 -84q-39 -41 -73 -84q-25 -29 -29 -31l-8 13q108 127 168 192q43 47 118 119q44 41 66 82q336 614 545 614q78 0 78 -94q0 -160 -318 -418zM369 582l5 -4l215 176q161 135 239 229q115 141 115 242q0 45 -57 45q-140 0 -345 -363 q-34 -61 -172 -325z" />
<glyph unicode="&#xfb02;" horiz-adv-x="950" d="M1143 1221l135 12l-418 -660q-178 -280 -221 -360q-66 -121 -66 -160q0 -28 33 -28q82 0 238 155l114 127q9 0 10 -4t3 -8q-11 -12 -28 -34.5t-50 -55.5q-195 -205 -295 -205q-86 0 -86 102q0 88 49 166l160 248l-4 4l-136 -155l-61 -66q-29 -33 -37 -33l-8 8 q256 273 422 545zM349 528l-246 -487q139 14 303 197l49 55q11 10 17 10l8 -8q0 -19 -102 -119q-74 -72 -140 -110q-73 -46 -151 -58l-291 -549l-127 -16l319 577q-24 23 -24 62q0 61 57 61q21 0 25 -4l237 418l-4 4q-49 -41 -92 -88l-76 -84q-39 -41 -73 -84 q-25 -29 -29 -31l-8 13q108 127 168 192q43 47 118 119q44 41 66 82q336 614 545 614q78 0 78 -94q0 -160 -318 -418zM369 582l5 -4l215 176q161 135 239 229q115 141 115 242q0 45 -57 45q-140 0 -345 -363q-34 -61 -172 -325z" />
<glyph unicode="&#xfb03;" horiz-adv-x="1425" d="M1188 561l131 8l-199 -325q-88 -144 -88 -174q0 -45 41 -45q80 0 225 151l82 86q14 14 45 49q10 -2 12 -8q0 -8 -127 -143q-149 -160 -241 -160q-99 0 -99 106q0 105 103 252q33 43 94 129l-4 5q-90 -91 -176 -189q-21 -24 -29 -24q-8 8 -8 12l8 12q0 2 53 62l97 104 q63 68 80 92zM1286 739q0 78 74 78q45 0 45 -53q0 -78 -70 -78q-49 0 -49 53zM824 528l-246 -487q139 14 303 197l49 55q11 10 17 10l8 -8q0 -19 -102 -119q-74 -72 -140 -110q-73 -46 -151 -58l-291 -549l-127 -16l319 577q-24 23 -24 62q0 61 57 61q21 0 25 -4l237 418 l-4 4q-49 -41 -92 -88l-76 -84q-39 -41 -73 -84q-25 -29 -29 -31l-8 13q108 127 168 192q43 47 118 119q44 41 66 82q336 614 545 614q78 0 78 -94q0 -160 -318 -418zM844 582l5 -4l215 176q161 135 239 229q115 141 115 242q0 45 -57 45q-140 0 -345 -363 q-34 -61 -172 -325zM349 528l-246 -487q139 14 303 197l49 55q11 10 17 10l8 -8q0 -19 -102 -119q-74 -72 -140 -110q-73 -46 -151 -58l-291 -549l-127 -16l319 577q-24 23 -24 62q0 61 57 61q21 0 25 -4l237 418l-4 4q-49 -41 -92 -88l-76 -84q-39 -41 -73 -84 q-25 -29 -29 -31l-8 13q108 127 168 192q43 47 118 119q44 41 66 82q336 614 545 614q78 0 78 -94q0 -160 -318 -418zM369 582l5 -4l215 176q161 135 239 229q115 141 115 242q0 45 -57 45q-140 0 -345 -363q-34 -61 -172 -325z" />
<glyph unicode="&#xfb04;" horiz-adv-x="1425" d="M1618 1221l135 12l-418 -660q-178 -280 -221 -360q-66 -121 -66 -160q0 -28 33 -28q82 0 238 155l114 127q9 0 10 -4t3 -8q-11 -12 -28 -34.5t-50 -55.5q-195 -205 -295 -205q-86 0 -86 102q0 88 49 166l160 248l-4 4l-136 -155l-61 -66q-29 -33 -37 -33l-8 8 q256 273 422 545zM824 528l-246 -487q139 14 303 197l49 55q11 10 17 10l8 -8q0 -19 -102 -119q-74 -72 -140 -110q-73 -46 -151 -58l-291 -549l-127 -16l319 577q-24 23 -24 62q0 61 57 61q21 0 25 -4l237 418l-4 4q-49 -41 -92 -88l-76 -84q-39 -41 -73 -84 q-25 -29 -29 -31l-8 13q108 127 168 192q43 47 118 119q44 41 66 82q336 614 545 614q78 0 78 -94q0 -160 -318 -418zM844 582l5 -4l215 176q161 135 239 229q115 141 115 242q0 45 -57 45q-140 0 -345 -363q-34 -61 -172 -325zM349 528l-246 -487q139 14 303 197l49 55 q11 10 17 10l8 -8q0 -19 -102 -119q-74 -72 -140 -110q-73 -46 -151 -58l-291 -549l-127 -16l319 577q-24 23 -24 62q0 61 57 61q21 0 25 -4l237 418l-4 4q-49 -41 -92 -88l-76 -84q-39 -41 -73 -84q-25 -29 -29 -31l-8 13q108 127 168 192q43 47 118 119q44 41 66 82 q336 614 545 614q78 0 78 -94q0 -160 -318 -418zM369 582l5 -4l215 176q161 135 239 229q115 141 115 242q0 45 -57 45q-140 0 -345 -363q-34 -61 -172 -325z" />
</font>
</defs>
</svg>
